<svg width="124" height="124" viewBox="0 0 124 124" fill="none" xmlns="http://www.w3.org/2000/svg">
<g clip-path="url(#clip0_501_2981)">
<path d="M61.9881 93.1573C75.5832 93.1573 86.6041 82.1363 86.6041 68.5413C86.6041 54.9462 75.5832 43.9253 61.9881 43.9253C48.3931 43.9253 37.3721 54.9462 37.3721 68.5413C37.3721 82.1363 48.3931 93.1573 61.9881 93.1573Z" fill="#B9DE6B"/>
<path d="M62 124C27.8095 124 0 96.1846 0 62C0 27.8154 27.8095 0 62 0C96.1905 0 124 27.8095 124 62C124 96.1905 96.1905 124 62 124ZM62 2.37434C29.1213 2.37434 2.37434 29.1213 2.37434 62C2.37434 94.8787 29.1213 121.626 62 121.626C94.8787 121.626 121.626 94.8787 121.626 62C121.626 29.1213 94.8728 2.37434 62 2.37434Z" fill="#B9DE6B"/>
<path d="M46.911 76.8042L45.2312 75.1244L47.1366 73.219L47.5402 66.1375C47.5462 65.9891 47.5877 65.8407 47.6471 65.7042L55.1381 49.5824C55.2806 49.3094 56.3491 47.3565 58.2189 47.2437C59.4179 47.1724 60.516 47.8432 61.4954 49.2559C63.2525 51.7905 62.5995 55.9991 61.8397 58.8661L79.2911 41.4147C80.1281 40.5718 81.2381 40.1028 82.4134 40.0791C83.6006 40.0791 84.7106 40.5065 85.5416 41.3375C86.3726 42.1685 86.8178 43.2785 86.8 44.4657C86.7822 45.641 86.3073 46.7451 85.4644 47.588L83.7846 45.9081C84.1882 45.5045 84.4138 44.9821 84.4197 44.4241C84.4316 43.884 84.2298 43.3854 83.8558 43.0114C83.4878 42.6434 82.9951 42.4594 82.4431 42.4475C81.891 42.4594 81.3628 42.6849 80.9591 43.0826L62.0712 61.9705C61.8991 62.1427 61.6795 62.2614 61.4361 62.3029L59.9699 62.5582C59.5485 62.6354 59.1152 62.4751 58.8481 62.1367C58.575 61.8043 58.5038 61.3532 58.664 60.9496C59.4713 58.8898 61.2105 53.0133 59.5366 50.5974C59.0143 49.8436 58.5869 49.5824 58.3613 49.6062C57.9755 49.6299 57.4472 50.271 57.2632 50.6271L49.8909 66.4937L49.4753 73.8007C49.4575 74.0916 49.3388 74.3646 49.1311 74.5724L46.9051 76.7983L46.911 76.8042Z" fill="#637722"/>
<path d="M83.7923 45.904L67.8091 61.8872L69.488 63.5661L85.4712 47.5829L83.7923 45.904Z" fill="#637722"/>
<path d="M69.6751 63.3833L67.9952 61.7035L73.011 56.6877C74.7561 54.9425 77.5579 54.9069 79.2615 56.6105C80.965 58.3141 80.9294 61.1158 79.1843 62.861L77.5044 61.1811C78.3236 60.362 78.3592 59.062 77.5816 58.2844C76.804 57.5068 75.51 57.5424 74.6909 58.3616L69.6751 63.3774V63.3833Z" fill="#637722"/>
<path d="M77.5097 61.1782L71.9105 66.7773L73.5894 68.4563L79.1886 62.8571L77.5097 61.1782Z" fill="#637722"/>
<path d="M81.6596 69.3786L79.9797 67.6988C80.7989 66.8796 80.8345 65.5797 80.0569 64.8021C79.2793 64.0245 77.9793 64.0601 77.1661 64.8792L75.4863 63.1994C77.2314 61.4543 80.0331 61.4186 81.7367 63.1222C83.4403 64.8258 83.4047 67.6275 81.6596 69.3727V69.3786Z" fill="#637722"/>
<path d="M79.9832 67.7012L75.3997 72.2847L77.0787 73.9636L81.6621 69.3801L79.9832 67.7012Z" fill="#637722"/>
<path d="M84.2179 75.8132L82.5381 74.1333C82.9417 73.7297 83.1673 73.2073 83.1732 72.6494C83.1851 72.1092 82.9832 71.6106 82.6093 71.2366C81.8317 70.459 80.5317 70.4947 79.7126 71.3138L78.0327 69.634C79.7779 67.8888 82.5796 67.8532 84.2832 69.5568C85.1142 70.3878 85.5594 71.4978 85.5416 72.685C85.5238 73.8603 85.0489 74.9644 84.212 75.8073L84.2179 75.8132Z" fill="#637722"/>
<path d="M62.8963 93.3892L61.2165 91.7094L63.2821 89.6437C63.4187 89.5072 63.5789 89.4063 63.7629 89.3528L68.9746 87.6967L82.5381 74.1333L84.2179 75.8131L70.4527 89.5784C70.3161 89.7149 70.1559 89.8158 69.9718 89.8692L64.7602 91.5254L62.8963 93.3892Z" fill="#637722"/>
<path d="M60.7772 101.735L59.0974 100.055L63.7926 95.3598L43.5692 75.1363L38.8739 79.8316L37.1941 78.1518L42.7263 72.6195C43.1715 72.1743 43.9609 72.1743 44.4061 72.6195L66.3094 94.5228C66.7724 94.9858 66.7724 95.7397 66.3094 96.2027L60.7772 101.735Z" fill="#637722"/>
<path d="M54.7079 89.6346L53.029 91.3135L58.389 96.6734L60.0679 94.9945L54.7079 89.6346Z" fill="#637722"/>
<path d="M51.9387 89.7325C51.7785 89.7325 51.6301 89.7028 51.4817 89.6435C51.3392 89.5841 51.2086 89.4951 51.0958 89.3823C50.8762 89.1626 50.7516 88.8599 50.7516 88.5453C50.7516 88.4681 50.7516 88.391 50.7753 88.3138C50.7872 88.2367 50.8109 88.1654 50.8406 88.0883C50.8703 88.017 50.9059 87.9517 50.9534 87.8864C50.9949 87.8211 51.0424 87.7618 51.0958 87.7024C51.1552 87.649 51.2146 87.6015 51.2798 87.56C51.3451 87.5125 51.4104 87.4769 51.4817 87.4472C51.5588 87.4175 51.6301 87.3938 51.7072 87.3819C52.0931 87.3047 52.5026 87.4294 52.7757 87.7024C52.835 87.7618 52.8825 87.8211 52.9241 87.8864C52.9656 87.9517 53.0072 88.017 53.0369 88.0883C53.0665 88.1654 53.0843 88.2367 53.1022 88.3138C53.12 88.391 53.1259 88.4681 53.1259 88.5453C53.1259 88.7056 53.0962 88.854 53.0369 89.0024C52.9775 89.1448 52.8885 89.2754 52.7757 89.3823C52.7223 89.4416 52.6629 89.4891 52.5976 89.5307C52.5323 89.5782 52.467 89.6138 52.3958 89.6435C52.3246 89.6731 52.2474 89.6909 52.1702 89.7087C52.0931 89.7206 52.0159 89.7325 51.9387 89.7325Z" fill="#637722"/>
<path d="M62.854 23.9251L60.5032 24.2588L61.9841 34.6903L64.3349 34.3566L62.854 23.9251Z" fill="#637722"/>
<path d="M75.0554 29.4984L68.7278 37.9229L70.6263 39.3488L76.9539 30.9243L75.0554 29.4984Z" fill="#637722"/>
<path d="M50.3376 33.0085L48.9113 34.9067L57.3347 41.2358L58.761 39.3376L50.3376 33.0085Z" fill="#637722"/>
</g>
<defs>
<clipPath id="clip0_501_2981">
<rect width="124" height="124" fill="white"/>
</clipPath>
</defs>
</svg>
