<svg width="124" height="124" viewBox="0 0 124 124" fill="none" xmlns="http://www.w3.org/2000/svg">
<g clip-path="url(#clip0_501_2892)">
<path d="M62 124C27.8095 124 0 96.1846 0 62C0 27.8154 27.8095 0 62 0C96.1905 0 124 27.8095 124 62C124 96.1905 96.1905 124 62 124ZM62 2.37434C29.1213 2.37434 2.37434 29.1213 2.37434 62C2.37434 94.8787 29.1213 121.626 62 121.626C94.8787 121.626 121.626 94.8787 121.626 62C121.626 29.1213 94.8728 2.37434 62 2.37434Z" fill="#B9DE6B"/>
<path d="M62 86.6158C75.595 86.6158 86.616 75.5948 86.616 61.9998C86.616 48.4047 75.595 37.3838 62 37.3838C48.405 37.3838 37.384 48.4047 37.384 61.9998C37.384 75.5948 48.405 86.6158 62 86.6158Z" fill="#B9DE6B"/>
<path d="M87.3876 32.677H86.8831C84.8293 32.677 83.1613 31.009 83.1613 28.9552C83.1613 26.9014 84.8293 25.2334 86.8831 25.2334H87.3876C88.925 25.2334 90.3259 26.2009 90.872 27.6434L88.652 28.4862C88.4561 27.9639 87.9456 27.6077 87.3876 27.6077H86.8831C86.1411 27.6077 85.5357 28.2132 85.5357 28.9552C85.5357 29.6972 86.1411 30.3026 86.8831 30.3026H87.3876V32.677Z" fill="#637722"/>
<path d="M87.2274 37.7463H86.7228C85.1854 37.7463 83.7846 36.7788 83.2385 35.3363L85.4585 34.4934C85.6544 35.0158 86.1648 35.372 86.7228 35.372H87.2274C87.9693 35.372 88.5748 34.7665 88.5748 34.0245C88.5748 33.2825 87.9693 32.6771 87.2274 32.6771H86.7228V30.3027H87.2274C89.2812 30.3027 90.9491 31.9707 90.9491 34.0245C90.9491 36.0783 89.2812 37.7463 87.2274 37.7463Z" fill="#637722"/>
<path d="M88.3255 23.2568H85.9512V26.4147H88.3255V23.2568Z" fill="#637722"/>
<path d="M88.3255 36.5591H85.9512V39.717H88.3255V36.5591Z" fill="#637722"/>
<path d="M31.3947 92.2077H30.8902C28.8364 92.2077 27.1684 90.5397 27.1684 88.4859C27.1684 86.4321 28.8364 84.7642 30.8902 84.7642H31.3947C32.9321 84.7642 34.333 85.7317 34.8791 87.1741L32.6591 88.017C32.4632 87.4947 31.9527 87.1385 31.3947 87.1385H30.8902C30.1482 87.1385 29.5427 87.744 29.5427 88.4859C29.5427 89.2279 30.1482 89.8334 30.8902 89.8334H31.3947V92.2077Z" fill="#637722"/>
<path d="M31.2285 97.2771H30.724C29.1866 97.2771 27.7857 96.3095 27.2396 94.8671L29.4596 94.0242C29.6555 94.5466 30.166 94.9027 30.724 94.9027H31.2285C31.9705 94.9027 32.576 94.2973 32.576 93.5553C32.576 92.8133 31.9705 92.2078 31.2285 92.2078H30.724V89.8335H31.2285C33.2823 89.8335 34.9503 91.5015 34.9503 93.5553C34.9503 95.6091 33.2823 97.2771 31.2285 97.2771Z" fill="#637722"/>
<path d="M32.3266 82.7876H29.9523V85.9455H32.3266V82.7876Z" fill="#637722"/>
<path d="M32.3266 96.0898H29.9523V99.2477H32.3266V96.0898Z" fill="#637722"/>
<path d="M90.0944 83.9743H89.5898C87.536 83.9743 85.8681 82.3064 85.8681 80.2525C85.8681 78.1987 87.536 76.5308 89.5898 76.5308H90.0944C91.6318 76.5308 93.0326 77.4983 93.5787 78.9407L91.3587 79.7836C91.1629 79.2613 90.6524 78.9051 90.0944 78.9051H89.5898C88.8479 78.9051 88.2424 79.5106 88.2424 80.2525C88.2424 80.9945 88.8479 81.6 89.5898 81.6H90.0944V83.9743Z" fill="#637722"/>
<path d="M89.9341 89.0437H89.4296C87.8922 89.0437 86.4973 88.0761 85.9452 86.6337L88.1652 85.7908C88.3671 86.3132 88.8716 86.6693 89.4296 86.6693H89.9341C90.6761 86.6693 91.2816 86.0639 91.2816 85.3219C91.2816 84.5799 90.6761 83.9744 89.9341 83.9744H89.4296V81.6001H89.9341C91.9879 81.6001 93.6559 83.2681 93.6559 85.3219C93.6559 87.3757 91.9879 89.0437 89.9341 89.0437Z" fill="#637722"/>
<path d="M91.0323 74.5601H88.6579V77.7179H91.0323V74.5601Z" fill="#637722"/>
<path d="M91.0323 87.8564H88.6579V91.0143H91.0323V87.8564Z" fill="#637722"/>
<path d="M46.8517 23.3991H46.3471C44.2933 23.3991 42.6254 21.7312 42.6254 19.6773C42.6254 17.6235 44.2933 15.9556 46.3471 15.9556H46.8517C48.3891 15.9556 49.7899 16.9231 50.336 18.3655L48.116 19.2084C47.9201 18.6861 47.4097 18.3299 46.8517 18.3299H46.3471C45.6052 18.3299 44.9997 18.9354 44.9997 19.6773C44.9997 20.4193 45.6052 21.0248 46.3471 21.0248H46.8517V23.3991Z" fill="#637722"/>
<path d="M46.6914 28.4685H46.1869C44.6495 28.4685 43.2486 27.5009 42.7025 26.0585L44.9226 25.2156C45.1184 25.738 45.6289 26.0941 46.1869 26.0941H46.6914C47.4334 26.0941 48.0389 25.4887 48.0389 24.7467C48.0389 24.0047 47.4334 23.3992 46.6914 23.3992H46.1869V21.0249H46.6914C48.7452 21.0249 50.4132 22.6929 50.4132 24.7467C50.4132 26.8005 48.7452 28.4685 46.6914 28.4685Z" fill="#637722"/>
<path d="M47.7836 13.9849H45.4093V17.1427H47.7836V13.9849Z" fill="#637722"/>
<path d="M47.7836 27.2812H45.4093V30.4391H47.7836V27.2812Z" fill="#637722"/>
<path d="M59.6256 63.1872H59.1211C57.0673 63.1872 55.3993 61.5192 55.3993 59.4654C55.3993 57.4116 57.0673 55.7437 59.1211 55.7437H59.6256C61.163 55.7437 62.5639 56.7112 63.11 58.1536L60.89 58.9965C60.6941 58.4741 60.1836 58.118 59.6256 58.118H59.1211C58.3791 58.118 57.7737 58.7234 57.7737 59.4654C57.7737 60.2074 58.3791 60.8129 59.1211 60.8129H59.6256V63.1872Z" fill="#637722"/>
<path d="M59.4654 68.2566H58.9608C57.4235 68.2566 56.0285 67.289 55.4765 65.8466L57.6965 65.0037C57.8924 65.5261 58.4029 65.8822 58.9608 65.8822H59.4654C60.2074 65.8822 60.8128 65.2768 60.8128 64.5348C60.8128 63.7928 60.2074 63.1873 59.4654 63.1873H58.9608V60.813H59.4654C61.5192 60.813 63.1872 62.481 63.1872 64.5348C63.1872 66.5886 61.5192 68.2566 59.4654 68.2566Z" fill="#637722"/>
<path d="M60.5576 53.7671H58.1832V56.925H60.5576V53.7671Z" fill="#637722"/>
<path d="M60.5576 67.0693H58.1832V70.2272H60.5576V67.0693Z" fill="#637722"/>
<path d="M75.9196 88.3314H67.4313C66.8971 88.3314 66.4341 87.9812 66.2916 87.4647L64.962 82.7457C60.5398 83.6005 55.892 83.5768 51.5054 82.6864L50.158 87.4647C50.0155 87.9752 49.5466 88.3314 49.0183 88.3314H40.536C40.2095 88.3314 39.9008 88.2008 39.6753 87.9633C39.4497 87.7259 39.331 87.4113 39.3488 87.0848L39.8058 77.7299C36.8439 75.6286 34.4398 73.0287 32.7956 70.1498H28.3615C27.7086 70.1498 27.1743 69.6156 27.1743 68.9627V57.1028C27.1743 56.4499 27.7086 55.9157 28.3615 55.9157H30.8308C31.7093 52.55 33.5376 49.3803 36.1553 46.6617C35.6092 44.3704 34.6713 40.7318 33.6444 38.1615C33.4307 37.6273 33.6326 37.0218 34.1134 36.7132C34.3627 36.5588 40.1323 33.0686 47.659 39.6039C51.0662 38.4702 54.6692 37.8944 58.3851 37.8944C73.9192 37.8944 86.5566 48.0922 86.5566 60.6287C86.5566 67.3303 82.9595 73.6045 76.6675 77.9377L77.1186 87.0789C77.1364 87.4054 77.0177 87.72 76.7922 87.9574C76.5666 88.1948 76.2579 88.3254 75.9315 88.3254L75.9196 88.3314ZM68.3336 85.957H74.6731L74.2516 77.3916C74.2338 76.9701 74.4356 76.5724 74.7858 76.3409C80.7514 72.453 84.1704 66.7308 84.1704 60.6406C84.1704 49.4159 72.6014 40.2806 58.3732 40.2806C54.687 40.2806 51.1196 40.8861 47.7777 42.0851C47.3622 42.2335 46.8992 42.1385 46.5727 41.8418C41.7409 37.3899 37.8945 37.841 36.2443 38.3693C37.2059 41.0463 38.0429 44.3467 38.6068 46.7745C38.7018 47.1781 38.5771 47.5995 38.2803 47.8904C35.4905 50.6268 33.6326 53.8975 32.9203 57.3521C32.8075 57.9042 32.3207 58.3019 31.7568 58.3019H29.5309V67.7874H33.4782C33.9175 67.7874 34.3211 68.0307 34.5289 68.4225C36.0841 71.3845 38.5534 74.0616 41.6697 76.1569C42.014 76.3884 42.2158 76.7861 42.1921 77.2016L41.7647 85.9689H48.1042L49.511 80.9828C49.6831 80.3714 50.3123 80.0034 50.9296 80.1518C55.6546 81.2796 60.7535 81.3033 65.5259 80.2171C66.1432 80.0746 66.7606 80.4426 66.9327 81.054L68.3217 85.9748L68.3336 85.957Z" fill="#637722"/>
<path d="M86.3489 59.8155C85.7494 59.8155 85.3576 59.7918 85.2745 59.7858C84.6215 59.7383 84.1289 59.1744 84.1764 58.5215C84.2238 57.8685 84.7818 57.3818 85.4407 57.4174C85.5297 57.4174 94.0833 57.9516 95.0983 53.4226C95.3833 52.1464 95.4367 50.4843 94.0596 49.7958C93.1514 49.3387 92.0235 49.5524 91.7149 49.9204C91.2341 50.4843 91.2044 51.1254 91.3647 51.3688C91.5012 51.5765 91.9879 51.44 92.1363 51.3925C92.7596 51.1907 93.4303 51.535 93.6262 52.1583C93.828 52.7815 93.4838 53.4523 92.8605 53.6481C91.4003 54.1171 90.1063 53.755 89.388 52.6806C88.5867 51.4756 88.8063 49.6652 89.9045 48.3712C90.9967 47.089 93.3354 46.7744 95.1161 47.6648C96.1193 48.1634 98.3452 49.778 97.4133 53.9331C96.2143 59.2813 89.1031 59.8036 86.3489 59.8036V59.8155Z" fill="#637722"/>
<path d="M73.8836 54.5563C67.7815 46.2817 54.7286 47.4036 54.598 47.4155L54.3724 45.053C54.9601 44.9996 68.8856 43.7768 75.7949 53.1436L73.8836 54.5563Z" fill="#637722"/>
<path d="M40.4647 55.868C39.8118 55.868 39.2716 55.3338 39.2716 54.6808C39.2716 54.0279 39.7999 53.4937 40.4529 53.4937H40.4588C41.1118 53.4937 41.646 54.0279 41.646 54.6808C41.646 55.3338 41.1118 55.868 40.4588 55.868H40.4647Z" fill="#637722"/>
</g>
<defs>
<clipPath id="clip0_501_2892">
<rect width="124" height="124" fill="white"/>
</clipPath>
</defs>
</svg>
