<svg width="124" height="124" viewBox="0 0 124 124" fill="none" xmlns="http://www.w3.org/2000/svg">
<g clip-path="url(#clip0_501_2866)">
<path d="M62.003 93.1397C75.5987 93.1397 86.6201 82.1187 86.6201 68.5237C86.6201 54.9287 75.5987 43.9077 62.003 43.9077C48.4073 43.9077 37.3858 54.9287 37.3858 68.5237C37.3858 82.1187 48.4073 93.1397 62.003 93.1397Z" fill="#B9DE6B"/>
<path d="M62.003 124C27.8108 124 0 96.1846 0 62C0 27.8154 27.8108 0 62.003 0C96.1951 0 124.006 27.8095 124.006 62C124.006 96.1905 96.1951 124 62.003 124ZM62.003 2.37434C29.1227 2.37434 2.37446 29.1213 2.37446 62C2.37446 94.8787 29.1227 121.626 62.003 121.626C94.8832 121.626 121.631 94.8787 121.631 62C121.631 29.1213 94.8773 2.37434 62.003 2.37434Z" fill="#B9DE6B"/>
<path d="M31.3013 98.5587C30.0131 98.5587 28.8378 98.4222 27.8642 98.1017C27.4072 97.9473 27.0866 97.5318 27.051 97.051C26.7126 91.8156 32.4529 82.6684 34.6849 79.3265L32.53 78.4896C31.9721 78.27 31.6634 77.6764 31.8058 77.0947C33.6817 69.5739 38.4662 65.7691 41.369 64.0951L38.7749 62.8249C38.389 62.6349 38.1338 62.2491 38.11 61.8217C38.0328 60.3437 39.7543 55.8087 45.7261 55.043L46.0288 57.3995C42.4256 57.8625 41.0425 59.9697 40.6269 61.0975L44.5982 63.0445C45.0316 63.2582 45.2927 63.7093 45.2631 64.1842C45.2334 64.665 44.9128 65.0746 44.4617 65.2289C44.153 65.3357 37.0296 67.8882 34.3762 76.6613L36.9287 77.6526C37.2671 77.7832 37.5283 78.0681 37.6351 78.4184C37.742 78.7686 37.6767 79.1485 37.4689 79.4453C35.2666 82.5557 29.7994 91.2279 29.4254 96.0479C34.1862 96.9026 43.9571 93.8041 47.5247 92.4567C47.8631 92.3261 48.2489 92.3617 48.5636 92.5516C48.8782 92.7416 49.0859 93.0681 49.1275 93.4301L49.4421 96.1488C58.6609 95.7867 63.0062 89.3463 63.0537 89.281C63.3208 88.8773 63.7957 88.6755 64.2706 88.7705C64.7395 88.8595 65.1135 89.2276 65.2085 89.6965L66.093 94.0237C66.6688 93.9644 67.5592 93.7507 68.4793 93.1215C70.2364 91.9224 71.3999 89.6727 71.8451 86.6098L74.1958 86.9541C73.4835 91.8631 71.2752 94.1781 69.5537 95.2584C67.577 96.493 65.5647 96.5465 64.7573 96.2912C64.3478 96.1606 64.0391 95.8164 63.956 95.3949L63.3802 92.5635C61.0235 94.9497 56.1321 98.6478 48.3855 98.535C47.7859 98.529 47.2873 98.0779 47.222 97.4843L46.9549 95.1872C43.8978 96.2497 36.6319 98.5528 31.3131 98.5528L31.3013 98.5587Z" fill="#637722"/>
<path d="M78.3452 31.7924H68.1588C67.5058 31.7924 66.9715 31.2582 66.9715 30.6053V26.6164C66.9715 25.9634 67.5058 25.4292 68.1588 25.4292H78.3452C78.9981 25.4292 79.5324 25.9634 79.5324 26.6164V30.6053C79.5324 31.2582 78.9981 31.7924 78.3452 31.7924ZM69.346 29.4181H77.1579V27.8035H69.346V29.4181Z" fill="#637722"/>
<path d="M73.252 82.7516C60.1746 82.7516 49.5371 72.1145 49.5371 59.0379C49.5371 47.2255 58.471 37.1108 70.0702 35.5437V33.7571H72.4446V36.6003C72.4446 37.2177 71.9757 37.7281 71.3583 37.7816C60.4536 38.7372 51.9056 48.0743 51.9056 59.0319C51.9056 70.7968 61.4806 80.3713 73.246 80.3713C85.0114 80.3713 94.5864 70.7968 94.5864 59.0319C94.5864 48.0743 86.0443 38.7372 75.1396 37.7816C74.5282 37.7281 74.0533 37.2177 74.0533 36.6003V32.6411H76.4278V35.5378C88.2051 37.1049 96.9609 47.0178 96.9609 59.0319C96.9609 72.1086 86.3233 82.7457 73.246 82.7457L73.252 82.7516Z" fill="#637722"/>
<path d="M89.5941 38.0692L86.9877 41.1436L88.7989 42.6789L91.4053 39.6046L89.5941 38.0692Z" fill="#637722"/>
<path d="M89.1429 36.1254L87.6075 37.9365L91.8502 41.5332L93.3856 39.7221L89.1429 36.1254Z" fill="#637722"/>
<path d="M73.252 78.0329V75.6586C82.4174 75.6586 89.8791 68.2031 89.8791 59.0322H92.2535C92.2535 69.509 83.7292 78.0329 73.252 78.0329Z" fill="#637722"/>
<path d="M80.2039 45.6377L74.0721 55.4692L76.0869 56.7257L82.2186 46.8942L80.2039 45.6377Z" fill="#637722"/>
<path d="M73.252 63.6857C70.6876 63.6857 68.604 61.6022 68.604 59.0379C68.604 56.4736 70.6876 54.3901 73.252 54.3901C75.8164 54.3901 77.9 56.4736 77.9 59.0379C77.9 61.6022 75.8164 63.6857 73.252 63.6857ZM73.252 56.7645C71.9994 56.7645 70.9784 57.7854 70.9784 59.0379C70.9784 60.2904 71.9994 61.3113 73.252 61.3113C74.5045 61.3113 75.5255 60.2904 75.5255 59.0379C75.5255 57.7854 74.5045 56.7645 73.252 56.7645Z" fill="#637722"/>
</g>
<defs>
<clipPath id="clip0_501_2866">
<rect width="124" height="124" fill="white"/>
</clipPath>
</defs>
</svg>
