<svg width="124" height="124" viewBox="0 0 124 124" fill="none" xmlns="http://www.w3.org/2000/svg">
<g clip-path="url(#clip0_501_2966)">
<path d="M62 124C27.8095 124 0 96.1846 0 62C0 27.8154 27.8095 0 62 0C96.1905 0 124 27.8095 124 62C124 96.1905 96.1846 124 62 124ZM62 2.37434C29.1213 2.37434 2.37434 29.1213 2.37434 62C2.37434 94.8787 29.1213 121.626 62 121.626C94.8787 121.626 121.626 94.8787 121.626 62C121.626 29.1213 94.8728 2.37434 62 2.37434Z" fill="#B9DE6B"/>
<path d="M62 86.6158C75.595 86.6158 86.616 75.5948 86.616 61.9998C86.616 48.4047 75.595 37.3838 62 37.3838C48.405 37.3838 37.384 48.4047 37.384 61.9998C37.384 75.5948 48.405 86.6158 62 86.6158Z" fill="#B9DE6B"/>
<path d="M62 98.7252C61.7982 98.7252 61.5904 98.6718 61.4124 98.5708C43.7651 88.468 36.5115 72.0554 33.5317 60.065C30.3204 47.1248 31.2404 36.7133 31.282 36.2741C31.3354 35.722 31.7628 35.2768 32.3148 35.2056C32.4988 35.1819 50.621 32.8431 61.3293 25.4827C61.7329 25.2037 62.2671 25.2037 62.6767 25.4827C73.3909 32.8491 91.5072 35.1819 91.6912 35.2056C92.2432 35.2768 92.6765 35.7161 92.724 36.2741C92.7656 36.7133 93.6856 47.1248 90.4743 60.065C87.4945 72.0554 80.2409 88.468 62.5936 98.5708C62.4096 98.6777 62.2078 98.7252 62.006 98.7252H62ZM33.5851 37.4256C33.4426 40.2511 33.2645 49.1727 35.8585 59.5664C38.6959 70.9454 45.5399 86.4676 62.006 96.1668C91.0976 79.0359 90.7236 43.6286 90.4209 37.4256C86.4914 36.8439 71.8654 34.3271 62.006 27.8926C52.1465 34.333 37.5146 36.8498 33.591 37.4316L33.5851 37.4256Z" fill="#637722"/>
<path d="M72.0257 84.1881L70.3043 82.5557C74.1626 78.4897 77.3561 73.6816 79.8017 68.2622L81.9682 69.2357C79.4158 74.8985 76.0739 79.9321 72.0257 84.194V84.1881Z" fill="#637722"/>
<path d="M68.4404 87.6075L66.8852 85.8089C67.556 85.2272 68.2208 84.6217 68.8559 84.0044L70.5061 85.7139C69.8353 86.3609 69.1408 86.9961 68.4404 87.6015V87.6075Z" fill="#637722"/>
<path d="M36.5589 49.1607C36.2206 44.0381 36.5233 40.7378 36.5352 40.6012C36.5886 40.0492 37.016 39.604 37.568 39.5328C37.6571 39.5209 46.5134 38.3872 55.0373 35.1699L55.8742 37.3899C48.6622 40.1145 41.4145 41.367 38.8324 41.7528C38.7671 43.0527 38.7018 45.6348 38.9214 49.0064L36.553 49.1607H36.5589Z" fill="#637722"/>
<path d="M71.8001 23.69L69.7641 22.4732L73.6224 16.015L78.5492 18.9592L81.1847 14.5488L83.2266 15.7657L79.3683 22.218L74.4416 19.2738L71.8001 23.69Z" fill="#637722"/>
<path d="M15.6528 49.9322L13.6109 48.7154L17.4692 42.2631L22.396 45.2073L25.0374 40.791L27.0734 42.0138L23.2151 48.4661L18.2884 45.5219L15.6528 49.9322Z" fill="#637722"/>
<path d="M25.0493 89.1207L23.0133 87.8979L26.8716 81.4456L31.7984 84.3898L34.4398 79.9795L36.4758 81.1963L32.6175 87.6486L27.6908 84.7044L25.0493 89.1207Z" fill="#637722"/>
<path d="M91.5131 83.9981L89.4771 82.7813L93.3354 76.329L98.2621 79.2732L100.898 74.8569L102.94 76.0738L99.0813 82.532L94.1545 79.5878L91.5131 83.9981Z" fill="#637722"/>
<path d="M68.6838 109.944L66.6478 108.727L70.5061 102.275L75.4269 105.219L78.0684 100.803L80.1103 102.02L76.246 108.472L71.3252 105.528L68.6838 109.944Z" fill="#637722"/>
<path d="M54.3309 77.9791C54.1112 77.9791 53.8916 77.9198 53.6898 77.7951C53.2031 77.4865 53.0131 76.8751 53.2327 76.3409L58.8184 62.7774H54.0697C53.6661 62.7774 53.2921 62.5756 53.0725 62.2313C52.8528 61.893 52.8232 61.4656 52.9894 61.0976L59.5069 46.715C59.6969 46.2936 60.1243 46.0205 60.5873 46.0205H70.7198C71.1472 46.0205 71.5389 46.2461 71.7467 46.6141C71.9604 46.9821 71.9544 47.4392 71.7467 47.8013L65.8642 57.8803H70.7198C71.1946 57.8803 71.6161 58.1593 71.806 58.5926C71.996 59.026 71.9129 59.5305 71.5923 59.8748L55.1975 77.5933C54.966 77.8426 54.6455 77.9732 54.3249 77.9732L54.3309 77.9791ZM55.9098 60.4031H60.5873C60.985 60.4031 61.353 60.599 61.5726 60.9314C61.7922 61.2578 61.8338 61.6793 61.6854 62.0473L57.9399 71.147L68.0071 60.2666H63.7986C63.3712 60.2666 62.9794 60.041 62.7717 59.673C62.558 59.305 62.5639 58.8479 62.7717 58.4858L68.6541 48.4067H61.353L55.9098 60.415V60.4031Z" fill="#637722"/>
</g>
<defs>
<clipPath id="clip0_501_2966">
<rect width="124" height="124" fill="white"/>
</clipPath>
</defs>
</svg>
