<svg width="77" height="72" viewBox="0 0 77 72" fill="none" xmlns="http://www.w3.org/2000/svg">
<g clip-path="url(#clip0_512_2144)">
<path d="M34.2975 62.6696H6.70977C3.01037 62.6696 0 59.6685 0 55.9805V6.68912C0 3.00111 3.01037 0 6.70977 0H67.1746C70.874 0 73.8843 3.00111 73.8843 6.68912V55.9821C73.8843 57.6188 73.2848 59.1929 72.1986 60.4165C71.767 60.9015 71.0231 60.9469 70.5365 60.5166C70.0499 60.0863 70.0044 59.3446 70.4361 58.8596C71.1408 58.0663 71.53 57.0445 71.53 55.9821V6.68912C71.53 4.29512 69.576 2.34706 67.1746 2.34706H6.70977C4.30838 2.34706 2.3543 4.29512 2.3543 6.68912V55.9821C2.3543 58.3761 4.30838 60.3242 6.70977 60.3242H34.2975C34.9473 60.3242 35.4746 60.8499 35.4746 61.4977C35.4746 62.1455 34.9473 62.6712 34.2975 62.6712V62.6696Z" fill="#637722"/>
<path d="M50.481 62.6696C41.0936 62.6696 33.4547 55.0557 33.4547 45.6956C33.4547 36.3355 41.092 28.7217 50.481 28.7217C59.8699 28.7217 67.5073 36.3355 67.5073 45.6956C67.5073 55.0557 59.8699 62.6696 50.481 62.6696ZM50.481 31.0703C42.3916 31.0703 35.809 37.6311 35.809 45.6972C35.809 53.7633 42.39 60.3241 50.481 60.3241C58.5719 60.3241 65.153 53.7633 65.153 45.6972C65.153 37.6311 58.5719 31.0703 50.481 31.0703Z" fill="#637722"/>
<path d="M47.3435 52.848C47.0311 52.848 46.7314 52.7244 46.5116 52.5038L42.9817 48.9848C42.5219 48.5263 42.5219 47.7831 42.9817 47.3246C43.4416 46.8662 44.1871 46.8662 44.647 47.3246L47.3451 50.0143L58.7273 38.6671C59.1872 38.2086 59.9327 38.2086 60.3926 38.6671C60.8525 39.1255 60.8525 39.8688 60.3926 40.3272L48.1785 52.5038C47.9572 52.7244 47.659 52.848 47.3466 52.848H47.3435Z" fill="#637722"/>
<path d="M75.6877 71.9998C75.3863 71.9998 75.085 71.8855 74.8558 71.6555L60.8556 57.6983C60.3957 57.2399 60.3957 56.4966 60.8556 56.0382C61.3155 55.5797 62.061 55.5797 62.5209 56.0382L76.5211 69.9969C76.981 70.4554 76.981 71.1986 76.5211 71.6571C76.292 71.8855 75.9906 72.0013 75.6893 72.0013L75.6877 71.9998Z" fill="#637722"/>
<path d="M66.3286 13.6366H6.80707C6.15728 13.6366 5.62991 13.1109 5.62991 12.4631C5.62991 11.8153 6.15728 11.2896 6.80707 11.2896H66.3286C66.9784 11.2896 67.5057 11.8153 67.5057 12.4631C67.5057 13.1109 66.9784 13.6366 66.3286 13.6366Z" fill="#637722"/>
<path d="M7.80059 8.52587C8.75844 8.52587 9.53493 7.75177 9.53493 6.79687C9.53493 5.84197 8.75844 5.06787 7.80059 5.06787C6.84274 5.06787 6.06625 5.84197 6.06625 6.79687C6.06625 7.75177 6.84274 8.52587 7.80059 8.52587Z" fill="#637722"/>
<path d="M13.6267 8.52587C14.5845 8.52587 15.361 7.75177 15.361 6.79687C15.361 5.84197 14.5845 5.06787 13.6267 5.06787C12.6689 5.06787 11.8924 5.84197 11.8924 6.79687C11.8924 7.75177 12.6689 8.52587 13.6267 8.52587Z" fill="#637722"/>
<path d="M19.4513 8.52587C20.4091 8.52587 21.1856 7.75177 21.1856 6.79687C21.1856 5.84197 20.4091 5.06787 19.4513 5.06787C18.4934 5.06787 17.7169 5.84197 17.7169 6.79687C17.7169 7.75177 18.4934 8.52587 19.4513 8.52587Z" fill="#637722"/>
</g>
<defs>
<clipPath id="clip0_512_2144">
<rect width="76.8649" height="72" fill="white"/>
</clipPath>
</defs>
</svg>
