<svg width="71" height="72" viewBox="0 0 71 72" fill="none" xmlns="http://www.w3.org/2000/svg">
<g clip-path="url(#clip0_512_2102)">
<path d="M61.2686 70.1893H48.5774C47.2627 70.1893 45.9756 70.08 44.75 69.8644C42.4108 69.4534 39.124 69.9029 39.0902 69.9076C38.4604 69.9953 37.8783 69.555 37.7908 68.9237C37.7033 68.2925 38.1425 67.709 38.7722 67.6212C38.9212 67.5997 42.4476 67.1162 45.1478 67.5904C46.2413 67.7829 47.3948 67.8799 48.5774 67.8799H61.2686C62.8106 67.8799 64.0639 66.622 64.0639 65.0778V50.587C64.0639 49.8387 63.7736 49.1351 63.2453 48.6055C62.7169 48.0759 62.015 47.7849 61.2686 47.7849H52.4141C51.9334 47.7849 51.5033 47.4862 51.3344 47.0351C51.1654 46.584 51.296 46.0744 51.6584 45.7587C51.6907 45.7295 55.0681 42.7396 55.6702 38.9968C55.8837 37.6634 56.0281 36.2732 56.0987 34.8644C56.1279 34.284 55.9236 33.7344 55.5258 33.314C55.1296 32.8968 54.5966 32.6674 54.0222 32.6674C53.0131 32.6674 52.1515 33.3941 51.9733 34.3948C51.4449 37.3802 50.3145 41.2923 47.9293 42.989C47.0953 43.5817 46.4241 43.9697 45.885 44.2822C44.8943 44.855 44.8037 44.9504 44.7423 45.2291C43.9006 49.0535 41.8671 51.5692 39.0164 52.3113C38.4005 52.4714 37.7724 52.1019 37.6126 51.4846C37.4529 50.8672 37.8215 50.2375 38.4374 50.0758C39.8305 49.7125 41.6659 48.4915 42.4937 44.7303C42.7855 43.4077 43.6886 42.8843 44.7361 42.2792C45.2338 41.9913 45.8527 41.6341 46.5976 41.1029C47.9615 40.133 49.0658 37.6065 49.7063 33.9899C50.0795 31.8853 51.895 30.3564 54.0237 30.3564C55.2355 30.3564 56.3629 30.8414 57.1969 31.7205C58.0339 32.6027 58.4625 33.759 58.401 34.9768C58.3273 36.4702 58.1737 37.9452 57.9464 39.3616C57.5455 41.8604 56.2108 44.0113 55.0528 45.4739H61.2701C62.6324 45.4739 63.9134 46.0051 64.8764 46.9704C65.8394 47.9357 66.3708 49.2198 66.3708 50.5854V65.0763C66.3708 67.8953 64.0823 70.1878 61.2716 70.1878L61.2686 70.1893Z" fill="#637722"/>
<path d="M33.0004 72.0001C32.3599 72.0001 31.7363 71.726 31.2863 71.2472C30.8486 70.7807 30.6028 70.1633 30.5936 69.5075L30.377 51.106C30.3678 50.4532 30.5967 49.8281 31.0206 49.3493C31.4645 48.8489 32.0926 48.5564 32.7454 48.5472L37.2195 48.4671C37.8753 48.4563 38.5127 48.7319 38.9704 49.22C39.4081 49.6865 39.6539 50.3054 39.6631 50.9597L39.8796 69.3597C39.8889 70.0124 39.66 70.6375 39.2361 71.1164C38.7922 71.6167 38.164 71.9093 37.5113 71.9185L33.0372 71.9986C33.0249 71.9986 33.0126 71.9986 33.0004 71.9986V72.0001ZM37.2563 50.7781L32.7807 50.8581C32.7546 50.8627 32.6778 50.9336 32.6794 51.0767L32.8959 69.4782C32.8974 69.6198 32.9773 69.6876 32.9973 69.6907L37.4729 69.6106C37.499 69.606 37.5758 69.5352 37.5743 69.392L37.3577 50.9905C37.3562 50.8566 37.2794 50.7827 37.2563 50.7765V50.7781Z" fill="#637722"/>
<path d="M46.0893 62.5745C45.6377 62.5745 45.2092 62.3066 45.0249 61.8617C44.7807 61.272 45.0602 60.5977 45.6469 60.3529L46.762 59.8894C49.5143 58.744 51.2929 56.0727 51.2929 53.0859V46.6303C51.2929 45.9929 51.809 45.4756 52.4448 45.4756C53.0807 45.4756 53.5967 45.9929 53.5967 46.6303V53.0859C53.5967 57.0104 51.2606 60.5176 47.6451 62.0233L46.5301 62.4868C46.3857 62.5468 46.2367 62.5745 46.0893 62.5745Z" fill="#637722"/>
<path d="M26.4098 69.0393H1.15192C0.516062 69.0393 0 68.522 0 67.8846V1.15471C0 0.51731 0.516062 0 1.15192 0H49.3039C49.9398 0 50.4558 0.51731 50.4558 1.15471V21.202C50.4558 21.8394 49.9398 22.3567 49.3039 22.3567C48.668 22.3567 48.152 21.8394 48.152 21.202V2.30942H2.30385V66.7299H26.4098C27.0456 66.7299 27.5617 67.2472 27.5617 67.8846C27.5617 68.522 27.0456 69.0393 26.4098 69.0393Z" fill="#637722"/>
<path d="M9.51644 13.7272C9.2108 13.7272 8.91744 13.6056 8.70241 13.3885L7.38768 12.0706C6.93767 11.6195 6.93767 10.8882 7.38768 10.4371C7.8377 9.98597 8.56726 9.98597 9.01727 10.4371L9.51644 10.9374L12.8278 7.61958C13.2779 7.16847 14.0074 7.16847 14.4574 7.61958C14.9074 8.07069 14.9074 8.802 14.4574 9.25311L10.332 13.3885C10.1154 13.6056 9.82362 13.7272 9.51798 13.7272H9.51644Z" fill="#637722"/>
<path d="M41.2988 9.52719H20.174C19.5382 9.52719 19.0221 9.00988 19.0221 8.37248C19.0221 7.73508 19.5382 7.21777 20.174 7.21777H41.2988C41.9346 7.21777 42.4507 7.73508 42.4507 8.37248C42.4507 9.00988 41.9346 9.52719 41.2988 9.52719Z" fill="#637722"/>
<path d="M26.9565 13.7933H20.174C19.5382 13.7933 19.0221 13.276 19.0221 12.6386C19.0221 12.0012 19.5382 11.4839 20.174 11.4839H26.9565C27.5924 11.4839 28.1085 12.0012 28.1085 12.6386C28.1085 13.276 27.5924 13.7933 26.9565 13.7933Z" fill="#637722"/>
<path d="M9.51644 28.3982C9.22155 28.3982 8.92666 28.2858 8.70241 28.0595L7.38768 26.7416C6.93767 26.2905 6.93767 25.5592 7.38768 25.108C7.8377 24.6569 8.56726 24.6569 9.01727 25.108L9.51644 25.6084L12.8278 22.289C13.2779 21.8379 14.0074 21.8379 14.4574 22.289C14.9074 22.7401 14.9074 23.4714 14.4574 23.9225L10.332 28.0579C10.1078 28.2827 9.81287 28.3967 9.51798 28.3967L9.51644 28.3982Z" fill="#637722"/>
<path d="M34.7666 24.1966H20.174C19.5382 24.1966 19.0221 23.6793 19.0221 23.0419C19.0221 22.4045 19.5382 21.8872 20.174 21.8872H34.7666C35.4025 21.8872 35.9185 22.4045 35.9185 23.0419C35.9185 23.6793 35.4025 24.1966 34.7666 24.1966Z" fill="#637722"/>
<path d="M26.9565 28.4642H20.174C19.5382 28.4642 19.0221 27.9469 19.0221 27.3095C19.0221 26.6721 19.5382 26.1548 20.174 26.1548H26.9565C27.5924 26.1548 28.1085 26.6721 28.1085 27.3095C28.1085 27.9469 27.5924 28.4642 26.9565 28.4642Z" fill="#637722"/>
<path d="M9.51644 43.0676C9.2108 43.0676 8.91744 42.9459 8.70241 42.7288L7.38768 41.4109C6.93767 40.9598 6.93767 40.2285 7.38768 39.7774C7.8377 39.3263 8.56726 39.3263 9.01727 39.7774L9.51644 40.2778L12.8278 36.9599C13.2779 36.5088 14.0074 36.5088 14.4574 36.9599C14.9074 37.411 14.9074 38.1423 14.4574 38.5934L10.332 42.7288C10.1154 42.9459 9.82362 43.0676 9.51798 43.0676H9.51644Z" fill="#637722"/>
<path d="M41.2988 38.8661H20.174C19.5382 38.8661 19.0221 38.3487 19.0221 37.7114C19.0221 37.074 19.5382 36.5566 20.174 36.5566H41.2988C41.9346 36.5566 42.4507 37.074 42.4507 37.7114C42.4507 38.3487 41.9346 38.8661 41.2988 38.8661Z" fill="#637722"/>
<path d="M26.9565 43.1336H20.174C19.5382 43.1336 19.0221 42.6163 19.0221 41.9789C19.0221 41.3415 19.5382 40.8242 20.174 40.8242H26.9565C27.5924 40.8242 28.1085 41.3415 28.1085 41.9789C28.1085 42.6163 27.5924 43.1336 26.9565 43.1336Z" fill="#637722"/>
<path d="M9.51644 57.737C9.2108 57.737 8.91744 57.6154 8.70241 57.3983L7.38768 56.0804C6.93767 55.6293 6.93767 54.8979 7.38768 54.4468C7.8377 53.9957 8.56726 53.9957 9.01727 54.4468L9.51644 54.9472L12.8278 51.6293C13.2779 51.1782 14.0074 51.1782 14.4574 51.6293C14.9074 52.0805 14.9074 52.8118 14.4574 53.2629L10.332 57.3983C10.1154 57.6154 9.82362 57.737 9.51798 57.737H9.51644Z" fill="#637722"/>
<path d="M26.9565 53.537H20.174C19.5382 53.537 19.0221 53.0196 19.0221 52.3822C19.0221 51.7448 19.5382 51.2275 20.174 51.2275H26.9565C27.5924 51.2275 28.1085 51.7448 28.1085 52.3822C28.1085 53.0196 27.5924 53.537 26.9565 53.537Z" fill="#637722"/>
<path d="M26.9565 57.8031H20.174C19.5382 57.8031 19.0221 57.2858 19.0221 56.6484C19.0221 56.011 19.5382 55.4937 20.174 55.4937H26.9565C27.5924 55.4937 28.1085 56.011 28.1085 56.6484C28.1085 57.2858 27.5924 57.8031 26.9565 57.8031Z" fill="#637722"/>
<path d="M66.787 31.9221C66.1511 31.9221 65.6351 31.4048 65.6351 30.7674V30.6689C65.6351 30.0315 66.1511 29.5142 66.787 29.5142C67.4229 29.5142 67.9389 30.0315 67.9389 30.6689V30.7674C67.9389 31.4048 67.4229 31.9221 66.787 31.9221Z" fill="#637722"/>
<path d="M66.787 37.9607C66.1511 37.9607 65.6351 37.4434 65.6351 36.806V36.7074C65.6351 36.07 66.1511 35.5527 66.787 35.5527C67.4229 35.5527 67.9389 36.07 67.9389 36.7074V36.806C67.9389 37.4434 67.4229 37.9607 66.787 37.9607Z" fill="#637722"/>
<path d="M63.8243 34.8919H63.726C63.0901 34.8919 62.574 34.3746 62.574 33.7372C62.574 33.0998 63.0901 32.5825 63.726 32.5825H63.8243C64.4601 32.5825 64.9762 33.0998 64.9762 33.7372C64.9762 34.3746 64.4601 34.8919 63.8243 34.8919Z" fill="#637722"/>
<path d="M69.8481 34.8919H69.7498C69.1139 34.8919 68.5978 34.3746 68.5978 33.7372C68.5978 33.0998 69.1139 32.5825 69.7498 32.5825H69.8481C70.4839 32.5825 71 33.0998 71 33.7372C71 34.3746 70.4839 34.8919 69.8481 34.8919Z" fill="#637722"/>
<path d="M43.0282 25.4944C42.3923 25.4944 41.8763 24.9771 41.8763 24.3397V24.2411C41.8763 23.6037 42.3923 23.0864 43.0282 23.0864C43.6641 23.0864 44.1801 23.6037 44.1801 24.2411V24.3397C44.1801 24.9771 43.6641 25.4944 43.0282 25.4944Z" fill="#637722"/>
<path d="M43.0282 31.533C42.3923 31.533 41.8763 31.0156 41.8763 30.3782V30.2797C41.8763 29.6423 42.3923 29.125 43.0282 29.125C43.6641 29.125 44.1801 29.6423 44.1801 30.2797V30.3782C44.1801 31.0156 43.6641 31.533 43.0282 31.533Z" fill="#637722"/>
<path d="M40.0655 28.4642H39.9672C39.3313 28.4642 38.8152 27.9469 38.8152 27.3095C38.8152 26.6721 39.3313 26.1548 39.9672 26.1548H40.0655C40.7013 26.1548 41.2174 26.6721 41.2174 27.3095C41.2174 27.9469 40.7013 28.4642 40.0655 28.4642Z" fill="#637722"/>
<path d="M46.0893 28.4642H45.991C45.3551 28.4642 44.8391 27.9469 44.8391 27.3095C44.8391 26.6721 45.3551 26.1548 45.991 26.1548H46.0893C46.7251 26.1548 47.2412 26.6721 47.2412 27.3095C47.2412 27.9469 46.7251 28.4642 46.0893 28.4642Z" fill="#637722"/>
<path d="M61.4221 13.4949C60.7863 13.4949 60.2702 12.9776 60.2702 12.3402V12.2416C60.2702 11.6042 60.7863 11.0869 61.4221 11.0869C62.058 11.0869 62.5741 11.6042 62.5741 12.2416V12.3402C62.5741 12.9776 62.058 13.4949 61.4221 13.4949Z" fill="#637722"/>
<path d="M61.4221 19.5334C60.7863 19.5334 60.2702 19.0161 60.2702 18.3787V18.2802C60.2702 17.6428 60.7863 17.1255 61.4221 17.1255C62.058 17.1255 62.5741 17.6428 62.5741 18.2802V18.3787C62.5741 19.0161 62.058 19.5334 61.4221 19.5334Z" fill="#637722"/>
<path d="M58.4594 16.4647H58.3611C57.7252 16.4647 57.2092 15.9474 57.2092 15.31C57.2092 14.6726 57.7252 14.1553 58.3611 14.1553H58.4594C59.0952 14.1553 59.6113 14.6726 59.6113 15.31C59.6113 15.9474 59.0952 16.4647 58.4594 16.4647Z" fill="#637722"/>
<path d="M64.4832 16.4647H64.3849C63.749 16.4647 63.233 15.9474 63.233 15.31C63.233 14.6726 63.749 14.1553 64.3849 14.1553H64.4832C65.1191 14.1553 65.6351 14.6726 65.6351 15.31C65.6351 15.9474 65.1191 16.4647 64.4832 16.4647Z" fill="#637722"/>
<path d="M61.8836 26.142C62.4163 25.6081 62.4163 24.7425 61.8836 24.2086C61.351 23.6746 60.4875 23.6746 59.9548 24.2086C59.4222 24.7425 59.4222 25.6081 59.9548 26.142C60.4875 26.6759 61.351 26.6759 61.8836 26.142Z" fill="#637722"/>
</g>
<defs>
<clipPath id="clip0_512_2102">
<rect width="71" height="72" fill="white"/>
</clipPath>
</defs>
</svg>
