<svg width="62" height="59" viewBox="0 0 62 59" fill="none" xmlns="http://www.w3.org/2000/svg">
<g clip-path="url(#clip0_512_2081)">
<path d="M13.6823 13.6662H1.06174C0.47566 13.6662 0 13.2253 0 12.682V0.984121C0 0.440886 0.47566 0 1.06174 0H8.68079C9.26687 0 9.74253 0.440886 9.74253 0.984121C9.74253 1.52736 9.26687 1.96824 8.68079 1.96824H2.12348V11.6979H12.6206V8.20757C12.6206 7.66433 13.0962 7.22344 13.6823 7.22344C14.2684 7.22344 14.744 7.66433 14.744 8.20757V12.682C14.744 13.2253 14.2684 13.6662 13.6823 13.6662Z" fill="#637722"/>
<path d="M7.93045 8.76023C7.65865 8.76023 7.38684 8.66444 7.18015 8.47155L5.44598 6.86415C5.03119 6.47969 5.03119 5.85641 5.44598 5.47195C5.86076 5.08749 6.5332 5.08749 6.94799 5.47195L7.93187 6.3839L13.7856 0.956804C14.2004 0.572341 14.8728 0.572341 15.2876 0.956804C15.7024 1.34127 15.7024 1.96454 15.2876 2.34901L8.68216 8.47155C8.47548 8.66312 8.20367 8.76023 7.93187 8.76023H7.93045Z" fill="#637722"/>
<path d="M60.9383 4.66355H24.0095C23.4234 4.66355 22.9478 4.22267 22.9478 3.67943C22.9478 3.1362 23.4234 2.69531 24.0095 2.69531H60.9383C61.5243 2.69531 62 3.1362 62 3.67943C62 4.22267 61.5243 4.66355 60.9383 4.66355Z" fill="#637722"/>
<path d="M42.7598 10.9712H24.0095C23.4234 10.9712 22.9478 10.5303 22.9478 9.98705C22.9478 9.44382 23.4234 9.00293 24.0095 9.00293H42.7598C43.3459 9.00293 43.8216 9.44382 43.8216 9.98705C43.8216 10.5303 43.3459 10.9712 42.7598 10.9712Z" fill="#637722"/>
<path d="M13.6823 36.3327H1.06174C0.47566 36.3327 0 35.8918 0 35.3485V23.6506C0 23.1074 0.47566 22.6665 1.06174 22.6665H8.68079C9.26687 22.6665 9.74253 23.1074 9.74253 23.6506C9.74253 24.1939 9.26687 24.6347 8.68079 24.6347H2.12348V34.3644H12.6206V30.8741C12.6206 30.3308 13.0962 29.8899 13.6823 29.8899C14.2684 29.8899 14.744 30.3308 14.744 30.8741V35.3485C14.744 35.8918 14.2684 36.3327 13.6823 36.3327Z" fill="#637722"/>
<path d="M7.93045 31.4267C7.65865 31.4267 7.38684 31.3309 7.18015 31.1381L5.44598 29.5307C5.03119 29.1462 5.03119 28.5229 5.44598 28.1385C5.86076 27.754 6.5332 27.754 6.94799 28.1385L7.93187 29.0504L13.787 23.6233C14.2018 23.2388 14.8742 23.2388 15.289 23.6233C15.7038 24.0078 15.7038 24.631 15.289 25.0155L8.68358 31.1381C8.47689 31.3296 8.20509 31.4267 7.93328 31.4267H7.93045Z" fill="#637722"/>
<path d="M60.9383 27.3296H24.0095C23.4234 27.3296 22.9478 26.8887 22.9478 26.3454C22.9478 25.8022 23.4234 25.3613 24.0095 25.3613H60.9383C61.5243 25.3613 62 25.8022 62 26.3454C62 26.8887 61.5243 27.3296 60.9383 27.3296Z" fill="#637722"/>
<path d="M42.7598 33.6372H24.0095C23.4234 33.6372 22.9478 33.1963 22.9478 32.6531C22.9478 32.1098 23.4234 31.6689 24.0095 31.6689H42.7598C43.3459 31.6689 43.8216 32.1098 43.8216 32.6531C43.8216 33.1963 43.3459 33.6372 42.7598 33.6372Z" fill="#637722"/>
<path d="M13.6823 59.0001H1.06174C0.47566 59.0001 0 58.5593 0 58.016V46.3181C0 45.7749 0.47566 45.334 1.06174 45.334H8.68079C9.26687 45.334 9.74253 45.7749 9.74253 46.3181C9.74253 46.8613 9.26687 47.3022 8.68079 47.3022H2.12348V57.0319H12.6206V53.5416C12.6206 52.9983 13.0962 52.5574 13.6823 52.5574C14.2684 52.5574 14.744 52.9983 14.744 53.5416V58.016C14.744 58.5593 14.2684 59.0001 13.6823 59.0001Z" fill="#637722"/>
<path d="M7.93045 54.0942C7.64874 54.0942 7.37835 53.9905 7.18015 53.8055L5.44598 52.1981C5.03119 51.8137 5.03119 51.1904 5.44598 50.8059C5.86076 50.4215 6.5332 50.4215 6.94799 50.8059L7.93187 51.7179L13.787 46.2908C14.2018 45.9063 14.8742 45.9063 15.289 46.2908C15.7038 46.6753 15.7038 47.2985 15.289 47.683L8.68358 53.8055C8.48397 53.9905 8.215 54.0942 7.93328 54.0942H7.93045Z" fill="#637722"/>
<path d="M60.9383 49.997H24.0095C23.4234 49.997 22.9478 49.5562 22.9478 49.0129C22.9478 48.4697 23.4234 48.0288 24.0095 48.0288H60.9383C61.5243 48.0288 62 48.4697 62 49.0129C62 49.5562 61.5243 49.997 60.9383 49.997Z" fill="#637722"/>
<path d="M42.7598 56.3047H24.0095C23.4234 56.3047 22.9478 55.8638 22.9478 55.3205C22.9478 54.7773 23.4234 54.3364 24.0095 54.3364H42.7598C43.3459 54.3364 43.8216 54.7773 43.8216 55.3205C43.8216 55.8638 43.3459 56.3047 42.7598 56.3047Z" fill="#637722"/>
</g>
<defs>
<clipPath id="clip0_512_2081">
<rect width="62" height="59" fill="white"/>
</clipPath>
</defs>
</svg>
