<svg width="199" height="200" viewBox="0 0 199 200" fill="none" xmlns="http://www.w3.org/2000/svg">
<g clip-path="url(#clip0_512_2479)">
<path d="M101.152 173.12C141.565 173.12 174.326 140.358 174.326 99.9456C174.326 59.5328 141.565 26.7717 101.152 26.7717C60.7389 26.7717 27.9778 59.5328 27.9778 99.9456C27.9778 140.358 60.7389 173.12 101.152 173.12Z" fill="#B9DE6B"/>
<path d="M7.48888 136.536C6.97273 136.536 6.48795 136.22 6.295 135.709C4.78757 131.696 3.5334 127.542 2.56382 123.363C2.40464 122.678 2.83154 121.993 3.51652 121.833C4.19908 121.672 4.88646 122.101 5.04564 122.786C5.9911 126.857 7.21392 130.904 8.68034 134.812C8.92877 135.47 8.59352 136.206 7.93507 136.452C7.78795 136.507 7.636 136.534 7.48646 136.534L7.48888 136.536ZM1.74137 111.79C1.09258 111.79 0.54026 111.298 0.47514 110.64C0.159184 107.418 0 104.13 0 100.867C0 99.825 0.0144713 98.7855 0.0482375 97.7508C0.0699444 97.0465 0.636735 96.4966 1.36271 96.5183C2.06457 96.54 2.61689 97.1285 2.59518 97.8304C2.56382 98.8386 2.54935 99.8515 2.54935 100.867C2.54935 104.046 2.70371 107.251 3.01243 110.391C3.08238 111.091 2.56865 111.716 1.8692 111.783C1.8282 111.788 1.78479 111.79 1.74379 111.79H1.74137ZM2.53488 86.3933C2.46735 86.3933 2.3974 86.3885 2.32987 86.3764C1.63525 86.263 1.16252 85.6094 1.27588 84.9148C1.96327 80.6747 2.93284 76.4467 4.16531 72.3441C4.36791 71.6712 5.08182 71.2901 5.74991 71.4903C6.42283 71.6929 6.80631 72.402 6.60372 73.0773C5.40501 77.0714 4.45956 81.1909 3.79147 85.3224C3.69017 85.9471 3.14991 86.3933 2.53488 86.3933Z" fill="#3A4810"/>
<path d="M97.529 200C97.529 200 97.517 200 97.5073 200C93.207 199.93 88.8825 199.583 84.6544 198.963C83.9598 198.862 83.4774 198.215 83.5787 197.518C83.68 196.821 84.3216 196.341 85.0235 196.442C89.1429 197.045 93.3565 197.385 97.5483 197.453C98.2526 197.465 98.8121 198.044 98.8025 198.748C98.7904 199.445 98.2237 200.002 97.529 200.002V200ZM110.244 199.39C109.605 199.39 109.053 198.91 108.981 198.259C108.901 197.559 109.405 196.93 110.105 196.85C114.26 196.382 118.418 195.634 122.465 194.631C123.15 194.457 123.84 194.88 124.009 195.56C124.178 196.242 123.763 196.934 123.08 197.103C118.927 198.133 114.658 198.9 110.392 199.38C110.343 199.385 110.295 199.387 110.247 199.387L110.244 199.39ZM72.3901 196.31C72.2743 196.31 72.1585 196.295 72.0403 196.262C67.916 195.092 63.8303 193.637 59.8893 191.937C59.2429 191.657 58.9463 190.91 59.2236 190.263C59.5034 189.617 60.2535 189.32 60.8975 189.598C64.7348 191.254 68.7192 192.67 72.7349 193.809C73.4103 194.002 73.8034 194.706 73.6129 195.381C73.4537 195.941 72.9424 196.307 72.3876 196.307L72.3901 196.31ZM134.896 193.276C134.387 193.276 133.907 192.969 133.712 192.468C133.454 191.814 133.777 191.074 134.431 190.816C138.319 189.289 142.144 187.49 145.798 185.471C146.413 185.133 147.19 185.353 147.53 185.97C147.87 186.585 147.648 187.362 147.03 187.702C143.277 189.776 139.353 191.621 135.362 193.189C135.21 193.249 135.051 193.278 134.896 193.278V193.276ZM157.131 180.992C156.741 180.992 156.355 180.813 156.104 180.473C155.687 179.907 155.807 179.111 156.374 178.693C159.734 176.219 162.968 173.496 165.988 170.602C166.494 170.114 167.3 170.131 167.789 170.64C168.277 171.149 168.26 171.955 167.751 172.442C164.654 175.411 161.335 178.206 157.886 180.746C157.66 180.915 157.394 180.994 157.131 180.994V180.992Z" fill="#3A4810"/>
<path d="M188.261 142.655C188.085 142.655 187.904 142.619 187.736 142.539C187.094 142.248 186.812 141.493 187.104 140.851C188.835 137.048 190.331 133.094 191.549 129.1C191.754 128.428 192.473 128.051 193.138 128.254C193.811 128.459 194.19 129.17 193.985 129.843C192.735 133.941 191.199 138 189.419 141.905C189.207 142.375 188.744 142.65 188.259 142.65L188.261 142.655ZM195.68 118.356C195.61 118.356 195.54 118.351 195.468 118.339C194.773 118.223 194.306 117.567 194.421 116.872C195.106 112.762 195.531 108.554 195.678 104.369C195.704 103.665 196.291 103.122 196.997 103.141C197.699 103.166 198.249 103.756 198.225 104.461C198.073 108.756 197.639 113.074 196.934 117.292C196.831 117.914 196.291 118.356 195.68 118.356ZM196.59 92.9657C195.938 92.9657 195.384 92.4688 195.323 91.8104C194.935 87.6427 194.272 83.4701 193.35 79.4061C193.194 78.7187 193.623 78.0386 194.31 77.8818C194.998 77.725 195.678 78.1568 195.835 78.8417C196.783 83.0119 197.463 87.2954 197.861 91.574C197.926 92.2735 197.412 92.8957 196.71 92.9609C196.669 92.9657 196.631 92.9657 196.59 92.9657ZM190.968 68.1981C190.449 68.1981 189.964 67.8798 189.771 67.366C188.324 63.4516 186.602 59.5925 184.653 55.8951C184.325 55.2729 184.564 54.5011 185.186 54.1731C185.809 53.845 186.578 54.0838 186.908 54.7061C188.91 58.5024 190.678 62.4627 192.164 66.4809C192.407 67.1417 192.07 67.8749 191.409 68.1185C191.264 68.1716 191.115 68.1981 190.968 68.1981ZM179.132 45.7315C178.732 45.7315 178.339 45.5434 178.091 45.1912C175.683 41.7857 173.028 38.4983 170.194 35.4255C169.716 34.907 169.75 34.1014 170.269 33.6263C170.787 33.1487 171.59 33.1825 172.068 33.6986C174.974 36.8534 177.702 40.2252 180.172 43.7224C180.577 44.2964 180.44 45.0924 179.866 45.4975C179.641 45.6543 179.386 45.7315 179.132 45.7315ZM161.919 27.0539C161.629 27.0539 161.34 26.9575 161.101 26.7573C157.893 24.0728 154.483 21.5766 150.964 19.3335C150.371 18.9548 150.195 18.1686 150.573 17.5753C150.95 16.9819 151.738 16.8083 152.332 17.1845C155.945 19.4855 159.444 22.0469 162.736 24.8036C163.277 25.2547 163.347 26.0578 162.896 26.5981C162.645 26.8996 162.283 27.0539 161.919 27.0539ZM140.485 13.4075C140.304 13.4075 140.12 13.3689 139.947 13.2869C136.16 11.519 132.219 9.98508 128.235 8.72849C127.564 8.51625 127.193 7.80233 127.403 7.12942C127.615 6.45891 128.329 6.08507 129.002 6.29732C133.09 7.58767 137.134 9.16022 141.022 10.9764C141.659 11.273 141.936 12.0328 141.637 12.6695C141.42 13.1326 140.962 13.4051 140.482 13.4051L140.485 13.4075ZM78.2871 6.49751C77.701 6.49751 77.1728 6.0899 77.0425 5.49416C76.893 4.80678 77.3296 4.12904 78.0169 3.97951C82.1991 3.07264 86.4899 2.43108 90.7709 2.07171C91.4607 2.02106 92.0878 2.53479 92.1457 3.23424C92.206 3.93609 91.6826 4.55112 90.9832 4.60901C86.8131 4.95873 82.6309 5.5834 78.5572 6.46615C78.4655 6.48545 78.3739 6.49509 78.2847 6.49509L78.2871 6.49751ZM116.255 5.76188C116.18 5.76188 116.108 5.75465 116.033 5.74259C111.933 5.01902 107.731 4.55836 103.549 4.37023C102.845 4.33888 102.302 3.74314 102.333 3.04129C102.365 2.33943 102.97 1.79193 103.662 1.8257C107.956 2.01865 112.268 2.49138 116.477 3.23424C117.169 3.35724 117.632 4.01568 117.509 4.7103C117.4 5.32775 116.863 5.76429 116.257 5.76429L116.255 5.76188Z" fill="#3A4810"/>
<path d="M77.6335 88.3953H39.5307C38.8264 88.3953 38.2572 87.8237 38.2572 87.1219C38.2572 86.42 38.8288 85.8484 39.5307 85.8484H77.6335C78.3378 85.8484 78.907 86.42 78.907 87.1219C78.907 87.8237 78.3354 88.3953 77.6335 88.3953Z" fill="#3A4810"/>
<path d="M66.1192 58.9751H51.0426V87.1217H66.1192V58.9751Z" fill="white"/>
<path d="M66.1192 88.3952H51.0426C50.3383 88.3952 49.7691 87.8236 49.7691 87.1217V58.9751C49.7691 58.2709 50.3407 57.7017 51.0426 57.7017H66.1192C66.8235 57.7017 67.3927 58.2733 67.3927 58.9751V87.1217C67.3927 87.826 66.8211 88.3952 66.1192 88.3952ZM52.316 85.8458H64.8433V60.2486H52.316V85.8458Z" fill="#3A4810"/>
<path d="M94.6251 77.4212H23.306C19.9728 77.4212 17.269 74.7174 17.269 71.3818V24.0994C17.269 20.7638 19.9703 18.0601 23.306 18.0601H94.6251C97.9584 18.0601 100.662 20.7638 100.662 24.0994V71.3818C100.662 74.7174 97.9608 77.4212 94.6251 77.4212Z" fill="white"/>
<path d="M94.6252 78.6971H23.3084C19.2781 78.6971 15.998 75.4169 15.998 71.3843V24.0994C15.998 20.0668 19.2781 16.7866 23.3084 16.7866H94.6252C98.6554 16.7866 101.936 20.0668 101.936 24.0994V71.3818C101.936 75.4145 98.6554 78.6947 94.6252 78.6947V78.6971ZM23.3084 19.336C20.6818 19.336 18.5473 21.4729 18.5473 24.1018V71.3843C18.5473 74.0132 20.6843 76.1501 23.3084 76.1501H94.6252C97.2517 76.1501 99.3862 74.0132 99.3862 71.3843V24.0994C99.3862 21.4705 97.2493 19.3336 94.6252 19.3336H23.3084V19.336Z" fill="#3A4810"/>
<path d="M22.6355 70.282C22.568 70.282 22.5149 70.2265 22.5149 70.159V25.8624C22.5149 24.0391 23.9644 22.563 25.7516 22.563H92.1192C93.9064 22.563 95.3536 24.0391 95.3536 25.8624V70.159C95.3536 70.2265 95.2981 70.282 95.233 70.282H22.6355Z" fill="#D0E1AD"/>
<path d="M95.2329 71.5555H22.6355C21.8661 71.5555 21.2414 70.9284 21.2414 70.1566V25.8625C21.2414 23.3396 23.265 21.2896 25.7516 21.2896H92.1192C94.6058 21.2896 96.6294 23.3421 96.6294 25.8625V70.159C96.6294 70.9308 96.0047 71.5579 95.2353 71.5579L95.2329 71.5555ZM23.7907 69.0061H94.0801V25.8601C94.0801 24.7434 93.1997 23.8341 92.1192 23.8341H25.7516C24.6687 23.8341 23.7883 24.7434 23.7883 25.8601V69.0061H23.7907Z" fill="#3A4810"/>
<path d="M61.8212 75.2383H55.3622C54.6579 75.2383 54.0887 74.6667 54.0887 73.9649C54.0887 73.263 54.6604 72.6914 55.3622 72.6914H61.8212C62.5255 72.6914 63.0947 73.263 63.0947 73.9649C63.0947 74.6667 62.5231 75.2383 61.8212 75.2383Z" fill="#3A4810"/>
<path d="M39.2244 38.0473C33.0114 38.0473 27.9778 33.0089 27.9778 26.7911C27.9778 20.5733 32.7364 15.8195 38.7106 15.5493C39.2557 7.57567 45.886 1.27344 53.9947 1.27344C61.1146 1.27344 67.096 6.13096 68.8181 12.7154C69.8335 12.0931 71.0225 11.7289 72.3008 11.7289C75.9982 11.7289 78.9962 14.7293 78.9962 18.4291C78.9962 18.4532 78.9938 18.4798 78.9914 18.5039C79.3725 18.4581 79.7584 18.4291 80.1515 18.4291C85.5662 18.4291 89.9534 22.8211 89.9534 28.2382C89.9534 33.6553 85.5637 38.0473 80.1515 38.0473H39.2244Z" fill="white"/>
<path d="M80.1515 39.3208H76.5626C75.8584 39.3208 75.2892 38.7492 75.2892 38.0473C75.2892 37.3455 75.8608 36.7739 76.5626 36.7739H80.1515C84.8547 36.7739 88.6799 32.9462 88.6799 28.2382C88.6799 23.5303 84.8547 19.7026 80.1515 19.7026C79.8452 19.7026 79.5148 19.7243 79.1409 19.7677C78.7816 19.8087 78.4174 19.6978 78.1448 19.4542C77.8723 19.213 77.7155 18.8657 77.7155 18.5015C77.7155 18.4726 77.7179 18.4074 77.7203 18.3785C77.7203 15.4336 75.2867 13 72.2984 13C71.3096 13 70.3352 13.2774 69.4814 13.7983C69.1389 14.0082 68.7168 14.0444 68.3405 13.8924C67.9667 13.7429 67.6869 13.4221 67.5832 13.0338C65.9673 6.85696 60.3789 2.54453 53.9923 2.54453C46.6361 2.54453 40.481 8.29444 39.9793 15.6338C39.9359 16.2802 39.4125 16.7915 38.7661 16.8204C33.431 17.0616 29.2513 21.4416 29.2513 26.7911C29.2513 32.1407 33.7253 36.7715 39.2244 36.7715C39.9286 36.7715 40.4978 37.3431 40.4978 38.0449C40.4978 38.7468 39.9262 39.3184 39.2244 39.3184C32.3192 39.3184 26.7019 33.6987 26.7019 26.7887C26.7019 20.4479 31.3834 15.1924 37.5481 14.3724C38.6479 6.22988 45.6689 0 53.9923 0C61.0229 0 67.2359 4.42579 69.5947 10.933C70.4606 10.6171 71.3747 10.4555 72.2984 10.4555C76.2587 10.4555 79.5534 13.3618 80.166 17.1557C86.2656 17.1653 91.2268 22.1338 91.2268 28.2382C91.2268 34.3427 86.2584 39.3208 80.1491 39.3208H80.1515Z" fill="#3A4810"/>
<path d="M51.2524 26.9407V41.4578H56.04C56.1774 41.4578 56.2546 41.5928 56.175 41.6917L48.7682 49.2409C48.7006 49.3205 48.5656 49.3205 48.498 49.2409L41.0912 41.6917C41.0116 41.5952 41.0912 41.4578 41.2262 41.4578H46.0138V26.9407H51.25H51.2524Z" fill="#D0E1AD"/>
<path d="M48.6355 50.5747C48.2279 50.5747 47.8444 50.4058 47.5719 50.1116L40.1843 42.5817C40.1577 42.5552 40.1336 42.5262 40.1095 42.4973C39.7598 42.0728 39.6874 41.4988 39.9238 41.0019C40.1577 40.5027 40.6715 40.1819 41.231 40.1819H44.7451V26.9383C44.7451 26.234 45.3167 25.6648 46.0186 25.6648C46.7205 25.6648 47.2921 26.2364 47.2921 26.9383V41.4553C47.2921 42.1596 46.7205 42.7288 46.0186 42.7288H43.901L48.6379 47.555L53.3724 42.7288H51.2548C50.5505 42.7288 49.9813 42.1572 49.9813 41.4553V26.9383C49.9813 26.234 50.5529 25.6648 51.2548 25.6648C51.9566 25.6648 52.5283 26.2364 52.5283 26.9383V40.1819H56.0424C56.5995 40.1819 57.1132 40.5051 57.3496 41.0019C57.5835 41.4988 57.5136 42.0728 57.1639 42.4973C57.1398 42.5262 57.1156 42.5552 57.0891 42.5817L49.7015 50.1116C49.429 50.4058 49.0455 50.5747 48.6379 50.5747H48.6355ZM49.4796 48.4257C49.4796 48.4257 49.4796 48.4257 49.4821 48.4257C49.4821 48.4257 49.4821 48.4257 49.4796 48.4257Z" fill="#3A4810"/>
<path d="M63.9654 49.1538V34.6368H59.1779C59.0404 34.6368 58.9632 34.5017 59.0428 34.4028L66.4497 26.8536C66.5172 26.774 66.6523 26.774 66.7198 26.8536L74.1267 34.4028C74.2063 34.4993 74.1267 34.6368 73.9916 34.6368H69.204V49.1538H63.9678H63.9654Z" fill="#D0E1AD"/>
<path d="M69.2016 50.4274C68.4973 50.4274 67.9281 49.8558 67.9281 49.154V34.6369C67.9281 33.9326 68.4997 33.3634 69.2016 33.3634H71.3192L66.5847 28.5372L61.8502 33.3634H63.9678C64.6721 33.3634 65.2413 33.935 65.2413 34.6369V49.154C65.2413 49.8582 64.6697 50.4274 63.9678 50.4274C63.266 50.4274 62.6943 49.8558 62.6943 49.154V35.9103H59.1802C58.6207 35.9103 58.107 35.5872 57.873 35.0855C57.6391 34.5862 57.7138 34.0122 58.066 33.5877C58.0877 33.5612 58.1118 33.5346 58.1359 33.5081L65.5235 25.9782C66.0686 25.3897 67.1057 25.3897 67.6508 25.9782L75.0383 33.5081C75.0624 33.5322 75.0866 33.5588 75.1083 33.5877C75.4628 34.0122 75.5352 34.5862 75.3012 35.0855C75.0673 35.5847 74.5535 35.9103 73.994 35.9103H70.4799V49.154C70.4799 49.8582 69.9083 50.4274 69.2064 50.4274H69.2016Z" fill="#3A4810"/>
<path d="M160.093 69.4163L167.493 76.816L163.248 81.0609V95.9759L174.958 84.2711L179.557 79.6716C181.134 78.0943 181.134 75.5377 179.557 73.9603L174.958 69.3609L163.414 57.8176L160.096 69.4163H160.093Z" fill="#D0E1AD"/>
<path d="M163.248 97.2518C163.084 97.2518 162.917 97.2205 162.761 97.1554C162.286 96.9576 161.974 96.4945 161.974 95.9784V81.0633C161.974 80.7257 162.109 80.4025 162.348 80.1613L165.691 76.816L159.193 70.3184C158.697 69.8216 158.697 69.0136 159.193 68.5168C159.693 68.0199 160.498 68.0199 160.995 68.5168L168.395 75.9164C168.892 76.4132 168.892 77.2212 168.395 77.7181L164.524 81.5891V92.9032L178.657 78.7721C179.735 77.6939 179.735 75.9405 178.657 74.8624L162.515 58.7197C162.018 58.2229 162.018 57.4149 162.515 56.918C163.014 56.4212 163.819 56.4212 164.316 56.918L180.459 73.0607C182.531 75.1325 182.531 78.5019 180.459 80.5737L164.152 96.878C163.909 97.1216 163.583 97.2518 163.25 97.2518H163.248Z" fill="#3A4810"/>
<path d="M135.926 162.679V105.001C135.926 103.351 137.267 102.008 138.919 102.008H179.48C180.047 102.008 180.563 102.162 181.016 102.43C181.894 102.956 182.471 103.916 182.471 104.999V162.676H135.924L135.926 162.679Z" fill="white"/>
<path d="M182.473 163.952H135.926C135.222 163.952 134.653 163.381 134.653 162.679V105.001C134.653 102.65 136.565 100.735 138.919 100.735H179.48C180.254 100.735 180.99 100.937 181.665 101.335C182.953 102.107 183.746 103.511 183.746 105.001V162.679C183.746 163.383 183.175 163.952 182.473 163.952ZM137.2 161.403H181.197V104.999C181.197 104.398 180.876 103.831 180.36 103.523C180.088 103.364 179.796 103.282 179.477 103.282H138.917C137.969 103.282 137.2 104.053 137.2 104.999V161.403Z" fill="#3A4810"/>
<path d="M129.86 156.613V98.9353C129.86 97.2856 131.201 95.9421 132.853 95.9421H173.414C173.981 95.9421 174.497 96.0965 174.95 96.3642C175.828 96.89 176.405 97.8499 176.405 98.9329V156.61H129.858L129.86 156.613Z" fill="#D0E1AD"/>
<path d="M176.407 157.886H129.86C129.156 157.886 128.587 157.315 128.587 156.613V98.9353C128.587 96.5837 130.499 94.6687 132.853 94.6687H173.416C174.193 94.6687 174.929 94.8713 175.601 95.2693C176.887 96.0411 177.683 97.4424 177.683 98.9353V156.613C177.683 157.317 177.111 157.886 176.409 157.886H176.407ZM131.134 155.337H175.131V98.9329C175.131 98.3323 174.81 97.7655 174.294 97.4568C174.022 97.2952 173.73 97.2156 173.412 97.2156H132.849C131.901 97.2156 131.131 97.9874 131.131 98.9329V155.337H131.134Z" fill="#3A4810"/>
<path d="M123.874 150.627V92.9489C123.874 91.2992 125.215 89.9558 126.867 89.9558H167.428C167.994 89.9558 168.511 90.1102 168.964 90.3779C169.842 90.9037 170.418 91.8636 170.418 92.9465V150.624H123.872L123.874 150.627Z" fill="white"/>
<path d="M170.418 151.9H123.874C123.17 151.9 122.601 151.328 122.601 150.627V92.949C122.601 90.5974 124.513 88.6824 126.867 88.6824H167.428C168.204 88.6824 168.94 88.885 169.613 89.2829C170.898 90.0547 171.694 91.4584 171.694 92.949V150.627C171.694 151.331 171.123 151.9 170.421 151.9H170.418ZM125.147 149.351H169.145V92.949C169.145 92.3484 168.824 91.7816 168.308 91.4729C168.035 91.3113 167.746 91.2317 167.425 91.2317H126.865C125.917 91.2317 125.147 92.0035 125.147 92.949V149.351Z" fill="#3A4810"/>
<path d="M162.148 112.196H132.219C131.515 112.196 130.946 111.624 130.946 110.922C130.946 110.22 131.517 109.649 132.219 109.649H162.148C162.852 109.649 163.422 110.22 163.422 110.922C163.422 111.624 162.85 112.196 162.148 112.196Z" fill="#3A4810"/>
<path d="M162.148 105.445H144.122C143.417 105.445 142.848 104.873 142.848 104.171C142.848 103.47 143.42 102.898 144.122 102.898H162.148C162.852 102.898 163.422 103.47 163.422 104.171C163.422 104.873 162.85 105.445 162.148 105.445Z" fill="#3A4810"/>
<path d="M162.148 118.703H153.653C152.949 118.703 152.38 118.131 152.38 117.429C152.38 116.728 152.952 116.156 153.653 116.156H162.148C162.852 116.156 163.422 116.728 163.422 117.429C163.422 118.131 162.85 118.703 162.148 118.703Z" fill="#3A4810"/>
<path d="M147.146 118.703H132.144C131.44 118.703 130.871 118.131 130.871 117.429C130.871 116.728 131.442 116.156 132.144 116.156H147.146C147.85 116.156 148.42 116.728 148.42 117.429C148.42 118.131 147.848 118.703 147.146 118.703Z" fill="#3A4810"/>
<path d="M162.148 125.21H132.144C131.44 125.21 130.871 124.639 130.871 123.937C130.871 123.235 131.442 122.663 132.144 122.663H162.148C162.852 122.663 163.422 123.235 163.422 123.937C163.422 124.639 162.85 125.21 162.148 125.21Z" fill="#3A4810"/>
<path d="M162.148 131.717H147.146C146.442 131.717 145.873 131.146 145.873 130.444C145.873 129.742 146.444 129.17 147.146 129.17H162.148C162.852 129.17 163.422 129.742 163.422 130.444C163.422 131.146 162.85 131.717 162.148 131.717Z" fill="#3A4810"/>
<path d="M140.639 131.717H132.144C131.44 131.717 130.871 131.146 130.871 130.444C130.871 129.742 131.442 129.17 132.144 129.17H140.639C141.343 129.17 141.912 129.742 141.912 130.444C141.912 131.146 141.341 131.717 140.639 131.717Z" fill="#3A4810"/>
<path d="M162.148 138.225H136.966C136.261 138.225 135.692 137.653 135.692 136.951C135.692 136.249 136.264 135.678 136.966 135.678H162.148C162.852 135.678 163.422 136.249 163.422 136.951C163.422 137.653 162.85 138.225 162.148 138.225Z" fill="#3A4810"/>
<path d="M162.148 144.732H143.157C142.453 144.732 141.883 144.16 141.883 143.459C141.883 142.757 142.455 142.185 143.157 142.185H162.148C162.852 142.185 163.422 142.757 163.422 143.459C163.422 144.16 162.85 144.732 162.148 144.732Z" fill="#3A4810"/>
<path d="M140.885 51.9905C140.181 51.9905 139.611 51.4189 139.611 50.717V36.9717C139.611 36.2674 140.183 35.6982 140.885 35.6982C141.587 35.6982 142.158 36.2699 142.158 36.9717V50.717C142.158 51.4213 141.587 51.9905 140.885 51.9905Z" fill="#3A4810"/>
<path d="M159.734 51.9905C159.029 51.9905 158.46 51.4189 158.46 50.717V36.9717C158.46 36.2674 159.032 35.6982 159.734 35.6982C160.436 35.6982 161.007 36.2699 161.007 36.9717V50.717C161.007 51.4213 160.436 51.9905 159.734 51.9905Z" fill="#3A4810"/>
<path d="M140.4 69.4163L133.001 76.816L137.245 81.0609V95.9759L125.536 84.2711L120.936 79.6716C119.359 78.0943 119.359 75.5377 120.936 73.9603L125.536 69.3609L137.079 57.8176L140.398 69.4163H140.4Z" fill="#D0E1AD"/>
<path d="M137.245 97.2518C136.915 97.2518 136.589 97.1216 136.343 96.878L120.034 80.5737C117.962 78.5019 117.962 75.1325 120.034 73.0607L136.177 56.918C136.676 56.4212 137.482 56.4212 137.979 56.918C138.475 57.4149 138.475 58.2229 137.979 58.7197L121.836 74.8624C120.758 75.9405 120.758 77.6939 121.836 78.7721L135.97 92.9032V81.5891L132.098 77.7181C131.602 77.2212 131.602 76.4132 132.098 75.9164L139.498 68.5168C139.997 68.0199 140.803 68.0199 141.3 68.5168C141.797 69.0136 141.797 69.8216 141.3 70.3184L134.802 76.816L138.145 80.1613C138.384 80.4001 138.519 80.7233 138.519 81.0633V95.9784C138.519 96.4945 138.208 96.9576 137.733 97.1554C137.576 97.2205 137.409 97.2518 137.245 97.2518Z" fill="#3A4810"/>
<path d="M133.001 78.0894H127.832C127.128 78.0894 126.558 77.5178 126.558 76.816C126.558 76.1141 127.13 75.5425 127.832 75.5425H133.001C133.705 75.5425 134.274 76.1141 134.274 76.816C134.274 77.5178 133.702 78.0894 133.001 78.0894Z" fill="#3A4810"/>
<path d="M172.787 78.0894H167.618C166.914 78.0894 166.345 77.5178 166.345 76.816C166.345 76.1141 166.916 75.5425 167.618 75.5425H172.787C173.491 75.5425 174.06 76.1141 174.06 76.816C174.06 77.5178 173.489 78.0894 172.787 78.0894Z" fill="#3A4810"/>
<path d="M163.406 63.4012C165.114 56.1646 160.633 48.9135 153.396 47.2055C146.159 45.4975 138.908 49.9794 137.2 57.216C135.492 64.4526 139.974 71.7037 147.211 73.4117C154.447 75.1197 161.698 70.6379 163.406 63.4012Z" fill="white"/>
<path d="M150.311 75.0505C142.185 75.0505 135.574 68.4396 135.574 60.314C135.574 52.1883 142.185 45.5774 150.311 45.5774C158.436 45.5774 165.047 52.1883 165.047 60.314C165.047 68.4396 158.436 75.0505 150.311 75.0505ZM150.311 48.1267C143.589 48.1267 138.121 53.5945 138.121 60.314C138.121 67.0334 143.589 72.5012 150.311 72.5012C157.032 72.5012 162.498 67.0334 162.498 60.314C162.498 53.5945 157.03 48.1267 150.311 48.1267Z" fill="#3A4810"/>
<path d="M156.526 61.7776C157.337 58.3407 155.209 54.8971 151.772 54.0859C148.335 53.2748 144.892 55.4033 144.08 58.8401C143.269 62.2769 145.398 65.7206 148.835 66.5317C152.271 67.3429 155.715 65.2144 156.526 61.7776Z" fill="#D0E1AD"/>
<path d="M150.311 67.9812C146.083 67.9812 142.641 64.5419 142.641 60.3138C142.641 56.0858 146.083 52.6465 150.311 52.6465C154.539 52.6465 157.978 56.0858 157.978 60.3138C157.978 64.5419 154.539 67.9812 150.311 67.9812ZM150.311 55.1934C147.486 55.1934 145.19 57.4895 145.19 60.3138C145.19 63.1381 147.489 65.4342 150.311 65.4342C153.132 65.4342 155.431 63.1381 155.431 60.3138C155.431 57.4895 153.135 55.1934 150.311 55.1934Z" fill="#3A4810"/>
<path d="M70.0897 159.935C77.6183 152.406 77.6183 140.2 70.0897 132.672C62.5612 125.143 50.3549 125.143 42.8263 132.672C35.2978 140.2 35.2978 152.406 42.8263 159.935C50.3549 167.464 62.5612 167.463 70.0897 159.935Z" fill="white"/>
<path d="M56.4572 166.854C45.1238 166.854 35.9056 157.633 35.9056 146.302C35.9056 134.971 45.1262 125.75 56.4572 125.75C67.7882 125.75 77.0088 134.971 77.0088 146.302C77.0088 157.633 67.7882 166.854 56.4572 166.854ZM56.4572 128.297C46.5299 128.297 38.4525 136.375 38.4525 146.302C38.4525 156.229 46.5299 164.307 56.4572 164.307C66.3845 164.307 74.4618 156.229 74.4618 146.302C74.4618 136.375 66.3845 128.297 56.4572 128.297Z" fill="#3A4810"/>
<path d="M58.1986 166.702C57.8657 166.702 57.5329 166.572 57.2821 166.313C56.7925 165.807 56.8069 165.001 57.3134 164.512C63.3021 158.723 66.2735 152.544 66.1433 146.15C65.9311 135.757 57.5787 128.201 57.4943 128.126C56.9685 127.658 56.9227 126.853 57.3906 126.327C57.8585 125.801 58.6617 125.753 59.1899 126.223C59.5685 126.561 68.4563 134.607 68.6927 146.097C68.8374 153.229 65.6079 160.043 59.0862 166.345C58.8377 166.584 58.5194 166.702 58.201 166.702H58.1986Z" fill="#3A4810"/>
<path d="M56.4572 166.854C55.7529 166.854 55.1837 166.282 55.1837 165.58V127.024C55.1837 126.32 55.7553 125.75 56.4572 125.75C57.159 125.75 57.7307 126.322 57.7307 127.024V165.58C57.7307 166.284 57.159 166.854 56.4572 166.854Z" fill="#3A4810"/>
<path d="M75.7353 147.576H37.179C36.4748 147.576 35.9056 147.004 35.9056 146.302C35.9056 145.6 36.4772 145.029 37.179 145.029H75.7353C76.4396 145.029 77.0088 145.6 77.0088 146.302C77.0088 147.004 76.4372 147.576 75.7353 147.576Z" fill="#3A4810"/>
<path d="M40.6763 158.687C40.1746 158.687 39.7019 158.39 39.4993 157.898C39.2316 157.247 39.5403 156.504 40.1891 156.234C51.1366 151.71 61.7802 151.707 72.7277 156.234C73.3789 156.502 73.6876 157.247 73.4175 157.898C73.1498 158.547 72.4045 158.858 71.7533 158.588C61.3171 154.276 51.5973 154.276 41.1611 158.588C41.0019 158.653 40.8379 158.685 40.6763 158.685V158.687Z" fill="#3A4810"/>
<path d="M56.4596 140.516C50.9894 140.516 45.5193 139.385 39.972 137.125C39.3208 136.86 39.0072 136.117 39.2726 135.466C39.5379 134.814 40.2759 134.501 40.9319 134.766C51.5225 139.083 61.3895 139.083 71.9776 134.766C72.636 134.501 73.3717 134.814 73.637 135.466C73.9023 136.117 73.5911 136.86 72.9375 137.125C67.3926 139.385 61.9225 140.516 56.4548 140.516H56.4596Z" fill="#3A4810"/>
<path d="M54.5156 166.666C54.2021 166.666 53.8861 166.55 53.6401 166.318C47.4078 160.426 44.241 153.916 44.229 146.97C44.2073 135.265 53.1167 126.653 53.4954 126.291C54.0043 125.806 54.8099 125.825 55.2947 126.334C55.7795 126.843 55.7602 127.649 55.2537 128.136C55.1693 128.218 46.7494 136.387 46.7759 146.985C46.7928 153.198 49.6919 159.078 55.3887 164.466C55.9 164.948 55.9218 165.756 55.4394 166.268C55.1885 166.533 54.8509 166.666 54.5132 166.666H54.5156Z" fill="#3A4810"/>
<path d="M21.4681 145.065C22.8357 145.065 24.0223 144.049 24.2008 142.655C25.2934 134.115 29.6444 126.508 36.4555 121.24C43.2667 115.973 51.7227 113.677 60.2632 114.764C68.9724 115.876 76.7073 120.437 81.8856 127.299L79.4569 126.686C77.9808 126.32 76.4806 127.21 76.1068 128.686C75.7329 130.162 76.6277 131.662 78.1062 132.036L86.8879 134.255C87.1146 134.31 87.3413 134.339 87.5656 134.339C88.7981 134.339 89.922 133.507 90.238 132.255L92.4569 123.474C92.8307 121.997 91.9359 120.497 90.4574 120.123C88.9838 119.747 87.4812 120.644 87.1073 122.123L86.5502 124.332C80.4867 116.098 71.3144 110.618 60.9626 109.297C50.963 108.016 41.0574 110.712 33.0813 116.882C25.1052 123.051 20.0089 131.959 18.7306 141.961C18.5377 143.473 19.6062 144.852 21.116 145.045C21.2342 145.06 21.3524 145.067 21.4681 145.067V145.065Z" fill="#D0E1AD"/>
<path d="M21.4657 146.338C21.2944 146.338 21.1232 146.326 20.952 146.304C19.8835 146.167 18.9332 145.624 18.2748 144.773C17.6163 143.922 17.3293 142.863 17.4644 141.794C18.7837 131.455 24.0536 122.246 32.2998 115.869C40.5485 109.487 50.782 106.701 61.1218 108.028C70.7813 109.26 79.6932 114.132 85.952 121.52C86.2559 120.601 86.8734 119.829 87.7151 119.328C88.6389 118.778 89.7242 118.619 90.7661 118.884C91.8081 119.147 92.686 119.8 93.2407 120.726C93.793 121.65 93.9522 122.736 93.6869 123.78L91.468 132.562C91.0145 134.354 89.4082 135.608 87.5608 135.608C87.2327 135.608 86.9023 135.567 86.5767 135.485L77.7902 133.266C75.634 132.721 74.322 130.524 74.867 128.37C75.3084 126.626 76.8375 125.434 78.55 125.333C73.6756 120.206 67.2383 116.937 60.0967 116.026C51.8843 114.979 43.7683 117.191 37.2297 122.246C30.6887 127.306 26.5089 134.609 25.4598 142.814C25.2041 144.821 23.4868 146.336 21.4633 146.336L21.4657 146.338ZM56.093 110.254C48.0687 110.254 40.3121 112.89 33.8555 117.885C26.1471 123.845 21.2245 132.453 19.9896 142.117C19.939 142.511 20.0451 142.899 20.2887 143.212C20.5323 143.526 20.882 143.726 21.2752 143.777C22.1048 143.885 22.8332 143.294 22.9345 142.494C24.0681 133.613 28.5928 125.709 35.6741 120.232C42.7505 114.762 51.5394 112.369 60.4223 113.501C69.4476 114.653 77.4309 119.282 82.8986 126.529C83.2242 126.961 83.2411 127.55 82.942 128.001C82.6429 128.452 82.093 128.664 81.5696 128.531L79.1409 127.919C78.3474 127.723 77.537 128.203 77.3392 128.994C77.139 129.788 77.6214 130.596 78.4149 130.798L87.1966 133.017C87.9852 133.213 88.8029 132.721 88.9982 131.942L91.2172 123.16C91.316 122.777 91.2557 122.376 91.0531 122.036C90.8505 121.696 90.5274 121.455 90.1415 121.358C89.7531 121.26 89.3576 121.32 89.0175 121.52C88.6774 121.723 88.4339 122.048 88.3374 122.432L87.7802 124.639C87.6596 125.116 87.2737 125.483 86.7889 125.577C86.3066 125.673 85.8097 125.478 85.5179 125.082C79.6474 117.106 70.6342 111.812 60.7962 110.556C59.2236 110.353 57.6511 110.254 56.093 110.254Z" fill="#3A4810"/>
<path d="M91.8708 148.475C90.3633 148.239 88.9572 149.273 88.7233 150.781C87.4112 159.29 82.8624 166.779 75.9162 171.868C68.97 176.957 60.4561 179.038 51.9494 177.721C43.2497 176.38 35.621 171.607 30.6236 164.589L33.0644 165.274C34.5308 165.684 36.0527 164.83 36.4651 163.361C36.8776 161.895 36.0214 160.373 34.5549 159.96L25.8336 157.515C24.3672 157.102 22.8453 157.959 22.4328 159.427L19.9872 168.149C19.5772 169.615 20.431 171.137 21.8974 171.549C22.1458 171.619 22.3967 171.653 22.6427 171.653C23.8486 171.653 24.9557 170.857 25.2981 169.639L25.9059 167.469C31.7523 175.867 40.7872 181.585 51.1076 183.175C53.0588 183.476 55.0125 183.626 56.9492 183.626C64.906 183.626 72.6336 181.113 79.1746 176.32C87.3099 170.36 92.6353 161.591 94.1741 151.625C94.4056 150.12 93.3734 148.711 91.8683 148.48L91.8708 148.475Z" fill="#D0E1AD"/>
<path d="M56.954 184.894C54.945 184.894 52.9142 184.738 50.9171 184.429C41.2841 182.946 32.4952 177.84 26.4293 170.283C25.8505 171.853 24.3382 172.924 22.6475 172.924C22.2809 172.924 21.9143 172.874 21.5574 172.775C19.4156 172.174 18.1614 169.943 18.762 167.804L21.2076 159.082C21.4995 158.045 22.1748 157.182 23.113 156.654C24.0536 156.126 25.1414 155.998 26.1785 156.287L34.8999 158.733C37.0416 159.333 38.2934 161.562 37.6928 163.704C37.401 164.741 36.7256 165.602 35.785 166.13C35.1989 166.458 34.5574 166.634 33.9062 166.649C38.6503 171.918 45.008 175.363 52.1424 176.46C60.3162 177.724 68.4876 175.729 75.1613 170.838C81.8326 165.949 86.2005 158.757 87.4619 150.585C87.6259 149.517 88.1975 148.579 89.0682 147.942C89.9389 147.308 90.9977 147.05 92.0661 147.216C93.1298 147.382 94.0632 147.949 94.6999 148.818C95.3366 149.686 95.5971 150.752 95.4331 151.815C93.8437 162.117 88.3374 171.183 79.9272 177.343C73.1836 182.282 65.2388 184.894 56.9492 184.894H56.954ZM25.9108 166.188C26.3232 166.188 26.7164 166.388 26.9575 166.733C32.6206 174.866 41.4963 180.399 51.3078 181.908C53.177 182.198 55.0776 182.343 56.9565 182.343C64.701 182.343 72.1247 179.902 78.4294 175.283C86.2897 169.526 91.4342 161.051 92.9224 151.42C92.9827 151.029 92.8886 150.636 92.6546 150.318C92.4207 149.997 92.0758 149.79 91.6827 149.727C91.6827 149.727 91.6826 149.727 91.6802 149.727C91.2895 149.664 90.9012 149.761 90.5828 149.992C90.2621 150.226 90.0522 150.573 89.9919 150.967C88.6268 159.813 83.8971 167.596 76.6784 172.886C69.4548 178.18 60.6032 180.338 51.7637 178.971C42.7505 177.582 34.8757 172.734 29.5961 165.317C29.2826 164.876 29.2802 164.287 29.5913 163.846C29.9 163.405 30.4572 163.207 30.9781 163.352L33.419 164.036C33.8 164.143 34.2004 164.094 34.5453 163.901C34.8902 163.706 35.141 163.39 35.2472 163.007C35.4666 162.218 35.006 161.398 34.2173 161.178L25.4959 158.733C25.1125 158.627 24.7145 158.672 24.3672 158.868C24.0223 159.063 23.7715 159.379 23.6653 159.763L21.2197 168.484C21.0002 169.273 21.4609 170.093 22.2496 170.315C23.031 170.534 23.8655 170.054 24.0802 169.285L24.688 167.114C24.8206 166.639 25.2162 166.284 25.7034 166.202C25.7733 166.19 25.8457 166.185 25.9156 166.185L25.9108 166.188Z" fill="#3A4810"/>
</g>
<defs>
<clipPath id="clip0_512_2479">
<rect width="198.225" height="200" fill="white"/>
</clipPath>
</defs>
</svg>
