<svg width="211" height="200" viewBox="0 0 211 200" fill="none" xmlns="http://www.w3.org/2000/svg">
<g clip-path="url(#clip0_512_2661)">
<path d="M193.97 58.7536C193.547 58.7536 193.144 58.5074 192.963 58.0969C191.43 54.6168 189.679 51.184 187.754 47.8979C187.445 47.373 187.622 46.6989 188.147 46.3929C188.672 46.087 189.346 46.2611 189.652 46.786C191.619 50.1442 193.41 53.6516 194.975 57.2113C195.219 57.7686 194.968 58.4178 194.41 58.6616C194.266 58.7238 194.117 58.7561 193.968 58.7561L193.97 58.7536ZM182.289 38.8034C181.955 38.8034 181.624 38.6516 181.408 38.3631C179.122 35.3208 176.634 32.378 174.015 29.6168C173.597 29.1765 173.614 28.48 174.055 28.0596C174.498 27.6417 175.194 27.6591 175.612 28.0994C178.289 30.9203 180.831 33.9278 183.169 37.0372C183.535 37.5223 183.438 38.2138 182.95 38.5795C182.751 38.7288 182.52 38.8009 182.289 38.8009V38.8034ZM166.376 22.0297C166.127 22.0297 165.876 21.9452 165.669 21.7735C162.751 19.3283 159.659 17.0273 156.483 14.9327C155.975 14.5994 155.836 13.9153 156.169 13.4079C156.505 12.9004 157.187 12.7611 157.694 13.0944C160.94 15.2337 164.1 17.587 167.082 20.087C167.547 20.4775 167.609 21.1715 167.219 21.6367C167 21.8954 166.689 22.0297 166.376 22.0297ZM147.07 9.30835C146.903 9.30835 146.734 9.27104 146.575 9.18895C143.177 7.47253 139.642 5.93771 136.07 4.62427C135.5 4.41532 135.206 3.78348 135.415 3.21134C135.624 2.64169 136.256 2.34815 136.828 2.55711C140.48 3.8979 144.092 5.46756 147.567 7.22129C148.109 7.49492 148.328 8.15661 148.055 8.70139C147.861 9.08447 147.473 9.30586 147.072 9.30586L147.07 9.30835Z" fill="#3A4810"/>
<path d="M2.71147 117.848C2.19157 117.848 1.72888 117.477 1.63187 116.947C0.920426 113.132 0.422913 109.224 0.151769 105.336C0.109481 104.729 0.567192 104.204 1.17416 104.161C1.78112 104.114 2.306 104.577 2.34829 105.184C2.61197 108.99 3.09953 112.811 3.79605 116.544C3.90799 117.141 3.51247 117.716 2.91545 117.828C2.84829 117.84 2.77863 117.848 2.71147 117.848ZM1.10202 94.7833C1.0846 94.7833 1.06968 94.7833 1.05227 94.7833C0.445301 94.7559 -0.0248479 94.2435 2.77569e-05 93.634C0.17167 89.7385 0.567192 85.8181 1.18162 81.9848C1.27863 81.3853 1.84331 80.9748 2.44281 81.0718C3.04232 81.1664 3.45276 81.731 3.35575 82.333C2.75625 86.0818 2.36819 89.9176 2.20152 93.731C2.17664 94.3231 1.68908 94.7833 1.10202 94.7833ZM4.75376 71.9499C4.65426 71.9499 4.55475 71.9375 4.45525 71.9077C3.87067 71.7435 3.52988 71.134 3.69406 70.5494C4.74878 66.8032 6.03237 63.0793 7.50998 59.4823C7.74132 58.9201 8.38311 58.6514 8.94779 58.8828C9.50998 59.1141 9.77864 59.7584 9.54729 60.3206C8.09953 63.8405 6.84331 67.4823 5.81346 71.1465C5.67665 71.6315 5.23386 71.9499 4.75376 71.9499ZM13.5423 50.5644C13.3632 50.5644 13.1791 50.5196 13.01 50.4276C12.4776 50.134 12.2861 49.4624 12.5796 48.9325C14.4627 45.532 16.5647 42.2012 18.8284 39.0345C19.1816 38.5395 19.8682 38.4251 20.3632 38.7783C20.8582 39.1315 20.9727 39.8181 20.6194 40.3131C18.4055 43.4126 16.3483 46.6713 14.505 49.9972C14.3035 50.3604 13.9279 50.5644 13.5398 50.5644H13.5423Z" fill="#3A4810"/>
<path d="M101.736 200H101.726C100.654 200 99.5672 199.982 98.4951 199.95C97.8881 199.93 97.4105 199.423 97.4279 198.816C97.4478 198.209 97.9577 197.741 98.5622 197.749C99.612 197.781 100.677 197.798 101.726 197.798H101.736C104.157 197.798 106.605 197.711 109.01 197.537C109.619 197.492 110.144 197.95 110.187 198.555C110.231 199.162 109.774 199.689 109.169 199.731C106.711 199.908 104.211 200 101.739 200H101.736ZM119.562 198.425C119.04 198.425 118.575 198.052 118.48 197.517C118.373 196.918 118.771 196.348 119.371 196.241C122.789 195.629 126.209 194.831 129.537 193.866C130.119 193.696 130.731 194.032 130.901 194.617C131.07 195.201 130.734 195.811 130.149 195.98C126.746 196.968 123.249 197.783 119.756 198.408C119.692 198.42 119.624 198.425 119.562 198.425ZM139.816 192.55C139.383 192.55 138.97 192.291 138.796 191.866C138.567 191.303 138.836 190.659 139.398 190.43C142.607 189.119 145.786 187.619 148.843 185.975C149.378 185.686 150.047 185.888 150.333 186.423C150.619 186.958 150.42 187.624 149.886 187.913C146.759 189.594 143.51 191.127 140.231 192.468C140.095 192.522 139.955 192.55 139.816 192.55ZM158.393 182.562C158.042 182.562 157.697 182.393 157.483 182.082C157.139 181.58 157.269 180.895 157.771 180.552C160.637 178.599 163.433 176.47 166.085 174.226C166.55 173.833 167.244 173.89 167.637 174.356C168.03 174.821 167.973 175.515 167.507 175.908C164.799 178.201 161.94 180.378 159.012 182.373C158.823 182.502 158.607 182.565 158.393 182.565V182.562Z" fill="#3A4810"/>
<path d="M101.726 172.127C142.569 172.127 175.679 139.017 175.679 98.1739C175.679 57.331 142.569 24.2212 101.726 24.2212C60.8835 24.2212 27.7737 57.331 27.7737 98.1739C27.7737 139.017 60.8835 172.127 101.726 172.127Z" fill="#B9DE6B"/>
<path d="M209.306 143.07V96.7363C209.306 93.6269 206.786 91.1045 203.674 91.1045H123.567C120.458 91.1045 117.935 93.6244 117.935 96.7363V143.07" fill="white"/>
<path d="M209.306 144.169C208.699 144.169 208.206 143.677 208.206 143.07V96.7362C208.206 94.2387 206.174 92.2064 203.677 92.2064H123.567C121.07 92.2064 119.037 94.2387 119.037 96.7362V143.07C119.037 143.677 118.545 144.169 117.938 144.169C117.331 144.169 116.838 143.677 116.838 143.07V96.7362C116.838 93.0248 119.858 90.0049 123.57 90.0049H203.679C207.391 90.0049 210.41 93.0248 210.41 96.7362V143.07C210.41 143.677 209.918 144.169 209.311 144.169H209.306Z" fill="#3A4810"/>
<path d="M179.333 161.221H172.361V150.577H154.883V161.221H147.91C145.679 161.221 143.873 163.03 143.873 165.259V166.784C143.873 167.42 144.391 167.938 145.027 167.938H182.219C182.856 167.938 183.373 167.42 183.373 166.784V165.259C183.373 163.027 181.565 161.221 179.336 161.221H179.333Z" fill="white"/>
<path d="M182.216 169.037H145.025C143.781 169.037 142.771 168.025 142.771 166.783V165.259C142.771 162.425 145.077 160.119 147.91 160.119H153.781V150.577C153.781 149.97 154.274 149.478 154.881 149.478H172.358C172.965 149.478 173.458 149.97 173.458 150.577V160.119H179.328C182.162 160.119 184.468 162.425 184.468 165.259V166.783C184.468 168.027 183.455 169.037 182.214 169.037H182.216ZM147.91 162.321C146.291 162.321 144.973 163.639 144.973 165.259V166.783C144.973 166.813 144.997 166.836 145.025 166.836H182.216C182.246 166.836 182.269 166.811 182.269 166.783V165.259C182.269 163.639 180.95 162.321 179.331 162.321H172.358C171.751 162.321 171.259 161.828 171.259 161.221V151.679H155.983V161.221C155.983 161.828 155.49 162.321 154.883 162.321H147.91Z" fill="#3A4810"/>
<path d="M209.306 144.169H117.935C117.328 144.169 116.836 143.677 116.836 143.07C116.836 142.463 117.328 141.97 117.935 141.97H209.306C209.913 141.97 210.405 142.463 210.405 143.07C210.405 143.677 209.913 144.169 209.306 144.169Z" fill="#3A4810"/>
<path d="M129.281 67.3682H198.109C199.251 67.3682 200.177 68.2935 200.177 69.4353V143.07H127.214V69.4353C127.214 68.2935 128.139 67.3682 129.281 67.3682Z" fill="white"/>
<path d="M200.177 144.169H127.214C126.607 144.169 126.114 143.677 126.114 143.07V69.4353C126.114 67.689 127.535 66.2661 129.284 66.2661H198.112C199.858 66.2661 201.281 67.6865 201.281 69.4353V143.07C201.281 143.677 200.789 144.169 200.182 144.169H200.177ZM128.316 141.968H199.077V69.4353C199.077 68.9029 198.644 68.4676 198.109 68.4676H129.281C128.749 68.4676 128.313 68.9004 128.313 69.4353V141.968H128.316Z" fill="#3A4810"/>
<path d="M190.943 119.803H136.45C135.843 119.803 135.351 119.311 135.351 118.704C135.351 118.097 135.843 117.604 136.45 117.604H190.943C191.55 117.604 192.042 118.097 192.042 118.704C192.042 119.311 191.55 119.803 190.943 119.803Z" fill="#3A4810"/>
<path d="M190.943 129.754H136.45C135.843 129.754 135.351 129.261 135.351 128.654C135.351 128.047 135.843 127.555 136.45 127.555H190.943C191.55 127.555 192.042 128.047 192.042 128.654C192.042 129.261 191.55 129.754 190.943 129.754Z" fill="#3A4810"/>
<path d="M117.935 137.033V144.946C117.935 148.055 120.455 150.577 123.567 150.577H203.677C206.786 150.577 209.308 148.058 209.308 144.946V137.033H117.935Z" fill="#D0E1AD"/>
<path d="M203.677 151.679H123.567C119.856 151.679 116.836 148.659 116.836 144.948V137.035C116.836 136.428 117.328 135.936 117.935 135.936H209.308C209.915 135.936 210.408 136.428 210.408 137.035V144.948C210.408 148.659 207.388 151.679 203.677 151.679ZM119.037 138.135V144.948C119.037 147.445 121.07 149.478 123.567 149.478H203.677C206.174 149.478 208.206 147.445 208.206 144.948V138.135H119.035H119.037Z" fill="#3A4810"/>
<path d="M121.973 58.3384C119.338 61.2787 115.866 61.9752 113.331 59.8011C115.866 61.9752 116.716 65.8732 114.231 68.8633C112.087 71.4454 107.624 71.3359 105.955 70.0523L103.346 67.816C104.744 69.015 105.495 70.7862 105.545 72.6095C105.585 74.0921 105.259 75.6842 104.249 76.8782C102.236 79.2588 98.7488 79.923 95.9726 78.0672C94.5572 77.122 91.2388 74.0051 91.2388 74.0051C92.6368 75.2041 95.2289 79.015 92.7189 82.6941C91.2935 84.7812 87.8756 85.9777 85.0249 83.8807L33.5622 41.5598C34.0498 41.3284 34.495 40.9653 34.8508 40.4727L53.9428 13.923C55.0597 12.3707 56.2114 11.2538 56.2114 11.2538C57.0796 11.1046 58.5124 11.9603 60.8831 11.9404C67.6144 11.8832 82.5697 11.9454 87.8657 15.321C89.6443 16.4553 117.565 46.418 117.565 46.418L121.821 49.9553C124.383 52.224 123.687 56.4279 121.973 58.3384Z" fill="white"/>
<path d="M88.2836 86.0774C86.9005 86.0774 85.5423 85.6271 84.3731 84.7664C84.3582 84.754 84.3408 84.7415 84.3259 84.7291L32.8607 42.4107C32.5697 42.1719 32.4204 41.7987 32.4677 41.4256C32.5149 41.0525 32.7488 40.7266 33.0896 40.5649C33.4279 40.4057 33.7189 40.157 33.9577 39.8286L53.0498 13.2813C54.2114 11.6669 55.3955 10.5127 55.4453 10.4654C55.6045 10.3112 55.806 10.2092 56.0249 10.1719C56.6343 10.0674 57.2537 10.2266 57.9677 10.4107C58.7139 10.6022 59.6393 10.841 60.801 10.841C60.8259 10.841 60.8483 10.841 60.8731 10.841C75.4925 10.7241 84.5124 11.8808 88.4577 14.3958C90.2562 15.5425 113.535 40.4803 118.321 45.6172L122.522 49.1097C122.522 49.1097 122.54 49.1246 122.55 49.1321C123.784 50.2241 124.49 51.749 124.592 53.5425C124.709 55.5525 124 57.7241 122.791 59.0749C120.843 61.249 118.517 62.3087 116.321 62.1818C116.53 62.7291 116.674 63.2987 116.754 63.8808C117.03 65.9157 116.435 67.9356 115.08 69.5699C112.938 72.1495 109.015 72.4853 106.56 71.5997C106.607 71.9231 106.637 72.2515 106.647 72.5823C106.684 73.9828 106.445 75.9903 105.09 77.5923C102.617 80.5152 98.5274 81.0997 95.3607 78.9853C95.2015 78.8783 95.0224 78.749 94.8284 78.6022C94.9975 80.1097 94.704 81.7415 93.6269 83.3186C92.6866 84.6968 91.0921 85.6943 89.3607 85.9903C89.0025 86.0525 88.6393 86.0823 88.2811 86.0823L88.2836 86.0774ZM85.7015 83.0102C86.9577 83.9231 88.1841 83.953 88.995 83.8162C90.1493 83.6196 91.2015 82.9679 91.811 82.0749C93.806 79.152 91.8707 76.1843 90.7662 75.0699C90.607 74.9231 90.5075 74.8286 90.4876 74.8087C90.0522 74.3983 90.0224 73.7167 90.4229 73.2714C90.8234 72.8261 91.505 72.7813 91.9577 73.1719C92.0846 73.2813 92.2139 73.4007 92.3433 73.5301C93.4428 74.5475 95.607 76.5002 96.5871 77.1545C98.8035 78.6371 101.674 78.2216 103.41 76.1694C104.316 75.0997 104.475 73.6594 104.448 72.642C104.405 71.0624 103.744 69.6072 102.634 68.6545C102.174 68.2589 102.119 67.5649 102.515 67.1022C102.91 66.642 103.604 66.5873 104.067 66.9828L106.649 69.1992C107.169 69.5848 108.371 69.9381 109.826 69.8162C110.706 69.7415 112.341 69.4281 113.388 68.1644C115.55 65.5624 114.604 62.346 112.617 60.6395C112.363 60.4206 112.231 60.1122 112.234 59.8012C112.234 59.5475 112.321 59.2938 112.5 59.0873C112.896 58.6246 113.59 58.5724 114.052 58.9679C116.075 60.7017 118.863 60.1669 121.157 57.6072C121.983 56.6843 122.483 55.1022 122.4 53.6694C122.353 52.841 122.09 51.6694 121.107 50.7913L116.866 47.2664C116.831 47.2366 116.796 47.2042 116.764 47.1694C105.692 35.2863 88.699 17.244 87.2687 16.244C83.7537 14.0027 74.8781 12.9231 60.8955 13.04C60.8657 13.04 60.8333 13.04 60.8035 13.04C59.3632 13.04 58.2438 12.7515 57.4229 12.54C57.1841 12.4779 56.8906 12.4032 56.6717 12.3634C56.2712 12.7838 55.5473 13.5873 54.8433 14.5649L35.7488 41.1147C35.6244 41.2863 35.4901 41.448 35.3483 41.5973L85.7065 83.0102H85.7015Z" fill="#3A4810"/>
<path d="M113.331 60.9006C113.087 60.9006 112.841 60.8185 112.637 60.6518L102.522 52.3981C102.052 52.015 101.98 51.321 102.366 50.8483C102.749 50.3782 103.443 50.306 103.915 50.6916L114.03 58.9453C114.5 59.3284 114.572 60.0225 114.187 60.4951C113.97 60.7613 113.652 60.9006 113.333 60.9006H113.331Z" fill="#3A4810"/>
<path d="M103.348 68.9152C103.094 68.9152 102.841 68.8282 102.632 68.6515L94.8656 62.0073C94.4029 61.6117 94.3507 60.9177 94.7437 60.455C95.1393 59.9923 95.8333 59.9376 96.296 60.3331L104.062 66.9774C104.525 67.3729 104.577 68.067 104.184 68.5296C103.965 68.7834 103.657 68.9152 103.348 68.9152Z" fill="#3A4810"/>
<path d="M91.2388 75.1043C90.9602 75.1043 90.6816 74.9998 90.4677 74.7884L88.7264 73.0794C88.2935 72.6541 88.2861 71.9575 88.7115 71.5222C89.1368 71.0894 89.8333 71.0819 90.2687 71.5073L92.01 73.2162C92.4428 73.6416 92.4503 74.3381 92.0249 74.7735C91.8085 74.9924 91.5249 75.1043 91.2388 75.1043Z" fill="#3A4810"/>
<path d="M49.3159 1.09961L60.5299 10.0076C62.1716 11.2588 62.5299 13.6817 61.3308 15.423L40.8134 45.1867C39.6144 46.9255 37.3109 47.3235 35.6692 46.0722L28.194 39.7986" fill="#D0E1AD"/>
<path d="M37.801 47.9055C36.796 47.9055 35.8234 47.5771 35 46.9503C34.9851 46.9403 34.9726 46.9279 34.9602 46.9179L27.4851 40.6443C27.0199 40.2538 26.9577 39.5597 27.3507 39.0946C27.7413 38.6294 28.4353 38.5672 28.9005 38.9602L36.3532 45.2165C36.888 45.617 37.5398 45.7786 38.189 45.6767C38.8781 45.5672 39.4875 45.1717 39.9055 44.5672L60.4229 14.7985C61.291 13.5373 61.0398 11.7811 59.8607 10.8831L48.6318 1.96272C48.1567 1.58461 48.0771 0.89307 48.4552 0.415458C48.8333 -0.0596662 49.5273 -0.139268 50.0025 0.238841L61.2164 9.1468C63.2985 10.7339 63.7637 13.8334 62.2388 16.0473L41.7189 45.811C40.9577 46.9179 39.8259 47.6393 38.5373 47.8458C38.291 47.8856 38.0472 47.903 37.8035 47.9055H37.801Z" fill="#3A4810"/>
<path d="M108.02 13.5921C107.005 13.3459 102.597 12.5996 99.7737 12.3434C92.3582 11.6643 86.9727 12.8857 80.903 15.5523L62.8632 24.1369C59.5199 26.1095 58.4105 30.418 60.3831 33.7588V33.7663C62.3582 37.1095 66.6667 38.219 70.01 36.2464L88.7239 27.0001C90.3931 26.1767 92.3881 26.3956 93.8383 27.5648L124.381 52.2215L131.51 48.6394" fill="white"/>
<path d="M124.381 53.3258C124.134 53.3258 123.888 53.2437 123.689 53.082L93.1468 28.4253C92.0348 27.5273 90.4901 27.3581 89.2115 27.99L70.5324 37.2188C66.6766 39.4651 61.7065 38.174 59.4378 34.3283C59.4328 34.3183 59.4279 34.3084 59.4229 34.3009C57.1617 30.4452 58.4527 25.4651 62.3035 23.1915C62.3309 23.174 62.3607 23.1591 62.3906 23.1442L80.4304 14.5596C80.4304 14.5596 80.4503 14.5497 80.4602 14.5447C87.2513 11.5621 92.8781 10.6069 99.8756 11.2487C102.642 11.4999 107.149 12.2487 108.281 12.5248C108.871 12.6691 109.234 13.2636 109.09 13.8556C108.945 14.4477 108.348 14.8084 107.759 14.6641C106.833 14.4402 102.45 13.6939 99.6741 13.4402C92.995 12.8283 87.8582 13.7014 81.3607 16.5546L63.3806 25.1094C60.597 26.781 59.6766 30.4004 61.3284 33.1989C61.3333 33.2064 61.3383 33.2163 61.3433 33.2238C63.0075 36.0223 66.6393 36.9527 69.4503 35.2984C69.4727 35.2835 69.4975 35.2711 69.5224 35.2586L88.2363 26.0124C90.2836 25.0024 92.7537 25.276 94.5299 26.7089L124.52 50.9203L131.017 47.6566C131.562 47.383 132.221 47.6019 132.495 48.1467C132.769 48.689 132.55 49.3507 132.005 49.6243L124.873 53.2064C124.716 53.286 124.547 53.3233 124.378 53.3233L124.381 53.3258Z" fill="#3A4810"/>
<path d="M75.7189 69.0252C78.0374 67.0003 81.5025 67.3063 83.4602 69.7092C85.418 72.1122 85.1244 75.6993 82.806 77.7242L77.3981 82.0102C75.1617 83.2391 72.3284 82.7316 70.6294 80.6446C69.7762 79.5998 69.3508 78.3286 69.3334 77.06C69.311 75.4157 69.9752 73.7714 71.2836 72.6296L75.7189 69.0227V69.0252Z" fill="white"/>
<path d="M74.8508 83.7687C72.9428 83.7687 71.0622 82.923 69.7761 81.3434C68.801 80.1493 68.2537 78.6344 68.2314 77.0772C68.204 75.0399 69.0522 73.117 70.5597 71.8011C70.5697 71.7936 70.5796 71.7837 70.5896 71.7762L75.01 68.1817C76.3483 67.0175 78.0473 66.4603 79.796 66.607C81.5672 66.7563 83.1717 67.612 84.3134 69.015C86.6368 71.8682 86.2861 76.1468 83.5299 78.5548C83.5174 78.5672 83.5025 78.5772 83.4901 78.5896L78.0821 82.8757C78.0348 82.913 77.9826 82.9478 77.9279 82.9777C76.9577 83.51 75.898 83.7687 74.8483 83.7687H74.8508ZM71.995 73.4752C70.9826 74.3633 70.4154 75.6643 70.4353 77.0473C70.4503 78.1095 70.8234 79.1419 71.4851 79.9528C72.7886 81.5523 75.01 82.025 76.7935 81.0896L82.102 76.8807C83.9577 75.2414 84.1866 72.3409 82.6095 70.4055C81.8483 69.4702 80.7836 68.9006 79.6144 68.8011C78.4577 68.7041 77.3333 69.0772 76.4453 69.8533C76.4353 69.8608 76.4254 69.8707 76.4154 69.8782L71.995 73.4727V73.4752Z" fill="#3A4810"/>
<path d="M57.0099 55.6642C58.3209 54.5224 58.985 52.8781 58.9602 51.2339C58.9428 49.9652 58.5149 48.6941 57.6641 47.6493C55.9651 45.5622 53.1268 45.0573 50.893 46.2861L43.301 52.3956C40.9826 54.4204 40.689 58.01 42.6467 60.413C44.6044 62.816 48.0696 63.1219 50.388 61.0971L57.0099 55.6642Z" fill="white"/>
<path d="M46.8632 63.5349C46.6791 63.5349 46.495 63.5275 46.3109 63.5126C44.5398 63.3633 42.9378 62.5076 41.796 61.1071C39.4726 58.2538 39.8259 53.9727 42.5796 51.5648C42.5895 51.5548 42.602 51.5449 42.6144 51.5349L50.2065 45.4255C50.2562 45.3857 50.3109 45.3484 50.3657 45.3185C53.0995 43.816 56.5298 44.5026 58.5224 46.9504C59.495 48.1444 60.0448 49.6593 60.0672 51.2165C60.0945 53.2538 59.2463 55.1767 57.7388 56.4927C57.7313 56.5001 57.7214 56.5076 57.7139 56.5126L51.1045 61.9354C49.9055 62.9777 48.4204 63.5325 46.8657 63.5349H46.8632ZM44.0099 53.2364C42.1517 54.8757 41.9229 57.7762 43.5 59.7165C44.2612 60.6494 45.3234 61.219 46.495 61.3185C47.6567 61.418 48.7761 61.0424 49.6642 60.2663C49.6716 60.2588 49.6816 60.2514 49.689 60.2439L56.296 54.821C57.3085 53.933 57.8781 52.6295 57.8582 51.2464C57.8433 50.1842 57.4701 49.1519 56.8085 48.3409C55.505 46.7414 53.2886 46.2713 51.5 47.2041L44.0075 53.2339L44.0099 53.2364Z" fill="#3A4810"/>
<path d="M68.4303 60.5825L70.8159 58.498C73.1343 56.4731 76.602 56.7816 78.5597 59.182C80.5174 61.585 80.2238 65.1746 77.9054 67.1995L71.2836 72.6298L66.9502 76.4109C64.6318 78.4358 61.1666 78.1298 59.2089 75.7268C58.3557 74.6821 57.9303 73.4109 57.9129 72.1423C57.8905 70.4955 58.5522 68.8537 59.8632 67.7094L68.4278 60.5801L68.4303 60.5825Z" fill="white"/>
<path d="M63.4253 78.8536C63.2413 78.8536 63.0572 78.8461 62.8731 78.8312C61.1044 78.6819 59.5 77.8262 58.3582 76.4257C57.3855 75.2317 56.8383 73.7168 56.8159 72.162C56.7885 70.1247 57.6343 68.2018 59.1418 66.8859C59.1492 66.8809 59.1542 66.8735 59.1617 66.8685L67.7164 59.7466L70.092 57.672C71.4353 56.5003 73.1418 55.9381 74.898 56.0849C76.6666 56.2342 78.2711 57.0899 79.4129 58.4904C81.7363 61.3436 81.3855 65.6247 78.6293 68.0327C78.6194 68.0401 78.6119 68.0476 78.602 68.0551L71.995 73.4755L67.6766 77.2466C66.4751 78.2964 64.9826 78.8561 63.4253 78.8561V78.8536ZM60.5796 68.5501C59.5671 69.4406 58.9975 70.7441 59.0174 72.1297C59.0323 73.1919 59.4054 74.2217 60.0647 75.0327C60.8258 75.968 61.888 76.5352 63.0597 76.6347C64.2164 76.7342 65.3408 76.3585 66.2288 75.5824L70.5622 71.8013C70.5622 71.8013 70.5796 71.7864 70.587 71.7789L77.194 66.3585C79.0547 64.7192 79.286 61.8163 77.7064 59.876C76.9452 58.9431 75.8806 58.3735 74.7114 58.274C73.5572 58.1769 72.4303 58.5501 71.5398 59.3262L69.1542 61.4108C69.1542 61.4108 69.1418 61.4232 69.1343 61.4282L60.5796 68.5501Z" fill="#3A4810"/>
<path d="M57.0099 55.6643L61.3407 51.8832C63.6592 49.8583 67.1268 50.1668 69.082 52.5673C69.9353 53.6121 70.3607 54.8832 70.3781 56.1519C70.4005 57.7962 69.7363 59.4404 68.4278 60.5822L59.8631 67.7116L57.4776 69.7962C55.1592 71.821 51.694 71.5126 49.7363 69.1121C47.7786 66.7091 48.0721 63.1195 50.3905 61.0972L57.0124 55.6643H57.0099Z" fill="white"/>
<path d="M53.9502 72.2366C53.7661 72.2366 53.5821 72.2291 53.398 72.2142C51.6268 72.0649 50.0249 71.2092 48.8806 69.8087C46.5572 66.953 46.9079 62.6744 49.6642 60.2689C49.6716 60.2614 49.6816 60.254 49.689 60.2465L56.296 54.8236L60.6144 51.0525C61.9577 49.8808 63.6642 49.3162 65.4204 49.4654C67.189 49.6147 68.7935 50.4704 69.9328 51.8709C70.9079 53.0649 71.4552 54.5798 71.4776 56.1371C71.505 58.1744 70.6567 60.0973 69.1492 61.4132C69.1443 61.4182 69.1368 61.4231 69.1293 61.4281L60.5746 68.55L58.199 70.6246C56.9975 71.6719 55.5049 72.2341 53.9477 72.2341L53.9502 72.2366ZM51.102 61.9356C49.2413 63.5724 49.0099 66.4754 50.5895 68.4157C51.3507 69.3485 52.4154 69.9182 53.5846 70.0177C54.7388 70.1147 55.8656 69.7415 56.7537 68.9654L59.1393 66.8808C59.1393 66.8808 59.1517 66.8684 59.1592 66.8634L67.7139 59.7415C68.7288 58.8535 69.2985 57.55 69.2786 56.1644C69.2637 55.1022 68.8905 54.0699 68.2288 53.259C67.4676 52.3261 66.4054 51.7565 65.2363 51.657C64.0821 51.5599 62.9552 51.9331 62.0647 52.7092L57.7338 56.4903C57.7338 56.4903 57.7164 56.5052 57.7089 56.5127L51.102 61.9331V61.9356Z" fill="#3A4810"/>
<path d="M50.3906 62.1969C50.0722 62.1969 49.7562 62.0601 49.5398 61.7939C49.1542 61.3237 49.2214 60.6297 49.6916 60.2441L56.3134 54.8113C56.7836 54.4257 57.4776 54.4929 57.8632 54.963C58.2488 55.4332 58.1816 56.1272 57.7115 56.5128L51.0896 61.9456C50.8856 62.1123 50.6368 62.1944 50.393 62.1944L50.3906 62.1969Z" fill="#3A4810"/>
<path d="M143.239 43.8259L132.408 50.4354C130.863 51.3284 128.711 50.4951 127.602 48.5772L108.624 15.7364C107.515 13.816 107.868 11.5374 109.413 10.6444L123.505 2.57471" fill="#D0E1AD"/>
<path d="M131.057 51.8905C129.393 51.8905 127.659 50.8756 126.649 49.1268L107.672 16.286C107.01 15.1418 106.749 13.8433 106.935 12.6343C107.137 11.3358 107.821 10.291 108.863 9.68902L122.958 1.61937C123.485 1.31838 124.157 1.49997 124.46 2.02733C124.764 2.5547 124.58 3.22634 124.052 3.52982L109.963 11.5995C109.512 11.8582 109.209 12.3482 109.112 12.9751C109 13.689 109.167 14.4751 109.577 15.1865L128.555 48.0273C129.343 49.3905 130.848 50.0572 131.848 49.49L142.667 42.888C143.187 42.5721 143.863 42.7338 144.179 43.2537C144.495 43.7736 144.331 44.4502 143.813 44.7661L132.983 51.3756C132.983 51.3756 132.968 51.3855 132.96 51.388C132.371 51.7288 131.719 51.8905 131.057 51.8905Z" fill="#3A4810"/>
<path d="M23.6916 106.485C21.9801 106.485 20.5945 107.997 20.5945 109.863V182.107C20.5945 184.905 22.6741 187.174 25.2388 187.174H78.3408C80.0523 187.174 81.4378 185.662 81.4378 183.793V110.104C81.4378 107.995 79.7239 106.288 77.6169 106.296L23.6916 106.482V106.485Z" fill="white"/>
<path d="M78.3408 188.104H25.2388C22.1642 188.104 19.6642 185.413 19.6642 182.107V109.863C19.6642 107.488 21.4702 105.555 23.6915 105.555L77.6144 105.368H77.6318C78.893 105.368 80.0821 105.858 80.9751 106.749C81.8731 107.644 82.3682 108.836 82.3682 110.104V183.794C82.3682 186.169 80.5622 188.102 78.3408 188.102V188.104ZM77.6294 107.229H77.6194L23.694 107.415H23.6915C22.4975 107.415 21.5249 108.515 21.5249 109.866V182.109C21.5249 184.391 23.1915 186.249 25.2413 186.249H78.3433C79.5398 186.249 80.51 185.149 80.51 183.799V110.104C80.51 109.333 80.209 108.609 79.6642 108.065C79.1219 107.522 78.4005 107.224 77.6318 107.224L77.6294 107.229Z" fill="#3A4810"/>
<path d="M51.4055 140.771H31.2488C30.7363 140.771 30.3184 140.356 30.3184 139.841C30.3184 139.326 30.7338 138.911 31.2488 138.911H51.4055C51.9179 138.911 52.3358 139.326 52.3358 139.841C52.3358 140.356 51.9204 140.771 51.4055 140.771Z" fill="#3A4810"/>
<path d="M51.1567 158.537H31.1343C30.6219 158.537 30.204 158.122 30.204 157.607C30.204 157.092 30.6194 156.677 31.1343 156.677H51.1567C51.6692 156.677 52.0871 157.092 52.0871 157.607C52.0871 158.122 51.6716 158.537 51.1567 158.537Z" fill="#3A4810"/>
<path d="M51.1567 176.304H31.1343C30.6219 176.304 30.204 175.888 30.204 175.373C30.204 174.858 30.6194 174.443 31.1343 174.443H51.1567C51.6692 174.443 52.0871 174.858 52.0871 175.373C52.0871 175.888 51.6716 176.304 51.1567 176.304Z" fill="#3A4810"/>
<path d="M31.1393 176.303C30.6269 176.303 30.209 175.888 30.209 175.373L30.214 119.652C30.214 119.139 30.6294 118.721 31.1443 118.721C31.6567 118.721 32.0747 119.137 32.0747 119.652L32.0697 175.373C32.0697 175.885 31.6543 176.303 31.1393 176.303Z" fill="#3A4810"/>
<path d="M67.6542 146.435L66.2438 145.679C65.6567 145.365 64.9527 145.358 64.3607 145.664L62.9378 146.398C61.4478 147.166 59.7214 145.893 60.0174 144.241L60.301 142.666C60.4179 142.01 60.2065 141.338 59.7338 140.87L58.597 139.746C57.4055 138.564 58.0846 136.53 59.7463 136.301L61.3308 136.082C61.99 135.992 62.5647 135.582 62.8632 134.987L63.5821 133.559C64.3358 132.062 66.4826 132.077 67.2114 133.587L67.908 135.027C68.199 135.627 68.7637 136.045 69.4229 136.147L71.005 136.388C72.6642 136.642 73.3109 138.686 72.0995 139.851L70.9453 140.958C70.4652 141.418 70.2413 142.087 70.3483 142.744L70.607 144.323C70.8781 145.98 69.1318 147.226 67.6542 146.435Z" fill="#D0E1AD"/>
<path d="M68.6119 147.609C68.1343 147.609 67.6567 147.492 67.2139 147.256L65.8035 146.5C65.4851 146.331 65.1045 146.326 64.7836 146.492L63.3632 147.226C62.3557 147.746 61.1642 147.649 60.2537 146.977C59.3433 146.306 58.9005 145.194 59.102 144.079L59.3856 142.505C59.4503 142.149 59.3333 141.786 59.0796 141.532L57.9428 140.405C57.1368 139.609 56.8607 138.445 57.2189 137.373C57.5771 136.301 58.4975 135.535 59.6194 135.38L61.204 135.161C61.5597 135.112 61.8706 134.89 62.0323 134.569L62.7512 133.139C63.2562 132.134 64.2662 131.512 65.3881 131.512C65.3955 131.512 65.403 131.512 65.4105 131.512C66.5423 131.522 67.5522 132.159 68.0473 133.179L68.7438 134.619C68.9005 134.945 69.2065 135.169 69.5622 135.224L71.1443 135.465C72.2637 135.637 73.1716 136.413 73.5124 137.495C73.8532 138.574 73.5597 139.734 72.7413 140.517L71.5871 141.624C71.3259 141.873 71.2065 142.236 71.2637 142.592L71.5224 144.171C71.704 145.288 71.2463 146.393 70.3234 147.052C69.8085 147.42 69.2114 147.607 68.6095 147.607L68.6119 147.609ZM68.092 145.617C68.4677 145.818 68.898 145.791 69.2463 145.542C69.5945 145.293 69.7587 144.895 69.6915 144.475L69.4328 142.895C69.2761 141.935 69.602 140.96 70.3035 140.288L71.4577 139.181C71.7662 138.885 71.8731 138.467 71.7438 138.062C71.6144 137.656 71.2861 137.375 70.8657 137.311L69.2836 137.069C68.3234 136.923 67.495 136.311 67.0721 135.435L66.3756 133.995C66.1891 133.612 65.8259 133.38 65.398 133.378H65.3881C64.9652 133.378 64.5995 133.602 64.4104 133.98L63.6915 135.41C63.2537 136.278 62.4179 136.875 61.4552 137.01L59.8706 137.229C59.4478 137.286 59.1169 137.562 58.9801 137.967C58.8458 138.37 58.9453 138.791 59.2488 139.092L60.3856 140.219C61.0771 140.903 61.3856 141.883 61.2139 142.841L60.9328 144.415C60.8582 144.836 61.0174 145.236 61.3607 145.49C61.704 145.744 62.1343 145.778 62.5124 145.582L63.9328 144.848C64.796 144.403 65.8259 144.41 66.6816 144.868L68.092 145.624V145.617Z" fill="#3A4810"/>
<path d="M67.6542 127.565L66.2438 126.808C65.6567 126.495 64.9527 126.487 64.3607 126.793L62.9378 127.527C61.4478 128.296 59.7214 127.022 60.0174 125.37L60.301 123.796C60.4179 123.139 60.2065 122.467 59.7338 122L58.597 120.875C57.4055 119.694 58.0846 117.659 59.7463 117.43L61.3308 117.211C61.99 117.122 62.5647 116.711 62.8632 116.117L63.5821 114.689C64.3358 113.191 66.4826 113.206 67.2114 114.716L67.908 116.157C68.199 116.756 68.7637 117.174 69.4229 117.276L71.005 117.517C72.6642 117.771 73.3109 119.816 72.0995 120.98L70.9453 122.087C70.4652 122.547 70.2413 123.216 70.3483 123.873L70.607 125.453C70.8781 127.109 69.1318 128.356 67.6542 127.565Z" fill="#D0E1AD"/>
<path d="M68.6119 128.736C68.1343 128.736 67.6567 128.619 67.2139 128.383L65.8035 127.627C65.4851 127.458 65.1045 127.453 64.7836 127.619L63.3632 128.353C62.3557 128.873 61.1642 128.776 60.2537 128.104C59.3433 127.433 58.9005 126.321 59.102 125.206L59.3856 123.632C59.4503 123.276 59.3333 122.913 59.0796 122.659L57.9428 121.532C57.1368 120.736 56.8607 119.572 57.2189 118.5C57.5771 117.428 58.4975 116.662 59.6194 116.507L61.204 116.288C61.5597 116.239 61.8706 116.017 62.0323 115.696L62.7512 114.266C63.2562 113.261 64.2662 112.639 65.3881 112.639C65.3955 112.639 65.403 112.639 65.4105 112.639C66.5423 112.649 67.5522 113.286 68.0473 114.306L68.7438 115.746C68.9005 116.072 69.2065 116.296 69.5622 116.351L71.1443 116.592C72.2637 116.764 73.1716 117.54 73.5124 118.622C73.8532 119.701 73.5597 120.861 72.7413 121.644L71.5871 122.751C71.3259 123 71.2065 123.363 71.2637 123.719L71.5224 125.298C71.704 126.415 71.2463 127.52 70.3234 128.179C69.8085 128.547 69.2114 128.734 68.6095 128.734L68.6119 128.736ZM68.092 126.744C68.4677 126.945 68.898 126.918 69.2463 126.669C69.5945 126.42 69.7587 126.022 69.6915 125.602L69.4328 124.022C69.2761 123.062 69.602 122.087 70.3035 121.415L71.4577 120.308C71.7662 120.012 71.8731 119.594 71.7438 119.189C71.6144 118.783 71.2861 118.502 70.8657 118.438L69.2836 118.196C68.3234 118.05 67.495 117.438 67.0721 116.562L66.3756 115.122C66.1891 114.739 65.8259 114.507 65.398 114.505H65.3881C64.9652 114.505 64.5995 114.729 64.4104 115.107L63.6915 116.537C63.2537 117.405 62.4179 118.002 61.4552 118.137L59.8706 118.356C59.4478 118.413 59.1169 118.689 58.9801 119.094C58.8458 119.497 58.9453 119.918 59.2488 120.219L60.3856 121.346C61.0771 122.03 61.3856 123.01 61.2139 123.968L60.9328 125.542C60.8582 125.963 61.0174 126.363 61.3607 126.617C61.704 126.871 62.1343 126.905 62.5124 126.709L63.9328 125.975C64.796 125.53 65.8234 125.537 66.6816 125.995L68.092 126.751V126.744Z" fill="#3A4810"/>
<path d="M67.6542 163.269L66.2438 162.512C65.6567 162.199 64.9527 162.191 64.3607 162.497L62.9378 163.231C61.4478 164 59.7214 162.726 60.0174 161.074L60.301 159.5C60.4179 158.843 60.2065 158.171 59.7338 157.704L58.597 156.579C57.4055 155.398 58.0846 153.363 59.7463 153.137L61.3308 152.918C61.99 152.828 62.5647 152.418 62.8632 151.823L63.5821 150.395C64.3358 148.895 66.4826 148.913 67.2114 150.423L67.908 151.863C68.199 152.463 68.7637 152.88 69.4229 152.982L71.005 153.224C72.6642 153.477 73.3109 155.522 72.0995 156.686L70.9453 157.793C70.4652 158.254 70.2413 158.923 70.3483 159.579L70.607 161.159C70.8781 162.816 69.1318 164.062 67.6542 163.271V163.269Z" fill="#D0E1AD"/>
<path d="M68.6119 164.44C68.1343 164.44 67.6567 164.323 67.2139 164.087L65.8035 163.331C65.4851 163.162 65.1045 163.157 64.7836 163.323L63.3632 164.057C62.3557 164.577 61.1642 164.48 60.2537 163.808C59.3433 163.137 58.9005 162.025 59.102 160.91L59.3856 159.336C59.4503 158.98 59.3333 158.617 59.0796 158.363L57.9428 157.239C57.1368 156.443 56.8607 155.279 57.2189 154.204C57.5771 153.129 58.4975 152.366 59.6194 152.211L61.204 151.993C61.5597 151.943 61.8706 151.721 62.0323 151.4L62.7512 149.97C63.2562 148.965 64.2662 148.343 65.3881 148.343C65.3955 148.343 65.403 148.343 65.4105 148.343C66.5423 148.353 67.5522 148.99 68.0473 150.01L68.7438 151.45C68.9005 151.776 69.2065 152 69.5622 152.055L71.1443 152.296C72.2637 152.468 73.1716 153.244 73.5124 154.326C73.8532 155.405 73.5597 156.565 72.7413 157.348L71.5871 158.455C71.3259 158.704 71.2065 159.067 71.2637 159.423L71.5224 161.002C71.704 162.119 71.2463 163.224 70.3234 163.883C69.8085 164.251 69.2114 164.438 68.6095 164.438L68.6119 164.44ZM68.092 162.448C68.4677 162.649 68.9005 162.622 69.2463 162.373C69.592 162.124 69.7587 161.726 69.6915 161.306L69.4328 159.726C69.2761 158.766 69.602 157.791 70.3035 157.119L71.4577 156.012C71.7662 155.716 71.8731 155.298 71.7438 154.893C71.6144 154.488 71.2861 154.206 70.8657 154.142L69.2836 153.9C68.3234 153.754 67.495 153.142 67.0721 152.266L66.3756 150.826C66.1891 150.443 65.8259 150.211 65.398 150.209C64.9677 150.204 64.602 150.43 64.4104 150.811L63.6915 152.241C63.2537 153.109 62.4179 153.706 61.4552 153.841L59.8706 154.06C59.4478 154.117 59.1169 154.393 58.9801 154.798C58.8458 155.204 58.9453 155.624 59.2488 155.923L60.3856 157.047C61.0771 157.731 61.3856 158.711 61.2139 159.669L60.9328 161.244C60.8582 161.664 61.0174 162.065 61.3607 162.318C61.704 162.572 62.1343 162.607 62.5124 162.41L63.9328 161.677C64.796 161.231 65.8259 161.239 66.6816 161.696L68.092 162.453V162.448Z" fill="#3A4810"/>
<path d="M67.6542 180.102L66.2438 179.346C65.6567 179.032 64.9527 179.025 64.3607 179.331L62.9378 180.065C61.4478 180.833 59.7214 179.56 60.0174 177.908L60.301 176.333C60.4179 175.677 60.2065 175.005 59.7338 174.537L58.597 173.413C57.4055 172.231 58.0846 170.197 59.7463 169.97L61.3308 169.751C61.99 169.662 62.5647 169.251 62.8632 168.657L63.5821 167.229C64.3358 165.729 66.4826 165.746 67.2114 167.256L67.908 168.697C68.199 169.296 68.7637 169.714 69.4229 169.816L71.005 170.057C72.6642 170.311 73.3109 172.356 72.0995 173.52L70.9453 174.627C70.4652 175.087 70.2413 175.756 70.3483 176.413L70.607 177.993C70.8781 179.649 69.1318 180.896 67.6542 180.105V180.102Z" fill="#D0E1AD"/>
<path d="M68.6119 181.274C68.1343 181.274 67.6567 181.157 67.2139 180.92L65.8035 180.164C65.4851 179.995 65.1045 179.993 64.7836 180.157L63.3632 180.891C62.3557 181.411 61.1642 181.314 60.2537 180.642C59.3433 179.97 58.9005 178.858 59.102 177.744L59.3856 176.169C59.4503 175.814 59.3333 175.45 59.0796 175.197L57.9428 174.072C57.1368 173.276 56.8607 172.112 57.2189 171.037C57.5771 169.963 58.4975 169.199 59.6194 169.045L61.204 168.826C61.5597 168.776 61.8706 168.555 62.0323 168.234L62.7512 166.806C63.2562 165.801 64.2662 165.179 65.3881 165.179H65.4105C66.5423 165.189 67.5522 165.826 68.0473 166.846L68.7438 168.286C68.9005 168.612 69.2065 168.836 69.5622 168.891L71.1443 169.132C72.2637 169.304 73.1716 170.08 73.5124 171.162C73.8532 172.241 73.5597 173.401 72.7413 174.184L71.5871 175.291C71.3259 175.54 71.2065 175.903 71.2637 176.259L71.5224 177.838C71.704 178.955 71.2463 180.06 70.3234 180.719C69.8085 181.087 69.2114 181.274 68.6095 181.274H68.6119ZM68.092 179.281C68.4677 179.483 68.898 179.455 69.2463 179.207C69.592 178.958 69.7587 178.56 69.6915 178.139L69.4328 176.56C69.2761 175.6 69.602 174.624 70.3035 173.953L71.4577 172.846C71.7662 172.55 71.8731 172.132 71.7438 171.726C71.6144 171.321 71.2861 171.04 70.8657 170.975L69.2836 170.734C68.3209 170.587 67.495 169.975 67.0721 169.1L66.3756 167.659C66.1891 167.276 65.8259 167.045 65.398 167.042C65.3955 167.042 65.3905 167.042 65.3881 167.042C64.9652 167.042 64.5995 167.266 64.4104 167.644L63.6915 169.072C63.2537 169.94 62.4179 170.537 61.4552 170.672L59.8706 170.891C59.4478 170.948 59.1169 171.224 58.9801 171.629C58.8458 172.035 58.9453 172.455 59.2488 172.754L60.3856 173.878C61.0771 174.562 61.3856 175.542 61.2139 176.5L60.9328 178.075C60.8582 178.495 61.0174 178.896 61.3607 179.149C61.704 179.403 62.1343 179.438 62.5124 179.241L63.9328 178.508C64.7985 178.062 65.8259 178.07 66.6816 178.527L68.092 179.284V179.281Z" fill="#3A4810"/>
<path d="M139.764 99.8083C139.381 99.8083 139.022 99.6118 138.816 99.2859L136.005 94.8506C135.672 94.3257 135.828 93.6317 136.353 93.3009C136.878 92.97 137.572 93.1243 137.903 93.6491L139.716 96.5098L146.642 84.4178C146.95 83.8805 147.637 83.6939 148.174 84.0024C148.711 84.3108 148.898 84.9974 148.59 85.5347L140.739 99.2412C140.542 99.582 140.184 99.7959 139.789 99.8058C139.781 99.8058 139.771 99.8058 139.764 99.8058V99.8083Z" fill="#3A4810"/>
<path d="M190.291 92.9553H155.182C154.562 92.9553 154.057 92.4528 154.057 91.8309C154.057 91.209 154.56 90.7065 155.182 90.7065H190.291C190.91 90.7065 191.415 91.209 191.415 91.8309C191.415 92.4528 190.913 92.9553 190.291 92.9553Z" fill="#3A4810"/>
<path d="M190.291 101.99H155.182C154.562 101.99 154.057 101.487 154.057 100.866C154.057 100.244 154.56 99.7412 155.182 99.7412H190.291C190.91 99.7412 191.415 100.244 191.415 100.866C191.415 101.487 190.913 101.99 190.291 101.99Z" fill="#3A4810"/>
<path d="M51.1666 120.575H31.1443C30.6343 120.575 30.2214 120.162 30.2214 119.652C30.2214 119.142 30.6343 118.729 31.1443 118.729H51.1666C51.6766 118.729 52.0895 119.142 52.0895 119.652C52.0895 120.162 51.6766 120.575 51.1666 120.575Z" fill="#3A4810"/>
</g>
<defs>
<clipPath id="clip0_512_2661">
<rect width="210.408" height="200" fill="white"/>
</clipPath>
</defs>
</svg>
