<svg width="220" height="200" viewBox="0 0 220 200" fill="none" xmlns="http://www.w3.org/2000/svg">
<g clip-path="url(#clip0_512_2568)">
<path d="M97.6969 200C97.6969 200 97.6777 200 97.6682 200C93.8125 199.897 89.9305 199.572 86.1322 199.034C85.537 198.95 85.1235 198.398 85.2072 197.803C85.2908 197.208 85.843 196.794 86.4382 196.878C90.1552 197.406 93.9511 197.724 97.7255 197.825C98.3255 197.841 98.8012 198.341 98.7845 198.941C98.7677 199.531 98.2849 200 97.6969 200ZM109.142 199.658C108.583 199.658 108.107 199.23 108.059 198.664C108.007 198.064 108.451 197.538 109.049 197.485C112.806 197.158 116.576 196.61 120.257 195.857C120.845 195.735 121.421 196.115 121.541 196.706C121.66 197.294 121.283 197.87 120.692 197.989C116.93 198.759 113.077 199.318 109.238 199.653C109.206 199.656 109.173 199.658 109.142 199.658Z" fill="#3A4810"/>
<path d="M198.023 80.5674C197.516 80.5674 197.062 80.2112 196.957 79.6949C196.276 76.3292 195.408 72.966 194.378 69.6936C194.196 69.1199 194.516 68.5079 195.088 68.3287C195.664 68.147 196.273 68.4673 196.453 69.0386C197.507 72.3827 198.394 75.8225 199.089 79.2622C199.209 79.8503 198.829 80.4263 198.238 80.5459C198.167 80.5602 198.092 80.5674 198.021 80.5674H198.023ZM191.756 60.6771C191.335 60.6771 190.936 60.4333 190.756 60.0221C189.387 56.8788 187.833 53.7713 186.138 50.7833C185.842 50.2599 186.023 49.5953 186.547 49.2989C187.07 49.0025 187.735 49.1842 188.031 49.7077C189.764 52.7602 191.354 55.937 192.752 59.1496C192.991 59.7018 192.74 60.3424 192.188 60.5815C192.047 60.6436 191.899 60.6723 191.753 60.6723L191.756 60.6771ZM181.463 42.5366C181.123 42.5366 180.789 42.3788 180.576 42.0824C178.58 39.2928 176.412 36.575 174.134 34.0053C173.735 33.5559 173.775 32.8675 174.227 32.4683C174.676 32.0691 175.365 32.1098 175.764 32.5615C178.092 35.1886 180.308 37.9638 182.347 40.8155C182.696 41.3031 182.584 41.9844 182.096 42.3334C181.905 42.4696 181.683 42.5366 181.463 42.5366ZM167.622 26.9298C167.359 26.9298 167.097 26.8366 166.889 26.6454C164.355 24.3267 161.673 22.118 158.914 20.079C158.431 19.7205 158.329 19.0392 158.687 18.5564C159.046 18.0735 159.727 17.9707 160.21 18.3293C163.028 20.4137 165.772 22.6726 168.361 25.0414C168.806 25.4478 168.834 26.1362 168.43 26.5784C168.215 26.8127 167.921 26.9322 167.627 26.9322L167.622 26.9298Z" fill="#3A4810"/>
<path d="M1.08999 92.7057C1.06131 92.7057 1.03501 92.7057 1.00633 92.7033C0.406345 92.6579 -0.0406543 92.1344 0.00476274 91.5344C0.298778 87.6907 0.819879 83.8326 1.55133 80.063C1.66607 79.4726 2.23737 79.0878 2.82779 79.2025C3.41821 79.3172 3.80306 79.8885 3.68833 80.479C2.9736 84.1649 2.46446 87.9417 2.17522 91.7018C2.13219 92.273 1.65412 92.7081 1.08999 92.7081V92.7057ZM5.44286 70.2625C5.3329 70.2625 5.22294 70.2458 5.11299 70.2123C4.5393 70.0306 4.22377 69.4187 4.40544 68.845C5.56955 65.1806 6.96074 61.5424 8.54078 58.0334C8.78699 57.486 9.43239 57.2422 9.97978 57.4884C10.5272 57.7346 10.771 58.38 10.5248 58.9274C8.97822 62.3599 7.6181 65.9192 6.48028 69.5048C6.33208 69.9685 5.9042 70.2649 5.44286 70.2649V70.2625ZM14.8275 49.4161C14.6386 49.4161 14.445 49.3659 14.2705 49.2607C13.7542 48.9523 13.5869 48.283 13.8952 47.7667C15.8673 44.4656 18.0521 41.2434 20.3922 38.1861C20.758 37.708 21.4416 37.6172 21.9173 37.9829C22.3954 38.3487 22.4862 39.0323 22.1205 39.508C19.8305 42.4983 17.6911 45.6512 15.7621 48.8806C15.5589 49.2225 15.198 49.4113 14.8275 49.4113V49.4161ZM28.7227 31.2612C28.4502 31.2612 28.1777 31.1608 27.9673 30.9552C27.5347 30.5369 27.5227 29.8485 27.941 29.4158C30.6135 26.6478 33.4724 24.004 36.4412 21.5611C36.9049 21.1786 37.591 21.2456 37.9734 21.7093C38.3559 22.173 38.289 22.8591 37.8252 23.2415C34.9185 25.6343 32.1218 28.2183 29.5067 30.9266C29.294 31.1489 29.0095 31.2588 28.7227 31.2588V31.2612Z" fill="#3A4810"/>
<path d="M100.4 172.475C140.791 172.475 173.534 139.732 173.534 99.3414C173.534 58.951 140.791 26.208 100.4 26.208C60.0099 26.208 27.267 58.951 27.267 99.3414C27.267 139.732 60.0099 172.475 100.4 172.475Z" fill="#B9DE6B"/>
<path d="M120.422 103.941L124.063 107.405L124.161 107.46C123.695 111.43 125.028 115.57 128.131 118.522L137.038 126.996L139.787 129.611L153.144 106.092L139.461 96.1053L134.936 96.0981L131.781 93.0098" fill="white"/>
<path d="M139.782 130.701C139.504 130.701 139.234 130.596 139.031 130.402L127.378 119.311C124.304 116.387 122.7 112.166 123.02 107.918L119.669 104.73C119.234 104.316 119.217 103.625 119.631 103.19C120.044 102.755 120.735 102.738 121.17 103.152L124.713 106.522C125.083 106.742 125.289 107.158 125.239 107.586C124.797 111.351 126.157 115.142 128.877 117.733L139.521 127.864L151.712 106.4L139.1 97.1951L134.929 97.1904C134.645 97.1904 134.372 97.078 134.169 96.8796L131.014 93.7913C130.584 93.3706 130.576 92.6821 130.997 92.2519C131.418 91.8216 132.106 91.8144 132.537 92.2351L135.374 95.0127L139.457 95.0175C139.686 95.0175 139.911 95.0916 140.097 95.2279L153.78 105.215C154.227 105.54 154.358 106.149 154.086 106.632L140.728 130.151C140.563 130.443 140.272 130.641 139.942 130.691C139.889 130.699 139.837 130.703 139.782 130.703V130.701Z" fill="#3A4810"/>
<path d="M125.566 102.901C124.813 104.337 124.345 105.886 124.158 107.459L125.566 102.901Z" fill="white"/>
<path d="M124.161 108.549C124.118 108.549 124.075 108.549 124.032 108.542C123.434 108.473 123.009 107.93 123.078 107.335C123.281 105.597 123.795 103.936 124.603 102.396C124.883 101.863 125.54 101.66 126.073 101.937C126.606 102.217 126.812 102.874 126.532 103.407C125.848 104.71 125.416 106.116 125.241 107.588C125.177 108.143 124.706 108.549 124.161 108.549Z" fill="#3A4810"/>
<path d="M156.519 111.461L168.438 111.504L168.404 120.812L170.888 120.821C173.608 120.831 176.029 122.755 176.438 125.444C176.954 128.834 174.306 131.772 171.014 131.76L168.363 131.75L168.33 140.884L159.031 140.85L159.041 138.254C159.053 134.963 156.115 132.314 152.726 132.83C150.036 133.239 148.112 135.661 148.103 138.381L148.093 140.812L138.948 140.778L139.034 116.935C139.046 113.877 141.531 111.406 144.591 111.418L150.531 111.439" fill="#D0E1AD"/>
<path d="M168.33 141.974H168.325L159.027 141.94C158.737 141.94 158.463 141.823 158.259 141.618C158.056 141.412 157.941 141.135 157.944 140.848L157.953 138.252C157.958 136.976 157.401 135.761 156.426 134.92C155.441 134.069 154.184 133.71 152.891 133.906C150.789 134.227 149.2 136.151 149.193 138.386L149.183 140.817C149.183 141.106 149.066 141.381 148.86 141.584C148.657 141.787 148.38 141.9 148.093 141.9H148.088L138.943 141.866C138.343 141.866 137.855 141.376 137.857 140.774L137.944 116.93C137.951 115.161 138.644 113.5 139.901 112.252C141.151 111.011 142.808 110.328 144.567 110.328H144.591L150.531 110.349C151.131 110.349 151.619 110.839 151.616 111.442C151.616 112.042 151.126 112.527 150.529 112.527H150.524L144.584 112.505H144.567C143.384 112.505 142.273 112.964 141.433 113.796C140.59 114.633 140.124 115.749 140.119 116.937L140.038 139.691L147.005 139.715L147.01 138.374C147.022 135.078 149.408 132.231 152.558 131.75C154.463 131.459 156.39 132.013 157.843 133.266C159.302 134.523 160.133 136.342 160.126 138.254L160.121 139.763L167.242 139.789L167.271 131.745C167.271 131.456 167.388 131.181 167.594 130.978C167.797 130.775 168.074 130.663 168.361 130.663H168.366L171.017 130.672H171.031C172.3 130.672 173.51 130.115 174.349 129.145C175.197 128.16 175.558 126.905 175.36 125.609C175.04 123.508 173.115 121.919 170.88 121.911L168.397 121.902C167.797 121.902 167.309 121.409 167.312 120.809L167.34 112.589L156.512 112.551C155.912 112.551 155.424 112.061 155.427 111.458C155.427 110.858 155.917 110.373 156.514 110.373H156.519L168.438 110.416C168.727 110.416 169.002 110.533 169.205 110.739C169.408 110.944 169.523 111.222 169.52 111.508L169.492 119.729L170.888 119.734C174.184 119.746 177.031 122.131 177.511 125.282C177.801 127.187 177.248 129.114 175.996 130.567C174.743 132.02 172.934 132.85 171.031 132.85H171.007L169.446 132.845L169.418 140.889C169.418 141.489 168.928 141.974 168.33 141.974Z" fill="#3A4810"/>
<path d="M138.919 149.558L138.95 140.721L148.234 140.754L148.244 138.271C148.253 135.551 150.173 133.129 152.855 132.72C156.235 132.204 159.165 134.853 159.153 138.144L159.144 140.795L168.253 140.829L168.22 150.127L165.631 150.118C162.347 150.106 159.706 153.043 160.222 156.433C160.631 159.122 163.045 161.046 165.758 161.056L168.182 161.065L168.148 170.211L154.729 170.163" fill="white"/>
<path d="M168.148 171.294H168.143L154.724 171.246C154.124 171.246 153.636 170.756 153.639 170.154C153.639 169.554 154.129 169.068 154.726 169.068H154.731L167.063 169.111L167.087 162.143L165.751 162.139C162.462 162.127 159.619 159.741 159.141 156.591C158.852 154.683 159.404 152.754 160.659 151.301C161.914 149.847 163.717 149.02 165.631 149.023L167.132 149.028L167.159 141.907L159.139 141.878C158.539 141.878 158.051 141.388 158.054 140.786L158.063 138.135C158.068 136.856 157.511 135.639 156.533 134.798C155.553 133.951 154.303 133.595 153.017 133.791C150.923 134.112 149.338 136.036 149.329 138.271L149.319 140.754C149.319 141.044 149.202 141.319 148.997 141.522C148.793 141.725 148.516 141.837 148.229 141.837H148.225L140.028 141.809L139.999 149.558C139.999 150.158 139.509 150.643 138.912 150.643H138.907C138.307 150.643 137.819 150.153 137.822 149.551L137.853 140.714C137.853 140.425 137.97 140.15 138.175 139.947C138.379 139.743 138.656 139.631 138.943 139.631H138.948L147.144 139.66L147.149 138.264C147.161 134.967 149.542 132.12 152.685 131.64C154.581 131.351 156.502 131.901 157.951 133.151C159.409 134.408 160.243 136.229 160.236 138.144L160.231 139.705L168.251 139.734C168.54 139.734 168.815 139.851 169.018 140.056C169.222 140.262 169.336 140.539 169.334 140.826L169.3 150.125C169.3 150.725 168.81 151.21 168.213 151.21H168.208L165.619 151.2H165.603C164.34 151.2 163.138 151.755 162.301 152.723C161.45 153.708 161.09 154.968 161.288 156.266C161.606 158.367 163.525 159.956 165.753 159.963L168.177 159.973C168.466 159.973 168.741 160.09 168.944 160.296C169.147 160.501 169.262 160.779 169.26 161.065L169.226 170.211C169.226 170.811 168.736 171.296 168.139 171.296L168.148 171.294Z" fill="#3A4810"/>
<path d="M180.162 170.249L168.175 170.206L168.208 160.944L165.724 160.934C163.004 160.925 160.583 159.01 160.174 156.333C159.658 152.96 162.306 150.036 165.598 150.048L168.249 150.058L168.282 140.97L177.581 141.003L177.571 143.587C177.559 146.862 180.497 149.499 183.886 148.985C186.576 148.578 188.5 146.166 188.509 143.46L188.519 141.041L197.665 141.075L197.579 164.799C197.567 167.842 195.081 170.3 192.021 170.29L185.88 170.269" fill="white"/>
<path d="M192.038 171.38H192.014L185.873 171.359C185.273 171.359 184.785 170.869 184.788 170.266C184.788 169.666 185.278 169.181 185.875 169.181H185.88L192.021 169.203H192.038C194.483 169.203 196.477 167.23 196.486 164.797L196.567 142.16L189.599 142.136L189.595 143.465C189.583 146.747 187.197 149.585 184.047 150.06C182.134 150.35 180.205 149.795 178.752 148.54C177.301 147.288 176.474 145.48 176.481 143.583L176.486 142.089L169.365 142.062L169.336 150.06C169.336 150.35 169.219 150.625 169.014 150.828C168.81 151.031 168.533 151.143 168.246 151.143H168.242L165.591 151.134H165.574C164.297 151.134 163.085 151.691 162.246 152.664C161.405 153.641 161.049 154.884 161.245 156.163C161.565 158.252 163.489 159.832 165.724 159.839L168.208 159.849C168.497 159.849 168.772 159.966 168.975 160.172C169.179 160.377 169.293 160.655 169.291 160.941L169.262 169.116L180.162 169.155C180.762 169.155 181.25 169.645 181.248 170.247C181.248 170.847 180.757 171.332 180.16 171.332H180.155L168.165 171.289C167.876 171.289 167.601 171.172 167.398 170.967C167.195 170.761 167.08 170.484 167.082 170.197L167.111 162.022L165.715 162.017C162.419 162.005 159.572 159.629 159.091 156.493C158.802 154.602 159.349 152.687 160.597 151.241C161.85 149.788 163.662 148.956 165.571 148.956H165.595L167.156 148.961L167.185 140.963C167.185 140.363 167.675 139.877 168.273 139.877H168.277L177.576 139.911C177.865 139.911 178.14 140.028 178.343 140.234C178.546 140.439 178.661 140.716 178.659 141.003L178.649 143.587C178.644 144.849 179.197 146.052 180.167 146.888C181.154 147.739 182.414 148.103 183.714 147.904C185.816 147.586 187.405 145.674 187.412 143.453L187.422 141.034C187.422 140.745 187.539 140.47 187.745 140.267C187.948 140.064 188.225 139.952 188.512 139.952H188.517L197.662 139.985C197.951 139.985 198.226 140.102 198.43 140.308C198.633 140.513 198.747 140.791 198.745 141.077L198.659 164.802C198.647 168.43 195.676 171.375 192.035 171.375L192.038 171.38Z" fill="#3A4810"/>
<path d="M197.696 130.724L197.657 141.108L188.409 141.075L188.4 143.568C188.39 146.298 186.478 148.731 183.805 149.14C180.44 149.658 177.519 147 177.531 143.695L177.54 141.034L168.466 141.001L168.5 131.666L171.079 131.676C174.349 131.688 176.981 128.738 176.469 125.334C176.063 122.635 173.656 120.702 170.955 120.692L168.54 120.682L168.574 111.501L181.281 111.546" fill="#D0E1AD"/>
<path d="M182.978 150.292C181.432 150.292 179.928 149.742 178.738 148.717C177.272 147.455 176.433 145.621 176.44 143.69L176.445 142.117L168.459 142.088C168.17 142.088 167.895 141.971 167.692 141.766C167.489 141.56 167.374 141.283 167.376 140.996L167.41 131.662C167.41 131.372 167.527 131.097 167.732 130.894C167.936 130.691 168.213 130.579 168.5 130.579H168.504L171.084 130.588H171.098C172.346 130.588 173.536 130.039 174.368 129.075C175.214 128.095 175.587 126.792 175.393 125.497C175.076 123.386 173.166 121.789 170.952 121.782L168.538 121.773C168.249 121.773 167.974 121.655 167.771 121.45C167.567 121.244 167.453 120.967 167.455 120.68L167.489 111.499C167.489 110.899 167.979 110.414 168.576 110.414H168.581L181.291 110.459C181.891 110.459 182.378 110.949 182.376 111.551C182.376 112.151 181.886 112.637 181.288 112.637H181.283L169.664 112.596L169.64 119.6L170.967 119.605C174.246 119.616 177.079 122.009 177.554 125.172C177.844 127.096 177.287 129.037 176.025 130.497C174.779 131.939 172.989 132.764 171.108 132.764H171.084L169.592 132.759L169.566 139.916L177.552 139.944C177.841 139.944 178.116 140.061 178.319 140.267C178.522 140.472 178.637 140.75 178.635 141.037L178.625 143.697C178.621 144.993 179.182 146.219 180.165 147.068C181.138 147.904 182.376 148.26 183.645 148.064C185.729 147.744 187.307 145.808 187.317 143.563L187.326 141.07C187.326 140.781 187.443 140.506 187.649 140.303C187.852 140.1 188.129 139.987 188.416 139.987H188.421L196.582 140.016L196.615 130.722C196.615 130.122 197.105 129.637 197.703 129.637H197.708C198.308 129.637 198.795 130.127 198.793 130.729L198.755 141.113C198.755 141.402 198.637 141.677 198.432 141.88C198.229 142.084 197.951 142.196 197.665 142.196H197.66L189.499 142.167L189.494 143.573C189.482 146.879 187.111 149.735 183.977 150.218C183.647 150.268 183.315 150.295 182.985 150.295L182.978 150.292Z" fill="#3A4810"/>
<path d="M150.388 110.978L151.884 112.377C153.008 113.428 154.786 113.369 155.838 112.245C156.89 111.122 156.83 109.343 155.706 108.291L154.98 107.675L153.847 106.597" fill="white"/>
<path d="M153.792 114.217C152.84 114.217 151.887 113.87 151.138 113.172L149.642 111.774C149.202 111.363 149.181 110.674 149.589 110.235C150.001 109.795 150.689 109.773 151.129 110.182L152.625 111.58C153.314 112.223 154.396 112.188 155.039 111.499C155.348 111.169 155.51 110.734 155.496 110.275C155.482 109.823 155.295 109.408 154.975 109.099L154.272 108.499C154.258 108.487 154.241 108.473 154.227 108.459L153.094 107.38C152.659 106.967 152.642 106.276 153.055 105.841C153.471 105.406 154.16 105.389 154.595 105.803L155.706 106.859L156.409 107.457C156.421 107.469 156.435 107.478 156.447 107.49C158.013 108.953 158.094 111.418 156.631 112.981C155.867 113.799 154.832 114.21 153.792 114.21V114.217Z" fill="#3A4810"/>
<path d="M129.192 190.145L132.006 187.281L132.79 186.392C136.837 186.947 141.092 185.656 144.159 182.534L153.603 172.992C154.643 171.952 154.64 170.252 153.603 169.212C152.563 168.173 150.864 168.175 149.824 169.212L143.045 175.996L143.069 176.02L156.651 162.189C157.681 161.14 157.664 159.441 156.615 158.41C155.565 157.38 153.866 157.397 152.836 158.446L150.177 161.154L143.723 167.754L154.82 156.429C155.85 155.379 155.833 153.68 154.786 152.649C153.737 151.619 152.037 151.636 151.007 152.683L139.87 164.049L149.293 154.428C150.323 153.379 150.307 151.679 149.26 150.649C148.21 149.619 146.511 149.635 145.48 150.682L141.364 154.877L133.861 162.534L142.803 153.407C143.833 152.358 143.817 150.658 142.77 149.628C141.72 148.598 140.021 148.615 138.991 149.662L128.975 159.856L125.098 163.803C122.071 166.884 120.85 171.089 121.421 175.078L120.58 176.03L117.757 178.905" fill="white"/>
<path d="M129.192 191.235C128.917 191.235 128.643 191.132 128.43 190.924C128.002 190.503 127.995 189.813 128.416 189.385L131.207 186.543L131.972 185.675C132.214 185.402 132.575 185.269 132.936 185.316C136.779 185.842 140.685 184.518 143.379 181.774L152.826 172.229C153.448 171.608 153.447 170.604 152.828 169.987C152.212 169.37 151.205 169.37 150.589 169.987L146.41 174.168L143.838 176.788C143.417 177.215 142.729 177.223 142.299 176.802L142.275 176.78C142.067 176.577 141.95 176.3 141.947 176.008C141.947 175.719 142.06 175.439 142.265 175.234L144.861 172.635L155.864 161.429C156.158 161.131 156.318 160.731 156.314 160.306C156.309 159.88 156.141 159.486 155.843 159.19C155.252 158.611 154.322 158.587 153.706 159.115L144.491 168.519C144.07 168.947 143.382 168.954 142.951 168.536C142.521 168.118 142.514 167.427 142.935 166.997H142.937L149.386 160.397L152.047 157.686C152.097 157.636 152.15 157.586 152.202 157.538L154.031 155.671C154.643 155.047 154.636 154.043 154.012 153.431C153.715 153.14 153.323 152.979 152.902 152.979C152.898 152.979 152.893 152.979 152.888 152.979C152.463 152.984 152.066 153.149 151.772 153.45L140.635 164.817C140.214 165.244 139.526 165.254 139.096 164.833C138.665 164.413 138.658 163.724 139.079 163.294L148.502 153.673C149.114 153.049 149.107 152.045 148.483 151.433C147.859 150.821 146.855 150.83 146.243 151.452L134.623 163.303C134.203 163.734 133.514 163.738 133.084 163.32C132.654 162.899 132.646 162.211 133.067 161.781L142.01 152.654C142.622 152.03 142.614 151.026 141.99 150.415C141.367 149.803 140.363 149.812 139.751 150.434L125.858 164.577C123.164 167.319 121.933 171.096 122.483 174.935C122.528 175.25 122.432 175.571 122.22 175.81L121.378 176.761C121.366 176.776 121.352 176.79 121.34 176.802L118.517 179.677C118.096 180.105 117.405 180.113 116.978 179.692C116.55 179.271 116.543 178.58 116.963 178.152L119.767 175.298L120.264 174.737C119.793 170.396 121.252 166.162 124.306 163.052L138.199 148.909C139.653 147.429 142.038 147.407 143.518 148.861C143.922 149.258 144.216 149.724 144.402 150.221L144.689 149.929C146.143 148.45 148.528 148.428 150.008 149.881C150.443 150.309 150.751 150.816 150.933 151.356C151.509 151.003 152.171 150.811 152.867 150.804C152.879 150.804 152.891 150.804 152.902 150.804C153.897 150.804 154.829 151.184 155.537 151.88C156.88 153.199 157.021 155.286 155.95 156.766C156.476 156.945 156.959 157.239 157.365 157.641C158.08 158.343 158.479 159.283 158.489 160.289C158.498 161.295 158.116 162.244 157.416 162.959L152.907 167.549C153.438 167.728 153.938 168.029 154.361 168.45C155.826 169.915 155.828 172.301 154.361 173.768L144.921 183.306C141.888 186.394 137.552 187.958 133.218 187.544L132.809 188.008C132.797 188.022 132.783 188.037 132.768 188.051L129.955 190.915C129.742 191.132 129.46 191.24 129.178 191.24L129.192 191.235Z" fill="#3A4810"/>
<path d="M142.516 176.582C143.319 175.762 144.123 174.942 144.926 174.125L142.516 176.582Z" fill="white"/>
<path d="M142.516 177.67C142.241 177.67 141.967 177.567 141.754 177.359C141.324 176.938 141.316 176.25 141.737 175.82L144.147 173.362C144.567 172.932 145.256 172.925 145.686 173.345C146.116 173.766 146.123 174.455 145.703 174.885L143.293 177.342C143.08 177.56 142.798 177.67 142.516 177.67Z" fill="#3A4810"/>
<path d="M206.569 90.8677L203.755 93.7313L202.971 94.6206C198.924 94.066 194.669 95.3568 191.603 98.4786L182.158 108.021C181.118 109.061 181.121 110.76 182.158 111.8C183.198 112.84 184.898 112.838 185.937 111.8L192.716 105.016L192.693 104.992L179.111 118.823C178.08 119.872 178.097 121.572 179.146 122.602C180.196 123.632 181.895 123.616 182.926 122.566L185.584 119.858L192.038 113.258L180.942 124.584C179.911 125.633 179.928 127.333 180.975 128.363C182.024 129.393 183.724 129.377 184.754 128.33L195.891 116.963L186.468 126.585C185.438 127.634 185.455 129.334 186.502 130.364C187.551 131.394 189.25 131.377 190.281 130.33L194.397 126.135L201.9 118.479L192.958 127.605C191.928 128.655 191.944 130.354 192.991 131.384C194.041 132.415 195.74 132.398 196.771 131.351L206.784 121.156L210.661 117.21C213.687 114.128 214.909 109.924 214.337 105.934L215.179 104.983L218.002 102.107" fill="white"/>
<path d="M194.865 133.232C193.914 133.232 192.963 132.874 192.231 132.157C191.827 131.76 191.533 131.294 191.347 130.797L191.06 131.088C190.357 131.803 189.418 132.202 188.411 132.212C188.4 132.212 188.388 132.212 188.376 132.212C187.381 132.212 186.449 131.832 185.741 131.136C185.306 130.708 184.998 130.201 184.816 129.661C184.24 130.015 183.578 130.206 182.883 130.213C181.869 130.223 180.927 129.84 180.212 129.138C179.498 128.435 179.099 127.495 179.091 126.489C179.084 125.674 179.333 124.897 179.799 124.252C179.273 124.072 178.79 123.778 178.384 123.377C177.669 122.674 177.27 121.735 177.26 120.728C177.251 119.722 177.633 118.773 178.334 118.058L182.842 113.469C182.299 113.287 181.804 112.981 181.389 112.568C180.681 111.86 180.289 110.916 180.289 109.909C180.289 108.903 180.679 107.959 181.386 107.251L190.826 97.7138C193.859 94.6254 198.195 93.0597 202.529 93.4756L202.938 93.0119C202.95 92.9976 202.964 92.9832 202.978 92.9689L205.792 90.1052C206.213 89.6773 206.903 89.6702 207.331 90.0909C207.759 90.5116 207.766 91.2024 207.346 91.6303L204.554 94.4724L203.789 95.3401C203.547 95.6126 203.189 95.7489 202.825 95.6987C198.982 95.1704 195.076 96.4947 192.382 99.2412L182.935 108.786C182.314 109.407 182.314 110.411 182.933 111.028C183.229 111.325 183.628 111.489 184.051 111.489C184.477 111.489 184.874 111.325 185.17 111.028L189.325 106.871L191.921 104.228C192.341 103.8 193.03 103.792 193.46 104.213L193.484 104.237C193.692 104.44 193.809 104.718 193.811 105.009C193.811 105.298 193.699 105.578 193.493 105.784L190.874 108.404L179.895 119.586C179.601 119.884 179.44 120.284 179.445 120.709C179.45 121.135 179.617 121.529 179.916 121.825C180.215 122.119 180.616 122.277 181.04 122.275C181.417 122.272 181.771 122.139 182.053 121.9L191.266 112.496C191.686 112.066 192.375 112.058 192.805 112.479C193.235 112.9 193.242 113.588 192.822 114.018H192.819L186.37 120.618L183.71 123.329C183.659 123.379 183.607 123.429 183.554 123.477L181.726 125.344C181.429 125.645 181.269 126.044 181.274 126.47C181.279 126.895 181.444 127.292 181.745 127.586C182.044 127.88 182.436 128.04 182.868 128.036C183.294 128.031 183.69 127.866 183.984 127.565L195.121 116.199C195.542 115.771 196.233 115.761 196.661 116.182C197.091 116.602 197.098 117.291 196.677 117.721L187.255 127.342C186.643 127.966 186.65 128.97 187.274 129.582C187.572 129.876 187.974 130.039 188.397 130.034C188.823 130.029 189.217 129.862 189.513 129.563L201.133 117.712C201.554 117.281 202.242 117.277 202.672 117.695C203.103 118.116 203.11 118.804 202.689 119.234L193.747 128.361C193.135 128.985 193.142 129.989 193.766 130.601C194.39 131.212 195.394 131.203 196.006 130.581L209.898 116.438C212.592 113.696 213.823 109.919 213.274 106.08C213.228 105.765 213.324 105.444 213.537 105.205L214.378 104.254C214.39 104.239 214.404 104.225 214.416 104.213L217.239 101.338C217.66 100.91 218.351 100.903 218.779 101.323C219.207 101.744 219.214 102.435 218.793 102.863L215.989 105.717L215.492 106.278C215.963 110.619 214.507 114.853 211.45 117.963L197.557 132.106C196.821 132.855 195.848 133.23 194.875 133.23L194.865 133.232Z" fill="#3A4810"/>
<path d="M193.242 104.433C192.439 105.253 191.636 106.073 190.835 106.89L193.242 104.433Z" fill="white"/>
<path d="M190.835 107.978C190.56 107.978 190.285 107.875 190.073 107.668C189.642 107.247 189.635 106.558 190.056 106.128L192.466 103.671C192.886 103.241 193.575 103.233 194.005 103.654C194.435 104.075 194.442 104.763 194.022 105.193L191.612 107.651C191.399 107.868 191.117 107.978 190.835 107.978Z" fill="#3A4810"/>
<path d="M150.684 111.303L152.087 112.616C153.142 113.6 154.81 113.545 155.797 112.491C156.782 111.437 156.727 109.769 155.673 108.781L154.992 108.201L153.928 107.189" fill="white"/>
<path d="M153.88 114.411C152.972 114.411 152.061 114.081 151.346 113.411L149.943 112.099C149.503 111.688 149.482 111 149.891 110.56C150.299 110.12 150.99 110.098 151.43 110.507L152.833 111.819C153.132 112.099 153.526 112.245 153.933 112.231C154.344 112.216 154.724 112.044 155.004 111.748C155.577 111.133 155.551 110.173 154.946 109.592L154.287 109.03C154.272 109.018 154.255 109.004 154.241 108.989L153.177 107.978C152.742 107.565 152.726 106.874 153.139 106.439C153.553 106.004 154.243 105.987 154.679 106.401L155.718 107.39L156.376 107.949C156.388 107.961 156.402 107.971 156.414 107.983C157.908 109.381 157.987 111.736 156.591 113.232C155.862 114.011 154.87 114.408 153.878 114.408L153.88 114.411Z" fill="#3A4810"/>
<path d="M150.818 111.086L152.221 112.398C153.275 113.383 154.944 113.328 155.931 112.274C156.916 111.22 156.861 109.551 155.807 108.564L155.126 107.983L146.219 99.5093C143.107 96.5476 138.885 95.4218 134.932 96.1006L134.131 95.252L131.274 92.5342" fill="white"/>
<path d="M154.012 114.191C153.065 114.191 152.171 113.839 151.48 113.194L150.077 111.882C149.637 111.471 149.616 110.782 150.024 110.342C150.433 109.902 151.124 109.881 151.564 110.29L152.967 111.602C153.266 111.879 153.653 112.03 154.067 112.013C154.478 111.999 154.858 111.829 155.137 111.53C155.711 110.916 155.685 109.955 155.08 109.374L154.42 108.812C154.406 108.801 154.389 108.786 154.375 108.772L145.468 100.298C142.736 97.6973 138.864 96.5308 135.116 97.1738C134.757 97.2359 134.391 97.114 134.14 96.8487L133.361 96.0216L130.526 93.3229C130.091 92.9093 130.074 92.2185 130.488 91.7835C130.902 91.3484 131.59 91.3317 132.027 91.7452L134.884 94.4631C134.898 94.4774 134.913 94.4894 134.924 94.5037L135.336 94.9388C139.574 94.3914 143.886 95.7826 146.972 98.7203L155.857 107.175L156.514 107.734C156.526 107.746 156.541 107.756 156.553 107.768C158.047 109.166 158.125 111.521 156.729 113.017C156.053 113.739 155.135 114.155 154.141 114.188C154.098 114.188 154.055 114.188 154.012 114.188V114.191Z" fill="#3A4810"/>
<path d="M134.532 106.503C137.415 109.247 141.639 107.892 144.383 105.009L145.342 105.965L150.818 111.086" fill="white"/>
<path d="M150.818 112.173C150.553 112.173 150.285 112.075 150.075 111.879L144.598 106.759C144.598 106.759 144.582 106.742 144.572 106.735L144.366 106.53C142.961 107.763 141.343 108.605 139.724 108.932C137.48 109.386 135.369 108.803 133.78 107.29C133.344 106.876 133.328 106.185 133.741 105.75C134.157 105.315 134.846 105.299 135.281 105.712C136.371 106.75 137.719 107.115 139.292 106.797C140.774 106.496 142.339 105.571 143.592 104.256C143.795 104.044 144.072 103.922 144.366 103.917C144.651 103.919 144.943 104.027 145.151 104.235L146.097 105.179L151.559 110.287C151.999 110.698 152.02 111.387 151.612 111.827C151.397 112.056 151.107 112.171 150.816 112.171L150.818 112.173Z" fill="#3A4810"/>
<path d="M134.532 106.503C134.532 106.503 138.484 110.911 144.383 105.009L134.532 106.503Z" fill="white"/>
<path d="M138.359 109.173C138.3 109.173 138.24 109.173 138.178 109.171C135.426 109.097 133.791 107.306 133.722 107.23C133.321 106.783 133.359 106.094 133.806 105.693C134.25 105.294 134.936 105.33 135.338 105.772C135.395 105.834 136.473 106.962 138.273 106.996C139.956 107.027 141.754 106.099 143.614 104.24C144.039 103.814 144.727 103.814 145.153 104.24C145.578 104.665 145.578 105.353 145.153 105.779C142.901 108.033 140.616 109.176 138.359 109.176V109.173Z" fill="#3A4810"/>
<path d="M146.308 56.5181L154.827 70.8866C155.597 71.6563 155.059 72.9662 153.969 72.9662H48.8664C47.7883 72.9662 47.2386 71.6563 48.0083 70.8866L56.5395 56.5181H146.308Z" fill="#D0E1AD"/>
<path d="M153.969 74.281H48.864C47.8361 74.281 46.9206 73.6667 46.5262 72.7177C46.1581 71.8285 46.323 70.8198 46.9445 70.0979L55.404 55.8465C55.7769 55.2202 56.5849 55.017 57.2088 55.3875C57.8327 55.758 58.0406 56.566 57.6701 57.1899L49.1389 71.5584C49.1198 71.5895 49.1006 71.6205 49.0791 71.6492H153.756C153.73 71.6158 153.708 71.5847 153.691 71.5584L145.172 57.1899C144.802 56.5636 145.007 55.758 145.633 55.3875C146.26 55.017 147.068 55.2226 147.436 55.8489L155.886 70.1003C156.507 70.8245 156.675 71.8333 156.306 72.7225C155.914 73.6715 154.994 74.2834 153.966 74.2834L153.969 74.281Z" fill="#3A4810"/>
<path d="M146.307 56.5179H56.5371V6.7265C56.5371 3.74571 58.9561 1.3147 61.9369 1.3147H140.896C143.886 1.3147 146.307 3.74571 146.307 6.7265V56.5179Z" fill="white"/>
<path d="M146.308 6.7265V56.5179H56.5371V6.7265C56.5371 3.74571 58.9562 1.3147 61.937 1.3147H140.896C143.886 1.3147 146.308 3.74571 146.308 6.7265Z" fill="#D0E1AD"/>
<path d="M146.307 57.835H56.5371C55.8104 57.835 55.22 57.2446 55.22 56.5179V6.72651C55.22 3.01665 58.2319 0 61.9369 0H140.896C144.606 0 147.622 3.01665 147.622 6.72651V56.5179C147.622 57.2446 147.032 57.835 146.305 57.835H146.307ZM57.8542 55.2032H144.99V6.72651C144.99 4.47 143.155 2.6318 140.896 2.6318H61.9369C59.6852 2.6318 57.8542 4.4676 57.8542 6.72651V55.2032Z" fill="#3A4810"/>
<path d="M89.7035 71.9744L91.0899 67.8152C91.1664 67.6932 91.3003 67.6191 91.4461 67.6191H111.513C111.657 67.6191 111.793 67.6932 111.869 67.8152L113.256 71.9744H89.7059H89.7035Z" fill="white"/>
<path d="M113.256 73.2913C112.704 73.2913 112.192 72.9423 112.008 72.3925L110.856 68.936H92.1082L90.956 72.3925C90.7266 73.0809 89.9808 73.4562 89.2923 73.2243C88.6039 72.9948 88.231 72.2491 88.4605 71.5606L89.8469 67.4014C89.8804 67.3034 89.9234 67.2078 89.9784 67.1193C90.2963 66.6102 90.8461 66.3042 91.4485 66.3042H111.516C112.118 66.3042 112.668 66.6102 112.986 67.1193C113.041 67.2078 113.086 67.301 113.117 67.4014L114.504 71.5606C114.733 72.2491 114.36 72.9948 113.672 73.2243C113.533 73.2697 113.392 73.2913 113.256 73.2913Z" fill="#3A4810"/>
<path d="M139.626 6.9585H63.2086C62.5116 6.9585 61.9465 7.52356 61.9465 8.22061V50.4585C61.9465 51.1555 62.5116 51.7206 63.2086 51.7206H139.626C140.323 51.7206 140.889 51.1555 140.889 50.4585V8.22061C140.889 7.52356 140.323 6.9585 139.626 6.9585Z" fill="white"/>
<path d="M139.626 53.0353H63.2086C61.7863 53.0353 60.6294 51.8783 60.6294 50.456V8.22057C60.6294 6.7983 61.7863 5.64136 63.2086 5.64136H139.626C141.049 5.64136 142.206 6.7983 142.206 8.22057V50.4584C142.206 51.8807 141.049 53.0376 139.626 53.0376V53.0353ZM139.571 8.21818L63.2086 8.27316L63.2636 50.456L139.574 50.4011V8.22057L139.571 8.21818Z" fill="#3A4810"/>
<path d="M143.544 61.662H59.4175C58.6908 61.662 58.1004 61.0716 58.1004 60.3449C58.1004 59.6183 58.6908 59.0278 59.4175 59.0278H143.544C144.271 59.0278 144.861 59.6183 144.861 60.3449C144.861 61.0716 144.271 61.662 143.544 61.662Z" fill="#3A4810"/>
<path d="M144.993 66.0605H57.9665C57.2399 66.0605 56.6494 65.47 56.6494 64.7434C56.6494 64.0167 57.2399 63.4263 57.9665 63.4263H144.993C145.719 63.4263 146.31 64.0167 146.31 64.7434C146.31 65.47 145.719 66.0605 144.993 66.0605Z" fill="#3A4810"/>
<path d="M86.4669 33.7593L94.6611 40.2826C96.0834 41.4132 98.1534 41.1814 99.2889 39.7639L116.339 18.4705L86.4669 33.7593Z" fill="white"/>
<path d="M96.7096 42.3121C95.7033 42.3121 94.6874 41.9846 93.8412 41.3105L85.647 34.7872C85.0781 34.3354 84.9849 33.5059 85.4367 32.937C85.8884 32.3681 86.7179 32.2749 87.2868 32.7267L95.481 39.25C96.3344 39.9289 97.5821 39.7902 98.261 38.9393L115.312 17.6458C115.766 17.0769 116.595 16.9861 117.162 17.4403C117.728 17.8944 117.821 18.7215 117.367 19.2904L100.317 40.5838C99.4084 41.7193 98.065 42.3121 96.7096 42.3121Z" fill="#3A4810"/>
<path d="M96.7073 44.5039C95.2205 44.5039 93.7265 44.021 92.4763 43.029L84.2821 36.5057C82.7666 35.2986 82.5156 33.0899 83.7228 31.5744C84.9299 30.0589 87.1386 29.8079 88.6541 31.015L96.6834 37.4069L113.602 16.2784C114.814 14.7653 117.023 14.5191 118.536 15.7334C120.049 16.9453 120.293 19.154 119.084 20.6671L102.033 41.9605C100.692 43.6362 98.7104 44.5087 96.712 44.5087L96.7073 44.5039Z" fill="white"/>
<path d="M96.7073 45.821C94.8786 45.821 93.0859 45.1948 91.6588 44.0593L83.4622 37.5336C81.3802 35.8771 81.0336 32.8341 82.6901 30.7521C84.3467 28.6701 87.3896 28.3259 89.4716 29.9824L96.473 35.5568L112.57 15.4538C113.375 14.4474 114.525 13.814 115.806 13.6729C117.09 13.5319 118.347 13.8976 119.354 14.7032C121.431 16.3669 121.768 19.4074 120.104 21.4847L103.054 42.7781C101.507 44.7119 99.1932 45.821 96.7049 45.821H96.7073ZM86.4693 31.5673C85.8239 31.5673 85.1833 31.8493 84.7506 32.3943C83.9977 33.3409 84.1554 34.7225 85.102 35.4755L93.2962 41.9988C94.2739 42.7757 95.4547 43.1868 96.7073 43.1868C98.3901 43.1868 99.9558 42.4387 101 41.1335L118.051 19.8401C118.806 18.8959 118.653 17.5119 117.709 16.7565C117.253 16.3908 116.672 16.2211 116.098 16.288C115.515 16.3525 114.994 16.6394 114.628 17.0983L97.7112 38.2268C97.257 38.7933 96.43 38.8866 95.8635 38.4348L87.8342 32.0429C87.4326 31.7226 86.9498 31.5673 86.4693 31.5673Z" fill="#3A4810"/>
<path d="M5.78229 113.789V173.603C5.78229 174.968 6.88903 176.077 8.25632 176.077H32.4732L71.9597 161.214V113.789H5.78229Z" fill="white"/>
<path d="M32.4732 177.186H8.25393C6.27949 177.186 4.67316 175.58 4.67316 173.606V113.791C4.67316 113.179 5.17035 112.682 5.78229 112.682C6.39422 112.682 6.89142 113.179 6.89142 113.791V173.606C6.89142 174.359 7.50336 174.97 8.25632 174.97H32.2724L70.853 160.449V113.791C70.853 113.179 71.3502 112.682 71.9621 112.682C72.5741 112.682 73.0713 113.179 73.0713 113.791V161.216C73.0713 161.678 72.7844 162.091 72.3541 162.254L32.8676 177.117C32.7433 177.165 32.6118 177.189 32.478 177.189L32.4732 177.186Z" fill="#3A4810"/>
<path d="M71.9597 113.789V106.484C71.9597 105.119 70.853 104.01 69.4857 104.01H8.25394C6.88904 104.01 5.77991 105.117 5.77991 106.484V113.789H71.9597Z" fill="#D0E1AD"/>
<path d="M71.9597 114.898C71.3478 114.898 70.8506 114.401 70.8506 113.789V106.484C70.8506 105.731 70.2387 105.119 69.4857 105.119H8.25394C7.50098 105.119 6.88904 105.731 6.88904 106.484V113.789C6.88904 114.401 6.39184 114.898 5.77991 114.898C5.16797 114.898 4.67078 114.401 4.67078 113.789V106.484C4.67078 104.51 6.27711 102.903 8.25155 102.903H69.4857C71.4601 102.903 73.0665 104.51 73.0665 106.484V113.789C73.0665 114.401 72.5693 114.898 71.9573 114.898H71.9597Z" fill="#3A4810"/>
<path d="M62.9528 195.779V190.888C68.563 187.324 71.9597 181.138 71.9597 174.49V159.318C71.9597 157.134 70.1884 155.362 68.0037 155.362C65.8189 155.362 64.0476 157.134 64.0476 159.318V157.803C64.0476 155.618 62.2763 153.847 60.0915 153.847C57.9067 153.847 56.1355 155.618 56.1355 157.803V170.262V156.12C56.1355 153.935 54.3642 152.164 52.1794 152.164C49.9946 152.164 48.2233 153.935 48.2233 156.12V169.841V142.397C48.2233 140.212 46.4521 138.441 44.2673 138.441C42.0825 138.441 40.3112 140.212 40.3112 142.397V169.841L34.2492 159.921C33.1449 158.111 30.8262 157.464 28.9426 158.439C27.2741 159.302 26.5355 161.293 27.2359 163.038L35.7265 184.159C36.8691 187.004 39.0491 189.308 41.8267 190.606V195.779H62.9576H62.9528Z" fill="white"/>
<path d="M41.8219 196.888C41.21 196.888 40.7128 196.391 40.7128 195.779V191.289C37.9782 189.829 35.8556 187.467 34.6915 184.573L26.2009 163.451C25.283 161.166 26.2391 158.587 28.4263 157.456C30.8143 156.22 33.7831 157.047 35.1863 159.345L39.1949 165.904V142.399C39.1949 139.607 41.4658 137.334 44.2601 137.334C47.0545 137.334 49.3253 139.607 49.3253 142.399V151.934C50.138 151.38 51.1181 151.055 52.1722 151.055C54.2017 151.055 55.9562 152.255 56.7642 153.983C57.6534 153.208 58.8151 152.74 60.0868 152.74C62.0708 152.74 63.7895 153.885 64.6213 155.549C65.5177 154.743 66.7033 154.253 67.9989 154.253C70.7909 154.253 73.0641 156.524 73.0641 159.318V174.49C73.0641 181.348 69.708 187.656 64.0572 191.485V195.779C64.0572 196.391 63.56 196.888 62.948 196.888C62.3361 196.888 61.8389 196.391 61.8389 195.779V190.888C61.8389 190.508 62.0325 190.156 62.3528 189.953C67.6714 186.573 70.8458 180.793 70.8458 174.492V159.321C70.8458 157.75 69.567 156.471 67.9965 156.471C66.426 156.471 65.1472 157.75 65.1472 159.321V170.517C65.1472 171.129 64.65 171.626 64.038 171.626C63.4261 171.626 62.9289 171.129 62.9289 170.517V157.805C62.9289 156.235 61.6501 154.958 60.0796 154.958C58.5091 154.958 57.2303 156.235 57.2303 157.805V170.264C57.2303 170.876 56.7331 171.373 56.1211 171.373C55.5092 171.373 55.012 170.876 55.012 170.264V156.122C55.012 154.552 53.7332 153.273 52.1627 153.273C50.5922 153.273 49.3397 154.526 49.3158 156.074V169.843C49.3158 170.455 48.8186 170.952 48.2066 170.952C47.5947 170.952 47.0975 170.455 47.0975 169.843V156.122C47.0975 156.101 47.0975 156.082 47.0975 156.06V142.399C47.0975 140.829 45.8186 139.55 44.2482 139.55C42.6777 139.55 41.3988 140.829 41.3988 142.399V169.843C41.3988 170.34 41.069 170.775 40.5909 170.909C40.1128 171.043 39.6037 170.845 39.3455 170.419L33.2835 160.499C32.4851 159.192 30.7928 158.718 29.4326 159.423C28.2638 160.028 27.7546 161.405 28.2446 162.624L36.7352 183.745C37.7774 186.339 39.7447 188.419 42.2761 189.602C42.6657 189.784 42.9143 190.176 42.9143 190.606V195.779C42.9143 196.391 42.4171 196.888 41.8052 196.888H41.8219Z" fill="#3A4810"/>
<path d="M71.9597 114.898H5.78229C5.17035 114.898 4.67316 114.401 4.67316 113.789C4.67316 113.177 5.17035 112.68 5.78229 112.68H71.9597C72.5717 112.68 73.0689 113.177 73.0689 113.789C73.0689 114.401 72.5717 114.898 71.9597 114.898Z" fill="#3A4810"/>
<path d="M57.4239 133.823H20.3158C17.7533 133.823 15.6761 131.746 15.6761 129.183C15.6761 126.621 17.7533 124.543 20.3158 124.543H57.4239C59.9864 124.543 62.0636 126.621 62.0636 129.183C62.0636 131.746 59.9864 133.823 57.4239 133.823Z" fill="#D0E1AD"/>
<path d="M57.4239 134.929H20.3158C17.1462 134.929 14.5693 132.353 14.5693 129.183C14.5693 126.013 17.1485 123.437 20.3158 123.437H57.4239C60.5936 123.437 63.1704 126.013 63.1704 129.183C63.1704 132.353 60.5912 134.929 57.4239 134.929ZM20.3158 125.652C18.37 125.652 16.7852 127.235 16.7852 129.183C16.7852 131.131 18.37 132.714 20.3158 132.714H57.4239C59.3697 132.714 60.9545 131.129 60.9545 129.183C60.9545 127.237 59.3697 125.652 57.4239 125.652H20.3158Z" fill="#3A4810"/>
</g>
<defs>
<clipPath id="clip0_512_2568">
<rect width="219.094" height="200" fill="white"/>
</clipPath>
</defs>
</svg>
