<svg width="217" height="200" viewBox="0 0 217 200" fill="none" xmlns="http://www.w3.org/2000/svg">
<g clip-path="url(#clip0_512_2409)">
<path d="M28.0398 163.385C27.7118 163.385 27.3885 163.237 27.1754 162.954L24.709 159.676C24.6899 159.65 24.6707 159.623 24.654 159.595L20.8227 153.405C20.509 152.897 20.6647 152.232 21.1723 151.915C21.68 151.602 22.3456 151.757 22.6617 152.265L26.4666 158.414L28.9018 161.652C29.261 162.128 29.1652 162.806 28.6887 163.165C28.4948 163.311 28.2649 163.383 28.0398 163.383V163.385ZM15.8565 144.184C15.4542 144.184 15.0687 143.958 14.8819 143.573C13.2225 140.134 11.7427 136.559 10.4856 132.948C10.2892 132.383 10.5861 131.768 11.1513 131.572C11.714 131.375 12.3318 131.672 12.5281 132.237C13.7589 135.769 15.2052 139.268 16.8311 142.632C17.0897 143.171 16.8646 143.817 16.3282 144.076C16.1774 144.15 16.0169 144.184 15.8589 144.184H15.8565ZM8.38319 122.736C7.88752 122.736 7.44214 122.393 7.3296 121.891C6.49152 118.16 5.86176 114.341 5.45708 110.545C5.39483 109.951 5.82345 109.42 6.41729 109.355C7.00873 109.293 7.54271 109.722 7.60736 110.315C8.00246 114.029 8.61785 117.765 9.43917 121.416C9.57087 121.998 9.20451 122.578 8.62025 122.71C8.54123 122.729 8.45981 122.736 8.38319 122.736ZM5.98388 100.151H5.9743C5.37806 100.146 4.89677 99.6574 4.90395 99.0588C4.93987 95.2372 5.19847 91.3772 5.67738 87.5843C5.75161 86.9904 6.29517 86.5714 6.88422 86.6456C7.47566 86.7198 7.8971 87.261 7.82287 87.8525C7.35594 91.5616 7.10212 95.3377 7.0662 99.0756C7.06141 99.6694 6.57772 100.146 5.98627 100.146L5.98388 100.151ZM8.81899 77.6183C8.73279 77.6183 8.64659 77.6087 8.56038 77.5871C7.98091 77.4435 7.62652 76.8592 7.7678 76.2797C8.67771 72.5754 9.81511 68.8783 11.1513 65.2889C11.3596 64.7286 11.9798 64.4436 12.5425 64.6519C13.1028 64.8603 13.3877 65.4828 13.1794 66.0432C11.8744 69.5559 10.7609 73.1716 9.87019 76.7946C9.74807 77.2878 9.30747 77.6183 8.82139 77.6183H8.81899Z" fill="#3A4810"/>
<path d="M109.307 200C108.733 200 108.254 199.547 108.228 198.968C108.201 198.372 108.663 197.866 109.26 197.84C112.99 197.672 116.754 197.285 120.447 196.688C121.036 196.595 121.591 196.995 121.687 197.584C121.783 198.173 121.381 198.728 120.792 198.824C117.018 199.432 113.17 199.83 109.358 200C109.341 200 109.324 200 109.307 200ZM97.9359 199.854C97.9095 199.854 97.8832 199.854 97.8593 199.851C94.0472 199.581 90.2112 199.085 86.4566 198.376C85.8699 198.266 85.4844 197.699 85.5945 197.112C85.7047 196.525 86.2698 196.142 86.8588 196.25C90.532 196.944 94.2842 197.428 98.0149 197.694C98.6111 197.737 99.0589 198.254 99.0158 198.848C98.9751 199.418 98.501 199.854 97.9383 199.854H97.9359ZM131.723 196.384C131.251 196.384 130.817 196.073 130.683 195.596C130.521 195.022 130.856 194.425 131.43 194.263C135.029 193.25 138.607 192.017 142.067 190.599C142.62 190.372 143.252 190.637 143.477 191.19C143.705 191.744 143.439 192.376 142.886 192.601C139.352 194.05 135.693 195.309 132.015 196.343C131.917 196.372 131.818 196.384 131.72 196.384H131.723ZM75.6213 195.642C75.516 195.642 75.4058 195.625 75.3005 195.592C71.6632 194.459 68.0427 193.097 64.5371 191.55C63.9912 191.308 63.7445 190.671 63.9864 190.123C64.2282 189.577 64.8652 189.33 65.4135 189.572C68.8425 191.087 72.3863 192.419 75.9446 193.528C76.5145 193.705 76.833 194.311 76.6558 194.883C76.5121 195.345 76.0835 195.642 75.6237 195.642H75.6213ZM152.739 187.776C152.359 187.776 151.987 187.575 151.791 187.216C151.504 186.694 151.693 186.035 152.217 185.748C155.495 183.942 158.702 181.928 161.745 179.764C162.231 179.419 162.906 179.532 163.254 180.018C163.601 180.504 163.486 181.179 163 181.526C159.889 183.739 156.611 185.796 153.261 187.642C153.096 187.733 152.916 187.776 152.742 187.776H152.739ZM171.247 174.611C170.952 174.611 170.657 174.491 170.442 174.254C170.042 173.811 170.078 173.126 170.521 172.726C173.299 170.222 175.959 167.528 178.428 164.721C178.823 164.274 179.505 164.228 179.953 164.623C180.401 165.018 180.446 165.701 180.051 166.149C177.527 169.02 174.807 171.773 171.967 174.333C171.761 174.52 171.503 174.611 171.244 174.611H171.247ZM186.246 157.55C186.033 157.55 185.82 157.488 185.63 157.358C185.14 157.018 185.017 156.345 185.357 155.855C187.479 152.79 189.452 149.559 191.217 146.252C191.497 145.726 192.153 145.527 192.68 145.809C193.207 146.092 193.405 146.746 193.123 147.273C191.317 150.651 189.304 153.953 187.134 157.085C186.923 157.389 186.586 157.552 186.243 157.552L186.246 157.55Z" fill="#3A4810"/>
<path d="M187.419 46.9062C187.074 46.9062 186.737 46.741 186.526 46.4369L181.263 38.7505C180.884 38.2788 180.499 37.807 180.118 37.3497C179.735 36.8899 179.797 36.2099 180.257 35.8268C180.714 35.4437 181.397 35.5059 181.78 35.9657C182.178 36.4446 182.58 36.9354 182.977 37.4311C182.994 37.4527 183.011 37.4742 183.025 37.4958L188.312 45.2157C188.65 45.709 188.523 46.3818 188.032 46.7195C187.845 46.8464 187.632 46.9086 187.422 46.9086L187.419 46.9062ZM173.174 29.4334C172.906 29.4334 172.638 29.3352 172.429 29.1365C169.721 26.56 166.833 24.1152 163.845 21.8667C163.369 21.5075 163.273 20.8299 163.63 20.3534C163.989 19.8769 164.666 19.7787 165.143 20.1379C168.198 22.4342 171.151 24.9341 173.919 27.5681C174.352 27.9799 174.369 28.6648 173.957 29.0958C173.744 29.3185 173.459 29.431 173.174 29.431V29.4334ZM155.021 15.7846C154.834 15.7846 154.648 15.7367 154.475 15.6362C151.722 14.0247 148.851 12.5281 145.936 11.1848C145.443 10.9573 144.95 10.7346 144.454 10.5143C143.908 10.2724 143.662 9.63551 143.901 9.08716C144.143 8.54121 144.78 8.29457 145.328 8.53403C145.833 8.75672 146.339 8.98659 146.844 9.21886C149.82 10.5909 152.754 12.121 155.567 13.7684C156.082 14.0702 156.257 14.7334 155.955 15.2483C155.754 15.5931 155.392 15.7846 155.021 15.7846ZM134.244 6.61123C134.139 6.61123 134.028 6.59446 133.923 6.56094C130.35 5.44749 126.677 4.53278 123.009 3.84077C122.422 3.73062 122.037 3.16551 122.147 2.57885C122.257 1.99219 122.822 1.60668 123.409 1.71682C127.159 2.42321 130.913 3.35947 134.565 4.49686C135.135 4.67406 135.453 5.27987 135.276 5.84977C135.132 6.31191 134.704 6.60883 134.244 6.60883V6.61123ZM111.929 2.40645C111.903 2.40645 111.879 2.40645 111.853 2.40405C109.588 2.24362 107.284 2.16221 105.009 2.16221C103.549 2.16221 102.066 2.19573 100.606 2.26278C100.021 2.28912 99.5043 1.82937 99.4779 1.23074C99.4516 0.634501 99.9137 0.129257 100.51 0.100523C102.004 0.0334764 103.52 -0.00244141 105.012 -0.00244141C107.337 -0.00244141 109.691 0.0813668 112.008 0.244194C112.605 0.287296 113.052 0.802118 113.012 1.39835C112.971 1.96825 112.497 2.40405 111.934 2.40405L111.929 2.40645Z" fill="#3A4810"/>
<path d="M104.947 172.698C145.069 172.698 177.594 140.172 177.594 100.05C177.594 59.9282 145.069 27.4028 104.947 27.4028C64.825 27.4028 32.2997 59.9282 32.2997 100.05C32.2997 140.172 64.825 172.698 104.947 172.698Z" fill="#B9DE6B"/>
<path d="M123.241 57.7654C121.563 57.7654 120.203 59.25 120.203 61.0794V131.945C120.203 134.692 122.243 136.916 124.759 136.916H176.85C178.528 136.916 179.888 135.432 179.888 133.602V62.4491C179.888 59.9995 177.908 58.0096 175.456 57.9976L123.241 57.7654Z" fill="#D0E1AD"/>
<path d="M176.85 137.999H124.759C121.651 137.999 119.123 135.283 119.123 131.945V61.0794C119.123 58.6562 120.971 56.6831 123.241 56.6831H123.246L175.461 56.9154C178.497 56.9297 180.968 59.4105 180.968 62.4467V133.602C180.968 136.026 179.12 137.999 176.85 137.999ZM123.236 58.8454C122.159 58.8454 121.283 59.8487 121.283 61.0794V131.945C121.283 134.091 122.841 135.836 124.757 135.836H176.847C177.927 135.836 178.804 134.835 178.804 133.602V62.4491C178.804 60.5981 177.298 59.0872 175.449 59.08L123.234 58.8478L123.236 58.8454Z" fill="#3A4810"/>
<path d="M169.017 72.0343H130.65C130.054 72.0343 129.568 71.5506 129.568 70.9519C129.568 70.3533 130.051 69.8696 130.65 69.8696H169.017C169.614 69.8696 170.1 70.3533 170.1 70.9519C170.1 71.5506 169.616 72.0343 169.017 72.0343Z" fill="#3A4810"/>
<path d="M169.017 85.7743H130.65C130.054 85.7743 129.568 85.2906 129.568 84.6919C129.568 84.0933 130.051 83.6096 130.65 83.6096H169.017C169.614 83.6096 170.1 84.0933 170.1 84.6919C170.1 85.2906 169.616 85.7743 169.017 85.7743Z" fill="#3A4810"/>
<path d="M169.017 99.514H130.65C130.054 99.514 129.568 99.0303 129.568 98.4317C129.568 97.8331 130.051 97.3494 130.65 97.3494H169.017C169.614 97.3494 170.1 97.8331 170.1 98.4317C170.1 99.0303 169.616 99.514 169.017 99.514Z" fill="#3A4810"/>
<path d="M169.017 113.251H130.65C130.054 113.251 129.568 112.768 129.568 112.169C129.568 111.57 130.051 111.087 130.65 111.087H169.017C169.614 111.087 170.1 111.57 170.1 112.169C170.1 112.768 169.616 113.251 169.017 113.251Z" fill="#3A4810"/>
<path d="M169.017 126.991H130.65C130.054 126.991 129.568 126.507 129.568 125.909C129.568 125.31 130.051 124.826 130.65 124.826H169.017C169.614 124.826 170.1 125.31 170.1 125.909C170.1 126.507 169.616 126.991 169.017 126.991Z" fill="#3A4810"/>
<path d="M183.59 65.1046C185.781 65.1142 187.553 66.8933 187.553 69.0843V140.709C187.553 142.541 186.193 144.023 184.515 144.023H132.424C129.908 144.023 127.867 141.796 127.867 139.052V68.1863C127.867 66.3569 129.228 64.8723 130.906 64.8723L183.59 65.107V65.1046Z" fill="white"/>
<path d="M184.515 145.106H132.424C129.316 145.106 126.788 142.39 126.788 139.052V68.1864C126.788 65.7631 128.636 63.79 130.906 63.79L183.595 64.0247C186.373 64.0367 188.633 66.3067 188.633 69.0867V140.712C188.633 143.135 186.785 145.108 184.512 145.108L184.515 145.106ZM130.901 65.9523C129.826 65.9523 128.95 66.9532 128.95 68.1864V139.052C128.95 141.198 130.509 142.943 132.424 142.943H184.515C185.595 142.943 186.471 141.942 186.471 140.709V69.0843C186.471 67.4944 185.176 66.1941 183.586 66.187L130.901 65.9523Z" fill="#3A4810"/>
<path d="M176.682 79.1412H138.315C137.719 79.1412 137.232 78.6575 137.232 78.0589C137.232 77.4603 137.716 76.9766 138.315 76.9766H176.682C177.278 76.9766 177.764 77.4603 177.764 78.0589C177.764 78.6575 177.281 79.1412 176.682 79.1412Z" fill="#3A4810"/>
<path d="M176.682 92.8788H138.315C137.719 92.8788 137.232 92.3951 137.232 91.7964C137.232 91.1978 137.716 90.7141 138.315 90.7141H176.682C177.278 90.7141 177.764 91.1978 177.764 91.7964C177.764 92.3951 177.281 92.8788 176.682 92.8788Z" fill="#3A4810"/>
<path d="M176.682 106.619H138.315C137.719 106.619 137.232 106.135 137.232 105.536C137.232 104.938 137.716 104.454 138.315 104.454H176.682C177.278 104.454 177.764 104.938 177.764 105.536C177.764 106.135 177.281 106.619 176.682 106.619Z" fill="#3A4810"/>
<path d="M176.682 120.358H138.315C137.719 120.358 137.232 119.875 137.232 119.276C137.232 118.677 137.716 118.194 138.315 118.194H176.682C177.278 118.194 177.764 118.677 177.764 119.276C177.764 119.875 177.281 120.358 176.682 120.358Z" fill="#3A4810"/>
<path d="M176.682 134.098H138.315C137.719 134.098 137.232 133.614 137.232 133.016C137.232 132.417 137.716 131.933 138.315 131.933H176.682C177.278 131.933 177.764 132.417 177.764 133.016C177.764 133.614 177.281 134.098 176.682 134.098Z" fill="#3A4810"/>
<path d="M215.399 131.823H187.896V108.448L188.195 108.417L179.953 108.276C178.176 108.244 176.749 106.767 176.778 104.99C176.809 103.214 178.286 101.786 180.063 101.815H182.206L196.289 102.014C201.578 102.059 206.271 104.775 209.185 108.915L210.62 108.848L215.471 108.889" fill="white"/>
<path d="M215.399 132.906H187.896C187.299 132.906 186.813 132.422 186.813 131.823V109.475L179.934 109.358C178.787 109.339 177.712 108.869 176.91 108.041C176.107 107.21 175.676 106.123 175.696 104.973C175.736 102.622 177.662 100.738 180.006 100.738C180.03 100.738 180.056 100.738 180.08 100.738H182.204L196.303 100.936C201.513 100.979 206.484 103.539 209.715 107.811L210.567 107.77C210.586 107.77 210.608 107.77 210.627 107.77L215.478 107.811C216.074 107.816 216.556 108.304 216.551 108.9C216.546 109.499 216.05 109.98 215.461 109.973L210.639 109.933L209.236 110C208.872 110.016 208.513 109.844 208.299 109.542C205.486 105.548 200.991 103.139 196.277 103.099L182.187 102.9H180.061C180.049 102.9 180.034 102.9 180.023 102.9C178.837 102.9 177.877 103.838 177.858 105.012C177.848 105.582 178.064 106.125 178.464 106.539C178.864 106.954 179.4 107.188 179.97 107.198L188.212 107.339C188.784 107.349 189.249 107.801 189.273 108.371C189.287 108.678 189.172 108.96 188.973 109.166V130.746H215.397C215.993 130.746 216.479 131.229 216.479 131.828C216.479 132.427 215.995 132.91 215.397 132.91L215.399 132.906Z" fill="#3A4810"/>
<path d="M200.639 118.201C195.74 118.16 193.166 113.347 193.209 108.448L191.543 108.474L188.195 108.417" fill="white"/>
<path d="M200.639 119.283H200.63C195.376 119.238 192.496 114.518 192.16 109.547L191.559 109.557C191.559 109.557 191.535 109.557 191.523 109.557L188.176 109.499C187.58 109.489 187.103 108.996 187.113 108.4C187.122 107.804 187.623 107.327 188.212 107.337L191.543 107.394L193.19 107.368C193.489 107.358 193.762 107.476 193.968 107.682C194.174 107.888 194.289 108.168 194.287 108.457C194.251 112.734 196.423 117.085 200.647 117.118C201.243 117.123 201.724 117.612 201.719 118.208C201.714 118.802 201.231 119.281 200.639 119.281V119.283Z" fill="#3A4810"/>
<path d="M200.639 118.201C200.639 118.201 193.372 118.718 193.209 108.448L200.639 118.201Z" fill="white"/>
<path d="M200.479 119.288C199.727 119.288 197.354 119.128 195.309 117.253C193.262 115.375 192.191 112.421 192.129 108.467C192.12 107.871 192.596 107.378 193.192 107.368C193.796 107.358 194.282 107.835 194.291 108.431C194.344 111.767 195.18 114.197 196.772 115.655C198.482 117.224 200.546 117.123 200.565 117.121C201.166 117.08 201.679 117.528 201.719 118.122C201.762 118.718 201.312 119.235 200.718 119.276C200.699 119.276 200.618 119.283 200.481 119.283L200.479 119.288Z" fill="#3A4810"/>
<path d="M104.416 9.1687V17.9183H28.7702V9.1687C28.7702 5.28718 31.9214 2.13599 35.8101 2.13599H97.3756C101.264 2.13599 104.416 5.28718 104.416 9.1687Z" fill="#D0E1AD"/>
<path d="M104.416 18.9983H28.7702C28.174 18.9983 27.6879 18.5146 27.6879 17.9159V9.16874C27.6879 4.69338 31.3299 1.05371 35.8077 1.05371H97.3756C101.853 1.05371 105.495 4.69338 105.495 9.16874V17.9183C105.495 18.5146 105.012 19.0006 104.413 19.0006L104.416 18.9983ZM29.8525 16.836H103.333V9.16874C103.333 5.88585 100.661 3.21596 97.3756 3.21596H35.8077C32.5224 3.21596 29.8501 5.88585 29.8501 9.16874V16.836H29.8525Z" fill="#3A4810"/>
<path d="M104.416 17.9182V84.6368C104.416 88.5183 101.264 91.6695 97.3756 91.6695H35.8077C31.919 91.6695 28.7678 88.5183 28.7678 84.6368V17.9182H104.416Z" fill="white"/>
<path d="M97.3756 92.7518H35.8077C31.3299 92.7518 27.6879 89.1122 27.6879 84.6368V17.9183C27.6879 17.322 28.1716 16.8359 28.7702 16.8359H104.416C105.012 16.8359 105.498 17.3196 105.498 17.9183V84.6368C105.498 89.1122 101.856 92.7518 97.378 92.7518H97.3756ZM29.8501 18.9982V84.6368C29.8501 87.9197 32.5224 90.5896 35.8077 90.5896H97.3756C100.661 90.5896 103.333 87.9197 103.333 84.6368V18.9982H29.8501Z" fill="#3A4810"/>
<path d="M43.6018 83.9543C47.7755 83.9543 51.159 80.5741 51.159 76.4044C51.159 72.2347 47.7755 68.8545 43.6018 68.8545C39.4282 68.8545 36.0447 72.2347 36.0447 76.4044C36.0447 80.5741 39.4282 83.9543 43.6018 83.9543Z" fill="#D0E1AD"/>
<path d="M43.6018 85.0343C38.8391 85.0343 34.9624 81.1623 34.9624 76.402C34.9624 71.6417 38.8367 67.7698 43.6018 67.7698C48.3669 67.7698 52.2413 71.6417 52.2413 76.402C52.2413 81.1623 48.3669 85.0343 43.6018 85.0343ZM43.6018 69.9344C40.0316 69.9344 37.1271 72.8366 37.1271 76.402C37.1271 79.9675 40.0316 82.8696 43.6018 82.8696C47.1721 82.8696 50.0766 79.9675 50.0766 76.402C50.0766 72.8366 47.1721 69.9344 43.6018 69.9344Z" fill="#3A4810"/>
<path d="M43.6018 37.5151C43.2331 37.5151 42.8882 37.3259 42.6895 37.0122L39.9837 32.7428C39.6628 32.2376 39.8137 31.5695 40.3189 31.251C40.8242 30.9325 41.4922 31.081 41.8107 31.5862L43.5563 34.3399L50.2227 22.7002C50.5196 22.1806 51.1805 22.0034 51.6977 22.3003C52.2149 22.5972 52.3945 23.2581 52.0976 23.7753L44.5405 36.9691C44.3513 37.2972 44.0041 37.5031 43.6258 37.5127C43.6186 37.5127 43.609 37.5127 43.6018 37.5127V37.5151Z" fill="#3A4810"/>
<path d="M43.6018 58.6633C43.2331 58.6633 42.8882 58.4741 42.6895 58.1604L39.9837 53.891C39.6628 53.3857 39.8137 52.7177 40.3189 52.3992C40.8242 52.0807 41.4922 52.2292 41.8107 52.7344L43.5563 55.4881L50.2227 43.8484C50.5196 43.3288 51.1805 43.1516 51.6977 43.4485C52.2149 43.7454 52.3945 44.4063 52.0976 44.9235L44.5405 58.1173C44.3513 58.4454 44.0041 58.6513 43.6258 58.6609C43.6186 58.6609 43.609 58.6609 43.6018 58.6609V58.6633Z" fill="#3A4810"/>
<path d="M92.2393 30.9181H58.4431C57.8468 30.9181 57.3607 30.4344 57.3607 29.8357C57.3607 29.2371 57.8444 28.7534 58.4431 28.7534H92.2393C92.8356 28.7534 93.3217 29.2371 93.3217 29.8357C93.3217 30.4344 92.838 30.9181 92.2393 30.9181Z" fill="#3A4810"/>
<path d="M92.2393 39.6148H58.4431C57.8468 39.6148 57.3607 39.1312 57.3607 38.5325C57.3607 37.9339 57.8444 37.4502 58.4431 37.4502H92.2393C92.8356 37.4502 93.3217 37.9339 93.3217 38.5325C93.3217 39.1312 92.838 39.6148 92.2393 39.6148Z" fill="#3A4810"/>
<path d="M92.2393 52.5023H58.4431C57.8468 52.5023 57.3607 52.0186 57.3607 51.42C57.3607 50.8213 57.8444 50.3376 58.4431 50.3376H92.2393C92.8356 50.3376 93.3217 50.8213 93.3217 51.42C93.3217 52.0186 92.838 52.5023 92.2393 52.5023Z" fill="#3A4810"/>
<path d="M92.2393 61.1991H58.4431C57.8468 61.1991 57.3607 60.7154 57.3607 60.1167C57.3607 59.5181 57.8444 59.0344 58.4431 59.0344H92.2393C92.8356 59.0344 93.3217 59.5181 93.3217 60.1167C93.3217 60.7154 92.838 61.1991 92.2393 61.1991Z" fill="#3A4810"/>
<path d="M92.2393 74.0841H58.4431C57.8468 74.0841 57.3607 73.6004 57.3607 73.0018C57.3607 72.4031 57.8444 71.9194 58.4431 71.9194H92.2393C92.8356 71.9194 93.3217 72.4031 93.3217 73.0018C93.3217 73.6004 92.838 74.0841 92.2393 74.0841Z" fill="#3A4810"/>
<path d="M92.2393 82.7833H58.4431C57.8468 82.7833 57.3607 82.2996 57.3607 81.701C57.3607 81.1024 57.8444 80.6187 58.4431 80.6187H92.2393C92.8356 80.6187 93.3217 81.1024 93.3217 81.701C93.3217 82.2996 92.838 82.7833 92.2393 82.7833Z" fill="#3A4810"/>
<path d="M12.4587 139.641L40.35 118.914C41.157 118.316 42.2609 118.316 43.0678 118.914L71.4836 140.034L72.269 140.613V178.935C72.269 179.603 71.7278 180.142 71.0622 180.142H11.1393V140.611L12.4563 139.639L12.4587 139.641Z" fill="white"/>
<path d="M71.0598 181.253H11.1393C10.5263 181.253 10.0306 180.758 10.0306 180.145V140.614C10.0306 140.262 10.1983 139.931 10.4808 139.723L11.7978 138.751L39.6844 118.026C40.8936 117.128 42.5171 117.128 43.7239 118.026L72.9227 139.723C73.2053 139.931 73.3729 140.262 73.3729 140.614V178.935C73.3729 180.212 72.3337 181.251 71.0574 181.251L71.0598 181.253ZM12.248 179.038H71.0598C71.1149 179.038 71.1604 178.993 71.1604 178.938V141.174L70.8251 140.927L42.407 119.805C41.9903 119.496 41.4276 119.494 41.011 119.805L13.122 140.532C13.122 140.532 13.122 140.532 13.1196 140.535L12.2504 141.174V179.036L12.248 179.038Z" fill="#3A4810"/>
<path d="M81.5814 138.552L68.5097 128.904V111.613C68.5097 111.084 68.081 110.658 67.5542 110.658H60.5838C60.0546 110.658 59.6284 111.087 59.6284 111.613V122.348L42.7781 109.911C42.1436 109.442 41.2792 109.442 40.6446 109.911L1.83661 138.552C1.03684 139.141 0.869221 140.266 1.45827 141.064L3.59179 143.956C4.18084 144.754 5.30627 144.924 6.10364 144.334L40.6398 118.845C41.2744 118.375 42.1388 118.375 42.7733 118.845L77.3095 144.334C78.1069 144.924 79.2323 144.754 79.8238 143.956L81.9573 141.064C82.5463 140.266 82.3763 139.141 81.579 138.552H81.5814Z" fill="white"/>
<path d="M5.04288 145.795C4.89682 145.795 4.75075 145.783 4.60229 145.762C3.83604 145.647 3.1584 145.237 2.69865 144.615L0.565128 141.724C-0.385497 140.436 -0.110127 138.614 1.17813 137.661L39.9837 109.023C41.0158 108.261 42.4022 108.261 43.4342 109.023L58.5197 120.155V111.613C58.5197 110.476 59.4464 109.549 60.5838 109.549H67.5543C68.6917 109.549 69.6183 110.476 69.6183 111.613V128.346L82.2399 137.661C83.5281 138.612 83.8035 140.434 82.8529 141.722L80.7193 144.615C79.7687 145.903 77.9441 146.178 76.6582 145.228L42.1196 119.738C41.8754 119.556 41.5474 119.556 41.3007 119.738L6.76215 145.225C6.25691 145.599 5.65827 145.793 5.04288 145.793V145.795ZM41.7078 110.668C41.5641 110.668 41.4204 110.713 41.2983 110.804L2.49511 139.443C2.18861 139.668 2.12396 140.101 2.34905 140.408L4.48256 143.298C4.59271 143.446 4.75315 143.542 4.93513 143.571C5.11951 143.597 5.2991 143.554 5.44756 143.444L39.9837 117.954C41.0158 117.193 42.4022 117.193 43.4342 117.954L77.9728 143.444C78.2793 143.669 78.7103 143.604 78.9354 143.298L81.0689 140.408C81.294 140.101 81.2294 139.67 80.9229 139.443L67.8512 129.795C67.5686 129.587 67.401 129.256 67.401 128.904V111.764H60.7323V122.348C60.7323 122.767 60.4976 123.148 60.1241 123.337C59.7505 123.526 59.3027 123.488 58.9675 123.239L42.1173 110.802C41.9951 110.711 41.8515 110.665 41.7078 110.665V110.668Z" fill="#3A4810"/>
<path d="M39.2581 152.747L67.1495 132.02C67.9565 131.421 69.0604 131.421 69.8673 132.02L98.2831 153.139L99.0685 153.719V192.041C99.0685 192.709 98.5273 193.247 97.8617 193.247H37.9412V153.716L39.2581 152.744V152.747Z" fill="white"/>
<path d="M97.8617 194.359H37.9412C37.3282 194.359 36.8325 193.863 36.8325 193.25V153.719C36.8325 153.367 37.0001 153.036 37.2827 152.828L38.5973 151.858L66.4887 131.134C67.6979 130.236 69.3214 130.236 70.5282 131.134L99.727 152.83C100.01 153.039 100.177 153.369 100.177 153.721V192.043C100.177 193.319 99.138 194.359 97.8617 194.359ZM39.0498 192.144H97.8617C97.9168 192.144 97.9622 192.098 97.9622 192.043V154.279L97.627 154.032L69.2088 132.91C68.7898 132.599 68.2295 132.599 67.8128 132.91L39.9215 153.637C39.9215 153.637 39.9215 153.637 39.9191 153.64L39.0498 154.279V192.144Z" fill="#3A4810"/>
<path d="M108.383 151.655L95.3115 142.007V124.716C95.3115 124.187 94.8829 123.761 94.3561 123.761H87.3856C86.8564 123.761 86.4302 124.19 86.4302 124.716V135.451L69.58 123.014C68.9454 122.545 68.081 122.545 67.4465 123.014L28.6408 151.655C27.8435 152.244 27.6735 153.369 28.2625 154.167L30.396 157.059C30.9851 157.857 32.1105 158.027 32.9079 157.437L67.4441 131.948C68.0786 131.478 68.943 131.478 69.5776 131.948L104.114 157.437C104.911 158.027 106.037 157.857 106.626 157.059L108.759 154.167C109.348 153.369 109.178 152.244 108.381 151.655H108.383Z" fill="#D0E1AD"/>
<path d="M105.175 158.9C104.559 158.9 103.961 158.704 103.455 158.333L68.9191 132.843C68.6749 132.661 68.3468 132.661 68.1002 132.843L33.564 158.333C32.939 158.795 32.1728 158.984 31.4065 158.869C30.6403 158.754 29.9626 158.345 29.5029 157.722L27.3694 154.832C26.9096 154.207 26.7181 153.441 26.833 152.675C26.9479 151.908 27.3574 151.231 27.98 150.771L66.7856 122.13C67.8176 121.369 69.2041 121.369 70.2361 122.13L85.3216 133.262V124.721C85.3216 123.584 86.2483 122.657 87.3857 122.657H94.3561C95.4935 122.657 96.4202 123.584 96.4202 124.721V141.454L109.042 150.769C109.667 151.228 110.074 151.906 110.189 152.672C110.304 153.441 110.114 154.207 109.652 154.83L107.519 157.72C107.059 158.345 106.381 158.752 105.615 158.867C105.469 158.888 105.321 158.9 105.177 158.9H105.175ZM68.5096 130.487C69.1155 130.487 69.7189 130.676 70.2361 131.057L104.772 156.547C104.921 156.657 105.103 156.7 105.285 156.674C105.467 156.647 105.627 156.549 105.737 156.401L107.871 153.508C107.981 153.36 108.026 153.178 107.998 152.996C107.971 152.814 107.873 152.653 107.725 152.543L94.653 142.895C94.3705 142.687 94.2029 142.357 94.2029 142.005V124.865H87.5341V135.448C87.5341 135.868 87.2994 136.248 86.9259 136.437C86.5524 136.627 86.1046 136.588 85.7694 136.339L68.9191 123.902C68.6749 123.72 68.3468 123.72 68.1026 123.902L29.297 152.543C29.1485 152.653 29.0527 152.814 29.024 152.996C28.9976 153.178 29.0407 153.36 29.1509 153.508L31.2844 156.398C31.3946 156.547 31.555 156.642 31.737 156.671C31.9166 156.7 32.1009 156.654 32.2494 156.544L66.7856 131.055C67.3028 130.674 67.9062 130.485 68.512 130.485L68.5096 130.487Z" fill="#3A4810"/>
</g>
<defs>
<clipPath id="clip0_512_2409">
<rect width="216.553" height="200" fill="white"/>
</clipPath>
</defs>
</svg>
